<?xml version="1.0" encoding="UTF-8"?><svg id="a" xmlns="http://www.w3.org/2000/svg" viewBox="0 0 200 200"><defs><style>.b{stroke-width:0px;}</style></defs><path class="b" d="m126.31,41.72v-5.36h-13.5l-.03-.09c-1.67-5.67-6.88-9.56-12.79-9.56s-11.12,3.89-12.79,9.56l-.03.09h-13.5v5.36h-25.21v131.56h103.05V41.72h-25.21Zm17.21,123.56H56.48V49.72h17.21v6.58h52.63v-6.58h17.21v115.56Z"/><path class="b" d="m93.32,81.32c0,1.38,1.12,2.5,2.5,2.5h33.65c1.38,0,2.5-1.12,2.5-2.5s-1.12-2.5-2.5-2.5h-33.65c-1.38,0-2.5,1.12-2.5,2.5Z"/><path class="b" d="m86.35,70.21l-9.63,9.63-4.42-4.42c-.98-.98-2.56-.98-3.54,0-.98.98-.98,2.56,0,3.54l7.95,7.95,13.17-13.17c.98-.98.98-2.56,0-3.54s-2.56-.98-3.54,0Z"/><path class="b" d="m129.47,101.16h-33.65c-1.38,0-2.5,1.12-2.5,2.5s1.12,2.5,2.5,2.5h33.65c1.38,0,2.5-1.12,2.5-2.5s-1.12-2.5-2.5-2.5Z"/><path class="b" d="m86.35,92.55l-9.63,9.63-4.42-4.42c-.98-.98-2.56-.98-3.54,0s-.98,2.56,0,3.54l7.95,7.95,13.17-13.17c.98-.98.98-2.56,0-3.54s-2.56-.98-3.54,0Z"/><path class="b" d="m129.47,123.5h-33.65c-1.38,0-2.5,1.12-2.5,2.5s1.12,2.5,2.5,2.5h33.65c1.38,0,2.5-1.12,2.5-2.5s-1.12-2.5-2.5-2.5Z"/><path class="b" d="m86.35,114.89l-9.63,9.63-4.42-4.42c-.98-.98-2.56-.98-3.54,0s-.98,2.56,0,3.54l7.95,7.95,13.17-13.17c.98-.98.98-2.56,0-3.54-.98-.98-2.56-.98-3.54,0Z"/><path class="b" d="m129.47,145.83h-33.65c-1.38,0-2.5,1.12-2.5,2.5s1.12,2.5,2.5,2.5h33.65c1.38,0,2.5-1.12,2.5-2.5s-1.12-2.5-2.5-2.5Z"/><path class="b" d="m86.35,137.22l-9.63,9.63-4.42-4.42c-.98-.98-2.56-.98-3.54,0s-.98,2.56,0,3.54l7.95,7.95,13.17-13.17c.98-.98.98-2.56,0-3.54-.98-.98-2.56-.98-3.54,0Z"/></svg>