<?xml version="1.0" encoding="UTF-8"?><svg id="a" xmlns="http://www.w3.org/2000/svg" viewBox="0 0 200 200"><defs><style>.b{stroke-width:0px;}</style></defs><path class="b" d="m191.59,64.51h-2.1c-.78-1.08-2.04-1.78-3.48-1.78s-2.69.71-3.48,1.78h-79.06c-.78-1.08-2.04-1.78-3.48-1.78s-2.69.71-3.48,1.78H17.46c-.78-1.08-2.04-1.78-3.48-1.78s-2.69.71-3.48,1.78h-2.1c-.5,0-.91.41-.91.91v3.24c0,.5.41.91.91.91h2.1c.78,1.08,2.04,1.78,3.48,1.78s2.69-.71,3.48-1.78h79.06c.78,1.08,2.04,1.78,3.48,1.78s2.69-.71,3.48-1.78h79.06c.78,1.08,2.04,1.78,3.48,1.78s2.69-.71,3.48-1.78h2.1c.5,0,.91-.41.91-.91v-3.24c0-.5-.41-.91-.91-.91Z"/><path class="b" d="m187.64,77.72h-2.49c-.77-1.17-2.09-1.94-3.59-1.94s-2.82.77-3.59,1.94h-74.36c-.77-1.17-2.09-1.94-3.59-1.94s-2.82.77-3.59,1.94H22.04c-.77-1.17-2.09-1.94-3.59-1.94s-2.82.77-3.59,1.94h-2.49c-.46,0-.84.38-.84.84v2.9c0,.46.38.84.84.84h2.4c.75,1.26,2.11,2.11,3.68,2.11s2.93-.85,3.68-2.11h74.18c.75,1.26,2.11,2.11,3.68,2.11s2.93-.85,3.68-2.11h74.18c.75,1.26,2.11,2.11,3.68,2.11s2.93-.85,3.68-2.11h2.4c.46,0,.84-.38.84-.84v-2.9c0-.46-.38-.84-.84-.84Z"/><path class="b" d="m183.52,91.72h-2.49c-.76-1.21-2.1-2.02-3.64-2.02s-2.88.81-3.64,2.02h-70.12c-.76-1.21-2.1-2.02-3.64-2.02s-2.88.81-3.64,2.02H26.24c-.76-1.21-2.1-2.02-3.64-2.02s-2.88.81-3.64,2.02h-2.49c-.43,0-.79.35-.79.79v2.66c0,.43.35.79.79.79h2.3c.71,1.39,2.15,2.36,3.82,2.36s3.11-.96,3.82-2.36h69.75c.71,1.39,2.15,2.36,3.82,2.36s3.11-.96,3.82-2.36h69.75c.71,1.39,2.15,2.36,3.82,2.36s3.11-.96,3.82-2.36h2.3c.43,0,.79-.35.79-.79v-2.66c0-.43-.35-.79-.79-.79Z"/><path class="b" d="m179.84,104.94h-2.65c-.75-1.26-2.11-2.11-3.68-2.11s-2.93.85-3.68,2.11h-66.14c-.75-1.26-2.11-2.11-3.68-2.11s-2.93.85-3.68,2.11H29.89c-.75-1.26-2.11-2.11-3.68-2.11s-2.93.85-3.68,2.11h-2.37c-.41,0-.73.33-.73.73v2.43c0,.41.33.73.73.73h2.09c.66,1.54,2.18,2.61,3.96,2.61s3.3-1.08,3.96-2.61h65.87c.66,1.54,2.18,2.61,3.96,2.61s3.3-1.08,3.96-2.61h65.58c.66,1.54,2.18,2.61,3.96,2.61s3.3-1.08,3.96-2.61h2.38c.41,0,.73-.33.73-.73v-2.43c0-.41-.33-.73-.73-.73Z"/><path class="b" d="m174.59,117.72h-2.94c-.74-1.3-2.12-2.19-3.73-2.19s-2.99.89-3.73,2.19h-60.46c-.74-1.3-2.12-2.19-3.73-2.19s-2.99.89-3.73,2.19h-60.89c-.74-1.3-2.12-2.19-3.73-2.19s-2.99.89-3.73,2.19h-2.5c-.37,0-.68.3-.68.68v2.21c0,.37.3.68.68.68h2.19c.59,1.67,2.17,2.87,4.04,2.87s3.45-1.2,4.04-2.87h60.26c.59,1.67,2.17,2.87,4.04,2.87s3.45-1.2,4.04-2.87h59.83c.59,1.67,2.17,2.87,4.04,2.87s3.45-1.2,4.04-2.87h2.62c.37,0,.68-.3.68-.68v-2.21c0-.37-.3-.68-.68-.68Z"/><path class="b" d="m170.19,131.14h-2.56c-.69-1.46-2.16-2.48-3.89-2.48s-3.2,1.02-3.89,2.48h-55.97c-.69-1.46-2.16-2.48-3.89-2.48s-3.2,1.02-3.89,2.48h-55.68c-.69-1.46-2.16-2.48-3.89-2.48s-3.2,1.02-3.89,2.48h-2.85c-.34,0-.62.28-.62.62v1.98c0,.34.28.62.62.62h2.68c.58,1.69,2.17,2.92,4.06,2.92s3.48-1.23,4.06-2.92h55.33c.58,1.69,2.17,2.92,4.06,2.92s3.48-1.23,4.06-2.92h55.62c.58,1.69,2.17,2.92,4.06,2.92s3.48-1.23,4.06-2.92h2.39c.34,0,.62-.28.62-.62v-1.98c0-.34-.28-.62-.62-.62Z"/></svg>