<?xml version="1.0" encoding="UTF-8"?><svg id="a" xmlns="http://www.w3.org/2000/svg" viewBox="0 0 200 200"><defs><style>.b{stroke-width:0px;}</style></defs><path class="b" d="m99.6,114.83c-8.16,0-14.78,6.62-14.78,14.78s6.62,14.78,14.78,14.78,14.78-6.62,14.78-14.78-6.62-14.78-14.78-14.78Zm8.22,9.77l-8.12,11.98c-.29.43-.74.71-1.2.71s-.96-.24-1.28-.57l-5.73-5.73c-.39-.39-.39-1.02,0-1.41l1.42-1.42c.39-.39,1.02-.39,1.41,0l3.72,3.72,6.46-9.54c.3-.45.93-.57,1.39-.26l1.65,1.12c.46.31.58.94.27,1.39Z"/><path class="b" d="m155.52,60.89c0-.31-.04-.62-.1-.92,0-.04.01-.07.01-.1v-10.83c0-1.34-1.09-2.43-2.43-2.43h-5.36c-1.11,0-2.04.75-2.33,1.77h-2.25V10.5c0-1.48-1.2-2.69-2.69-2.69H59.46c-1.48,0-2.69,1.2-2.69,2.69v37.88h-2.61c-.57-1.07-1.68-1.8-2.97-1.8h-3.42c-1.86,0-3.37,1.51-3.37,3.37v33.8c0,1.86,1.51,3.37,3.37,3.37h3.42c.24,0,.47-.03.7-.07.08.02.16.05.25.05h4.62v102.39c0,1.48,1.2,2.69,2.69,2.69h80.9c1.48,0,2.69-1.2,2.69-2.69v-102.61l8.12-.02c1.18,0,2.3-.47,3.13-1.31.83-.84,1.29-1.95,1.29-3.14l-.08-21.54Zm-100.94-6.54h2.2v2.33h-2.2v-2.33Zm7.57-4.11h75.53v2.24H62.15v-2.24Zm83.05,6.24h-2.14s0-2.13,0-2.13h2.14v2.13Zm-7.51-2.13v2.15l-75.53.17v-2.32h75.53Zm-75.53,121.42v-78.53h5.16c.58,0,1.05-.47,1.05-1.05v-9.08h24.69c.16,0,.3-.04.44-.11l38.23-.09s0,.02,0,.04v9.23c0,.58.47,1.05,1.05,1.05h4.92v78.53H62.15Zm83.05-125.52v2.24h-2.14v-2.24h2.14ZM62.15,24.27h75.53v24.11H62.15v-24.11Zm-5.37,28.22h-2.2v-2.24h2.2v2.24Z"/></svg>