<?xml version="1.0" encoding="UTF-8"?><svg id="a" xmlns="http://www.w3.org/2000/svg" viewBox="0 0 200 200"><defs><style>.b{stroke-width:0px;}</style></defs><path class="b" d="m180.86,114.49h-30.64l1.64.74,1.63.74,13.74,6.2,1.63.74,1.63.74h14v-4.06c0-2.85-1.6-5.09-3.64-5.09Z"/><path class="b" d="m31.09,122.9l1.63-.74,13.74-6.2,1.63-.74,1.64-.74h-30.59c-2.04,0-3.64,2.24-3.64,5.09v4.06h13.94l1.63-.74Z"/><polygon class="b" points="132.38 122.9 130.75 122.16 117.01 115.96 115.37 115.22 113.74 114.49 86.23 114.49 84.59 115.22 82.96 115.96 69.21 122.16 67.58 122.9 65.94 123.63 134.02 123.63 132.38 122.9"/><path class="b" d="m182.85,125.95h-9.6c-.9,0-1.6.89-1.61,2.03l-9.65-4.35-1.63-.74-1.63-.74-13.74-6.2-1.63-.74-1.64-.74-37.88-17.09c-.86-1.2-2.26-1.99-3.85-1.99s-2.99.79-3.85,1.99l-37.88,17.09-1.64.74-1.63.74-13.74,6.2-1.63.74-1.63.74-9.65,4.35c0-1.14-.71-2.03-1.61-2.03h-9.6c-.9,0-1.61.9-1.61,2.05v26.37c0,.88.42,1.62,1.03,1.91l.66,3.18c.15.71.64,1.17,1.24,1.17h4.73c.61,0,1.1-.46,1.24-1.18l.59-3.03h1.72s.07-.01.11-.01v.24h69.82c.69,1.13,1.92,1.89,3.34,1.89s2.65-.76,3.34-1.89h69.82v-.24s.07.01.11.01h1.75l.59,3.04c.15.71.63,1.18,1.24,1.18h4.73c.61,0,1.1-.46,1.24-1.17l.67-3.2c.58-.3.99-1.03.99-1.89v-26.37c0-1.15-.71-2.05-1.61-2.05Zm-80.65,22.68c-.63-.43-1.39-.69-2.22-.69s-1.59.25-2.22.69H28.32v-2.18h68.78c.72.78,1.74,1.27,2.88,1.27s2.16-.49,2.88-1.27h68.78v2.18h-69.44Zm-43.13-25.74l1.63-.74,13.74-6.2,1.63-.74,1.64-.74,18.88-8.52c.86.88,2.06,1.44,3.39,1.44s2.53-.55,3.39-1.44l18.88,8.52,1.64.74,1.63.74,13.74,6.2,1.63.74,1.63.74,11.79,5.32,17.18,7.75h0s.14-.32.14-.32v2.08h-68.73c-.72-.81-1.76-1.33-2.93-1.33s-2.21.52-2.93,1.33H28.32v-2.08l.14.32h0l17.18-7.75,11.79-5.32,1.63-.74Z"/><path class="b" d="m100,89.04c11.05,0,20.05-8.99,20.05-20.05,0-10.21-7.67-18.64-17.55-19.88v-4.75h4.91v-5h-14.82v5h4.91v4.75c-9.88,1.24-17.55,9.67-17.55,19.88,0,11.05,8.99,20.05,20.05,20.05Zm0-35.1c8.3,0,15.05,6.75,15.05,15.05s-6.75,15.05-15.05,15.05-15.05-6.75-15.05-15.05,6.75-15.05,15.05-15.05Z"/><path class="b" d="m100,71.39c1.32,0,2.4-1.07,2.4-2.4h0v-11.12h-4.8v11.12s0,0,0,0c0,1.33,1.07,2.4,2.4,2.4Z"/></svg>