<?xml version="1.0" encoding="UTF-8"?><svg id="a" xmlns="http://www.w3.org/2000/svg" viewBox="0 0 200 200"><defs><style>.b{stroke-width:0px;}</style></defs><path class="b" d="m172.71,61.65c-1.2-.76-2.71-.82-3.97-.17l-33.87,17.52c-.95.49-1.66,1.34-1.98,2.35-.15.47-.19.95-.17,1.43l-6.64,2.3c-4.05-1.87-16.4-7.43-20.57-7.43-.04,0-.08,0-.13,0-2.2.07-9.65,2.42-11.12,2.89-.04.01-.08.03-.12.04-1.02.36-2.36.85-3.67,1.38-.69-1.09-1.87-1.81-3.2-1.87l-14.24-.64c.1-1.67-.85-3.27-2.46-3.93l-7.79-3.18c.38-.92.41-1.95.07-2.89-.37-1.02-1.15-1.84-2.14-2.28l-29.66-13.09c-1.24-.55-2.67-.43-3.8.31-1.13.74-1.82,2-1.82,3.35v52.34c0,1.56.91,2.98,2.33,3.63l11.74,5.41c.53.25,1.1.37,1.67.37s1.09-.11,1.6-.33c1.05-.46,1.85-1.34,2.2-2.42l.94-2.86,7.26,3.4c.54.25,1.12.38,1.69.38.5,0,1.01-.09,1.48-.29,1.03-.41,1.84-1.23,2.24-2.25l.1-.26,4.34,3.8c.07.06.15.11.23.16-.79,2.73-.11,5.64,1.9,7.51,1.11,1.04,2.51,1.58,4,1.62-.21,2.02.35,4.05,2.08,5.65,2.01,1.9,4.52,1.9,6.55,1.23.3,1.51,1.07,2.96,2.44,4.07,1.57,1.29,3.54,1.66,5.52,1.16.36,1.14,1.07,2.19,2.11,3.03.87.72,2.02,1.22,3.33,1.22,1.1,0,2.3-.35,3.54-1.21.03.02.05.05.09.07,2.03,1.37,2.88,1.8,3.35,2.01,1.57.71,3.19,1.07,4.8,1.07,1.88,0,3.7-.51,5.11-1.44.61-.4,1.09-.96,1.4-1.6,2.8-.04,5.27-.89,6.82-2.36.51-.46.95-1.02,1.29-1.64,1.9.3,4.73.39,7.23-1.03,1.38-.79,2.44-1.93,3.15-3.38.06-.13.12-.26.17-.4,3.21-.41,5.81-1.95,7.04-4.17.48-.83.78-1.72.87-2.63.13-1.28-.37-2.55-1.33-3.4-.03-.03-.08-.07-.13-.1l2.6-1.73.57,1c.85,1.49,2.55,2.28,4.24,1.95l10.68-2.08c.29-.06.56-.15.82-.26l3.04,5.77c.5.95,1.37,1.66,2.4,1.97.37.11.76.17,1.14.17.68,0,1.35-.17,1.95-.51l8.76-4.89c1.23-.68,2.01-1.96,2.05-3.37l1.75-56.95c.04-1.42-.67-2.75-1.87-3.51Zm-61.5,52.26s-.06-.08-.07-.09c-.16-.2-.44-.24-.65-.11l-2.97,1.83c-.12.07-.19.2-.22.34s0,.29.09.4c.84,1.23,8.3,11.95,16.31,16.93-.29.45-.66.8-1.13,1.06-1.57.89-3.84.7-5.47.22-5.28-3.44-10.51-10.24-11.99-12.24-.08-.11-.2-.18-.34-.2-.13-.02-.27.02-.38.1l-2.74,2.16c-.21.17-.25.47-.09.69,1.41,1.92,6.35,8.36,11.82,12.39-.04.04-.08.09-.13.13-.82.78-2.5,1.23-4.3,1.18-2.44-1.36-3.76-3.3-5.03-5.18l-.26-.37c-.41-.6-.84-1.22-1.3-1.8-.17-.22-.49-.25-.7-.08l-2.74,2.16c-.07.05-.12.12-.15.2-.1-.21-.22-.41-.36-.61-.07-.11-.15-.21-.23-.31-.09-.11-.18-.23-.27-.34-.11-.12-.22-.24-.33-.36-.07-.07-.14-.13-.21-.19-.13-.12-.26-.24-.41-.35-.62-.48-1.33-.85-2.07-1.09.13-.6.16-1.2.11-1.8,0-.11-.04-.21-.05-.31-.03-.19-.05-.38-.09-.57-.02-.11-.07-.21-.1-.31-.05-.19-.11-.38-.18-.56-.01-.04-.04-.07-.05-.11-.45-1.1-1.21-2.11-2.25-2.91-1.55-1.19-3.55-1.71-5.44-1.42-.25-1.05-.77-2.03-1.5-2.86-1.18-1.31-2.83-2.14-4.61-2.31.01-.34,0-.67-.06-1,0-.04-.02-.09-.03-.13-.05-.28-.12-.56-.22-.83-.02-.06-.05-.11-.07-.17-.1-.26-.22-.51-.36-.75-.03-.05-.06-.09-.09-.14-.16-.26-.34-.51-.54-.75-.06-.07-.13-.13-.19-.2-.15-.15-.31-.3-.48-.44-1.11-.93-2.63-1.57-4.29-1.72-.11-.01-.23-.01-.34-.02-.3-.01-.6-.02-.91,0-.28.02-.56.04-.85.09-.16.03-.31.06-.46.1-.26.06-.51.13-.77.21-.18.06-.35.12-.52.19-.27.11-.54.23-.8.38-.07.04-.14.07-.22.11-1.61.92-3.02,2.07-3.89,2.84h0s-5.19-4.54-5.19-4.54h0s11.07-26.54,11.07-26.54h.02s14.24.64,14.24.64c-.03.03-.05.07-.08.11-.18.2-.35.42-.51.65-.04.05-.07.11-.1.16-.17.26-.32.52-.47.8-.02.04-.04.07-.05.11-.15.3-.29.61-.42.94,0,.01,0,.02-.01.04-.68,1.74-1,3.67-1,4.99-.01.35-.53,1.88-.81,2.7-.15.43-.3.88-.44,1.33-.05.15-.1.3-.14.45-.03.08-.05.17-.08.25-.07.24-.15.48-.22.72-.02.06-.03.11-.05.17-.06.2-.12.41-.17.61-.04.13-.07.26-.1.39-.02.09-.05.18-.07.28-.71,2.98-.77,5.86,1.53,7.43,1.43.98,3.46.91,6.03-.19.15-.06.31-.14.46-.21.17-.08.34-.16.52-.25.1-.05.18-.08.28-.14.18-.1.39-.21.6-.34,2.86-1.65,8.02-5.48,9-8.79.24.05.52.13.81.22.03,0,.06.02.09.03.35.11.71.24,1.07.39.08.18.17.37.26.58,1.61,3.46,5.88,11.04,13.04,13.54,1.26.44,2.6.73,4.03.8,4.56,5.5,7.78,9.47,9.47,11.64.38.49.68.89.91,1.19.69.93,1.48,1.54,2.06,1.99.09.08.2.17.31.26,0,0,0,0,0,0-.05.19-.13.39-.25.59-.72,1.31-2.68,1.89-4.2,2-7.11-3.83-14.47-14.04-15.88-16.06Zm-11.2,27.15c-.3-.13-.93-.47-2.24-1.34,0,0,0,0,0,0,.5-.7.82-1.22,1.01-1.62.45-.88.61-1.81.53-2.72,0-.06-.02-.12-.03-.18-.03-.24-.07-.47-.14-.71,0-.01,0-.03,0-.04.39.51.76,1.06,1.11,1.59,1.11,1.64,2.48,3.65,4.7,5.34-1.38.54-3.2.45-4.92-.32Zm-13.24-6.62s-.03.02-.04.03c-.13.07-.24.16-.33.24-.34.29-2.12,1.68-3.33.7-1.32-1.07-1.03-3.01-.46-3.98l2.67-3.18s.06-.05.08-.08c.65-.75,1.27-1.13,1.84-1.29,1.12-.32,2.01.22,2.34.47.7.55,1.17,1.43.92,2.19-.04.12-.09.23-.17.34-.45.66-.85,1.24-1.19,1.72l-2.34,2.83Zm-18.53-11.39c-1.09-1.02-.94-2.67-.35-3.75.1-.17.16-.34.2-.49,0,0,0-.01,0-.02.09-.06.18-.12.29-.21.02-.01,1.59-1.51,3.43-2.54.42-.24.86-.38,1.31-.45.01,0,.02,0,.03,0,.24-.03.46-.03.69-.02.73.02,1.4.25,1.86.61.07.05.13.1.18.14.04.04.09.06.12.1l.38-.33-.37.34c.09.12.22.29.23.55,0,.05,0,.09,0,.13,0,.03,0,.05,0,.08-.04.23-.17.52-.45.89-.29.39-.56.73-.81,1.03l-3.42,3.53c-.51.35-2.24,1.43-3.32.43Zm6.44,2.79l3.47-3.57c.69-.44,1.34-.6,1.91-.6.74,0,1.35.29,1.77.68.04.04.09.08.13.12.01.01.02.02.04.03.08.09.21.26.32.48.01.03.03.05.04.08.07.15.12.31.15.47.08.47,0,1.06-.53,1.7l-2.81,3.33c-.56.6-.92.9-1.06,1.01,0,0-.02.01-.02.02-.13.06-.26.14-.42.26-.02.02-2.11,1.6-3.32.46-1.68-1.56.18-4.24.35-4.49Zm15.58,11.42l2.17-2.61c.18-.12.48-.14.8-.08.34.07.71.22,1.02.46.76.59.57.97.51,1.09-.13.26-.55.86-.98,1.45-.35.48-.71.96-.93,1.26-.65.63-1.54,1.28-2.13.79-.57-.46-1.07-1.11-.47-2.36Zm41.22-16.51h0c-2.67-3.39-7.51-9.23-9.49-11.61-.15-.18-.29-.35-.4-.49-.42-.51-1.05-.81-1.73-.81h-.28c-.1,0-.2-.01-.31-.01-8.04-.25-12.83-10.24-13.8-12.48-.12-.27-.18-.44-.19-.45-.2-.51-.6-.94-1.09-1.19-.17-.09-.38-.19-.6-.29-.36-.17-.79-.35-1.26-.52-.41-.15-.89-.3-1.4-.43-.57-.14-1.17-.25-1.75-.27-.89-.04-1.74.1-2.45.54-.97.6-1.53,1.62-1.56,2.73,0,.03-.01.07-.01.1-.13.67-2.77,3.59-6.38,5.75-.21.13-.43.25-.64.37-.6.33-1.11.58-1.53.75-.03.01-.06.03-.09.04-.08.03-.15.06-.23.09-.61.22-1,.3-1.17.32-.06-.2-.09-.74.23-2.15,0-.03.01-.06.02-.09.05-.21.1-.44.16-.66.14-.52.31-1.12.53-1.83,0-.02.01-.04.02-.05.04-.12.08-.26.12-.39.12-.38.26-.79.41-1.23.66-1.97,1.04-3.13,1.04-4.1,0-1.8.85-4.26,1.48-4.82.04-.03.11-.07.21-.13.69-.39,2.84-1.35,6.32-2.58,3.97-1.27,8.89-2.65,9.97-2.68,2.52,0,12.86,4.32,19.4,7.39.52.24,1.12.27,1.7.09l7.34-2.55,17.1,31.85-9.66,1.88-1.59-2.8c-.32-.55-.85-.94-1.44-1.07-.17-.04-.33-.06-.5-.06-.44,0-.88.13-1.25.37l-5.24,3.49Zm-75.31-10.37s-.02.03-.02.03l-.25.63-1.03,2.62-7.59-3.55-.47-.22,13.87-34.08.47.19,7.91,3.23-.38,1.06-.24.67-12.28,29.42Z"/></svg>