<?xml version="1.0" encoding="UTF-8"?><svg id="a" xmlns="http://www.w3.org/2000/svg" viewBox="0 0 200 200"><defs><style>.b{stroke-width:0px;}</style></defs><path class="b" d="m109.76,115.32h13.55v-2.43c0-.69.28-1.34.78-1.82.5-.47,1.16-.72,1.85-.68-.83-.05-1.67-.08-2.51-.08h-.33c-3.97,2.41-8.5,4-13.34,4.53v.47Z"/><path class="b" d="m127.43,163.24v-2.5h-17.72c-.23,1.14-1.24,2-2.45,2s-2.22-.86-2.45-2h-10.16c-.23,1.14-1.24,2-2.45,2s-2.22-.86-2.45-2h-17.72v2.5c0,1.38-1.12,2.5-2.5,2.5h60.41c-1.38,0-2.5-1.12-2.5-2.5Z"/><path class="b" d="m37.13,165.74h18.06c-1.38,0-2.5-1.12-2.5-2.5v-2.5h-13.06v-12.65c0-8.21,3.38-15.71,8.93-21.47v-5.57c0-.71.32-1.38.84-1.85-9.03,6.93-14.78,17.31-14.78,28.9v15.15c0,1.38,1.12,2.5,2.5,2.5Z"/><path class="b" d="m150.9,126.62c5.56,5.76,8.93,13.26,8.93,21.47v12.65h-13.06v2.5c0,1.38-1.12,2.5-2.5,2.5h18.06c1.38,0,2.5-1.12,2.5-2.5v-15.15c0-11.59-5.75-21.97-14.78-28.9.53.47.85,1.14.85,1.86v5.57Z"/><path class="b" d="m76.15,112.89v2.43h13.55v-.47c-4.84-.53-9.37-2.12-13.34-4.53h-.33c-.84,0-1.68.03-2.51.08.67-.03,1.35.21,1.85.68.5.47.78,1.13.78,1.82Z"/><path class="b" d="m119.63,57.04c4.96,0,9.86,1.1,14.27,3.16v-4.78c0-.22-.01-.44-.02-.66-4.5-1.78-9.35-2.72-14.26-2.72h-39.81c-4.9,0-9.76.94-14.26,2.72,0,.22-.02.44-.02.66v4.78c4.41-2.07,9.31-3.16,14.27-3.16h39.81Z"/><path class="b" d="m136.41,88.18c-.51,0-1.01-.15-1.43-.45-.67-.47-1.07-1.23-1.07-2.05v-3.38c0,11.59-7.15,21.54-17.27,25.69v2.33h6.46c8.03-4.87,13.8-13.1,15.37-22.73l-1.21.44c-.28.1-.57.15-.86.15Z"/><path class="b" d="m65.57,54.76c.36-14.99,12.65-27.08,27.73-27.08h12.87c15.08,0,27.37,12.09,27.73,27.08,1.19.47,2.35.99,3.48,1.57l1.54.56v-1.47c0-18.06-14.69-32.75-32.75-32.75h-12.87c-18.06,0-32.75,14.69-32.75,32.75v1.47l1.54-.56c1.13-.59,2.29-1.11,3.48-1.57Z"/><path class="b" d="m82.82,107.99c-10.12-4.14-17.27-14.09-17.27-25.69v3.38c0,.82-.4,1.58-1.07,2.05-.43.3-.93.45-1.43.45-.29,0-.58-.05-.86-.15l-1.21-.44c1.57,9.62,7.34,17.85,15.37,22.73h6.46v-2.33Z"/><path class="b" d="m89.7,112.95c-.72-.44-1.4-.92-2.02-1.44h-4.86v-1.19h-6.46c3.97,2.41,8.5,4,13.34,4.53v-1.9Z"/><path class="b" d="m116.64,111.48h-4.83c-.63.53-1.32,1.02-2.05,1.47v1.9c4.84-.53,9.37-2.12,13.34-4.53h-6.46v1.16Z"/><path class="b" d="m64.48,56.6c.67.47,1.07,1.23,1.07,2.05v-3.22c0-.22.01-.44.02-.66-1.19.47-2.35.99-3.48,1.57l.11-.04c.77-.28,1.62-.17,2.29.3Z"/><path class="b" d="m133.91,58.64c0-.82.4-1.58,1.07-2.05.67-.47,1.52-.58,2.29-.3l.11.04c-1.13-.59-2.29-1.11-3.48-1.57,0,.22.02.44.02.66v3.22Z"/><path class="b" d="m69.9,80.55l4.99-.22c.06,1.34.21,2.67.43,4l7.5,3.04v-1.68h5v1.26l11.91-8.87,11.91,8.87v-1.26h5v1.68l7.5-3.04c.22-1.32.37-2.66.43-4l4.99.22c-.02.54-.07,1.08-.12,1.62l4.46-1.81v-5.4l-19.41,7.87-13.28-9.89c-.89-.66-2.1-.66-2.99,0l-13.28,9.89-19.41-7.87v5.4l4.46,1.81c-.05-.54-.09-1.08-.12-1.62Z"/><path class="b" d="m88.02,102.16c0-4.7,5.25-8.52,11.71-8.52s11.71,3.82,11.71,8.52c0,1.6-.62,3.09-1.68,4.37v3.27c.63-.08,1.26-.18,1.88-.3v-16.81c-3.03-2.5-7.25-4.05-11.91-4.05s-8.88,1.56-11.91,4.05v16.81c.62.12,1.25.22,1.88.3v-3.27c-1.06-1.28-1.68-2.77-1.68-4.37Z"/><path class="b" d="m87.82,109.5v.81h1.88v-.51c-.63-.08-1.26-.18-1.88-.3Z"/><path class="b" d="m109.76,109.81v.51h1.88v-.81c-.62.12-1.25.22-1.88.3Z"/><path class="b" d="m111.64,110.32h-1.88v2.63c.73-.45,1.42-.94,2.05-1.47h-.17v-1.16Z"/><path class="b" d="m87.82,110.32v1.19h-.14c.62.53,1.3,1.01,2.02,1.44v-2.63h-1.88Z"/><path class="b" d="m107.26,115.57v6.19c.64.96,1,2.05,1,3.21,0,.03-.01.05-.01.07l1.51.82v-10.55h-1.85c-.18.15-.4.26-.65.26Z"/><path class="b" d="m91.21,125.04s-.01-.05-.01-.07c0-1.16.36-2.25,1-3.21v-6.19c-.25,0-.48-.1-.65-.26h-1.85v10.55l1.51-.82Z"/><path class="b" d="m92.2,160.24v-3.07c-.55,0-1-.45-1-1,0-1.16.36-2.25,1-3.21v-6.19c-.55,0-1-.45-1-1,0-1.16.36-2.25,1-3.21v-6.19c-.55,0-1-.45-1-1,0-1.16.36-2.25,1-3.21v-4.24l-2.5,1.35v30.97c0,.17.02.34.05.5h4.9c.03-.16.05-.33.05-.5h-2.5Z"/><path class="b" d="m109.76,129.27l-2.5-1.35v4.24c.64.96,1,2.05,1,3.21,0,.55-.45,1-1,1v6.19c.64.96,1,2.05,1,3.21,0,.55-.45,1-1,1v6.19c.64.96,1,2.05,1,3.21,0,.55-.45,1-1,1v3.07h-2.5c0,.17.02.34.05.5h4.9c.03-.16.05-.33.05-.5v-30.97Z"/><path class="b" d="m99.73,98.32c4.16,0,7.53,2.62,7.53,5.84v4.51c.99-.61,1.83-1.33,2.5-2.14v-2.37c0-4.6-4.5-8.34-10.03-8.34s-10.03,3.74-10.03,8.34v2.37c.67.81,1.51,1.54,2.5,2.14v-4.51c0-3.23,3.37-5.84,7.53-5.84Z"/><path class="b" d="m107.91,115.32h1.85v-.47c-.53.06-1.06.1-1.59.13-.06.13-.15.24-.26.34Z"/><path class="b" d="m91.29,114.98c-.53-.03-1.06-.08-1.59-.13v.47h1.85c-.11-.09-.2-.2-.26-.34Z"/><path class="b" d="m107.26,162.74c1.21,0,2.22-.86,2.45-2h-4.9c.23,1.14,1.24,2,2.45,2Z"/><path class="b" d="m92.2,162.74c1.21,0,2.22-.86,2.45-2h-4.9c.23,1.14,1.24,2,2.45,2Z"/><path class="b" d="m108.26,114.57c0,.15-.03.28-.09.41.53-.03,1.06-.08,1.59-.13v-1.9c-.5.3-1.02.59-1.56.85.04.26.06.51.06.78Z"/><path class="b" d="m91.2,114.57c0-.26.02-.52.06-.78-.54-.26-1.06-.54-1.56-.85v1.9c.53.06,1.06.1,1.59.13-.06-.13-.09-.26-.09-.41Z"/><path class="b" d="m89.7,106.53v3.27c.82.11,1.66.18,2.5.21v-1.34c-.99-.61-1.83-1.33-2.5-2.14Z"/><path class="b" d="m107.26,108.67v1.34c.84-.03,1.68-.11,2.5-.21v-3.27c-.67.81-1.51,1.54-2.5,2.14Z"/><path class="b" d="m107.26,110.02v.3h2.5v-.51c-.82.11-1.66.18-2.5.21Z"/><path class="b" d="m89.7,109.81v.51h2.5v-.3c-.84-.03-1.68-.11-2.5-.21Z"/><path class="b" d="m92.2,111.36v-1.05h-2.5v2.63c.5.3,1.02.59,1.56.85.12-.87.45-1.69.94-2.43Z"/><path class="b" d="m107.26,110.32v1.05c.49.74.82,1.56.94,2.43.54-.26,1.06-.54,1.56-.85v-2.63h-2.5Z"/><path class="b" d="m94.7,129.86v-7.97c-.94.84-1.5,1.91-1.5,3.08,0,.04-.02.07-.02.11.13.12.25.25.34.42.39.73.12,1.64-.61,2.03l-.71.38v4.24c.61-.91,1.47-1.7,2.5-2.31Z"/><path class="b" d="m94.7,140.26v-7.97c-.94.84-1.5,1.91-1.5,3.08,0,.55-.45,1-1,1v6.19c.61-.91,1.47-1.7,2.5-2.31Z"/><path class="b" d="m94.7,150.66v-7.97c-.94.84-1.5,1.91-1.5,3.08,0,.55-.45,1-1,1v6.19c.61-.91,1.47-1.7,2.5-2.31Z"/><path class="b" d="m93.2,156.17c0,.55-.45,1-1,1v3.07h2.5v-7.15c-.94.84-1.5,1.91-1.5,3.08Z"/><path class="b" d="m106.61,115.32h-1.85v4.14c1.03.61,1.89,1.39,2.5,2.31v-6.19s0,0,0,0c-.25,0-.48-.1-.65-.26Z"/><path class="b" d="m94.7,104.16c0-1.81,2.3-3.34,5.03-3.34s5.03,1.53,5.03,3.34v4.9c.26.16.52.32.75.5.62-.26,1.2-.55,1.75-.88v-4.51c0-3.23-3.37-5.84-7.53-5.84s-7.53,2.62-7.53,5.84v4.51c.54.33,1.13.63,1.75.88.24-.18.49-.34.75-.5v-4.9Z"/><path class="b" d="m106.26,145.77c0-1.17-.56-2.25-1.5-3.08v7.97c1.03.61,1.89,1.39,2.5,2.31v-6.19s0,0,0,0c-.55,0-1-.45-1-1Z"/><path class="b" d="m105.94,125.5c.09-.17.21-.3.34-.42,0-.04-.02-.07-.02-.11,0-1.17-.56-2.25-1.5-3.08v7.97c1.03.61,1.89,1.39,2.5,2.31v-4.24l-.71-.38c-.73-.39-1-1.3-.61-2.03Z"/><path class="b" d="m106.26,156.17c0-1.17-.56-2.25-1.5-3.08v7.15h2.5v-3.07s0,0,0,0c-.55,0-1-.45-1-1Z"/><path class="b" d="m106.26,135.37c0-1.17-.56-2.25-1.5-3.08v7.97c1.03.61,1.89,1.39,2.5,2.31v-6.19s0,0,0,0c-.55,0-1-.45-1-1Z"/><path class="b" d="m94.7,119.46v-4.14h-1.85c-.18.15-.4.26-.65.26v6.19c.61-.91,1.47-1.7,2.5-2.31Z"/><path class="b" d="m94.68,115.05h-1.39c-.08,0-.15,0-.23,0-.06.1-.13.2-.22.27h1.85v-.26s-.01,0-.02,0Z"/><path class="b" d="m106.16,115.05h-1.39s-.01,0-.02,0v.26h1.85c-.09-.08-.16-.17-.22-.27-.08,0-.15,0-.23,0Z"/><path class="b" d="m93.3,115.05h1.39c-.51-.13-1-.28-1.49-.45,0,.16-.05.31-.13.44.08,0,.15,0,.23,0Z"/><path class="b" d="m106.16,115.05c.08,0,.15,0,.23,0-.07-.13-.12-.28-.13-.44-.48.17-.98.32-1.49.45h1.39Z"/><path class="b" d="m105.52,109.56c.21.16.41.32.6.49h.05c.37,0,.73-.01,1.1-.03v-1.34c-.54.33-1.13.63-1.75.88Z"/><path class="b" d="m92.2,108.67v1.34c.36.01.73.03,1.1.03h.05c.19-.17.39-.33.6-.49-.62-.26-1.2-.55-1.75-.88Z"/><path class="b" d="m104.78,115.05h-.02s.01,0,.02,0Z"/><path class="b" d="m94.68,115.05s.01,0,.02,0h0s-.02,0-.02,0Z"/><path class="b" d="m106.16,110.05h-.05c.1.09.19.18.29.27h.86v-.3c-.36.01-.73.03-1.1.03Z"/><path class="b" d="m93.35,110.05h-.05c-.37,0-.73-.01-1.1-.03v.3h.86c.09-.09.19-.18.29-.27Z"/><path class="b" d="m104.78,115.05c.51-.13,1-.28,1.49-.45,0-.01,0-.02,0-.03,0-1.17-.56-2.25-1.5-3.08v3.56h.02Z"/><path class="b" d="m92.2,110.32v1.05c.25-.37.54-.72.86-1.05h-.86Z"/><path class="b" d="m94.7,115.05v-3.56c-.94.84-1.5,1.91-1.5,3.08,0,.01,0,.02,0,.03.48.17.98.32,1.49.45h.02Z"/><path class="b" d="m107.26,111.37v-1.05h-.86c.33.33.62.68.86,1.05Z"/><path class="b" d="m94.7,150.66v2.43c1.2-1.07,3.01-1.76,5.03-1.76s3.83.69,5.03,1.76v-2.43c-1.41-.83-3.15-1.33-5.03-1.33s-3.62.5-5.03,1.33Z"/><path class="b" d="m108.26,156.17c0-1.16-.36-2.25-1-3.21v4.21c.55,0,1-.45,1-1Z"/><path class="b" d="m91.2,156.17c0,.55.45,1,1,1v-4.21c-.64.96-1,2.05-1,3.21Z"/><path class="b" d="m104.76,150.66v2.43c.94.84,1.5,1.91,1.5,3.08,0,.55.45,1,1,1,0,0,0,0,0,0v-4.21c-.61-.91-1.47-1.7-2.5-2.31Z"/><path class="b" d="m93.2,156.17c0-1.17.56-2.25,1.5-3.08v-2.43c-1.03.61-1.89,1.39-2.5,2.31v4.21c.55,0,1-.45,1-1Z"/><path class="b" d="m94.7,140.26v2.43c1.2-1.07,3.01-1.76,5.03-1.76s3.83.69,5.03,1.76v-2.43c-1.41-.83-3.15-1.33-5.03-1.33s-3.62.5-5.03,1.33Z"/><path class="b" d="m91.2,145.77c0,.55.45,1,1,1v-4.21c-.64.96-1,2.05-1,3.21Z"/><path class="b" d="m108.26,145.77c0-1.16-.36-2.25-1-3.21v4.21c.55,0,1-.45,1-1Z"/><path class="b" d="m93.2,145.77c0-1.17.56-2.25,1.5-3.08v-2.43c-1.03.61-1.89,1.39-2.5,2.31v4.21c.55,0,1-.45,1-1Z"/><path class="b" d="m104.76,140.26v2.43c.94.84,1.5,1.91,1.5,3.08,0,.55.45,1,1,1,0,0,0,0,0,0v-4.21c-.61-.91-1.47-1.7-2.5-2.31Z"/><path class="b" d="m94.7,129.86v2.43c1.2-1.07,3.01-1.76,5.03-1.76s3.83.69,5.03,1.76v-2.43c-1.41-.83-3.15-1.33-5.03-1.33s-3.62.5-5.03,1.33Z"/><path class="b" d="m108.26,135.37c0-1.16-.36-2.25-1-3.21v4.21c.55,0,1-.45,1-1Z"/><path class="b" d="m91.2,135.37c0,.55.45,1,1,1v-4.21c-.64.96-1,2.05-1,3.21Z"/><path class="b" d="m104.76,129.86v2.43c.94.84,1.5,1.91,1.5,3.08,0,.55.45,1,1,1,0,0,0,0,0,0v-4.21c-.61-.91-1.47-1.7-2.5-2.31Z"/><path class="b" d="m93.2,135.37c0-1.17.56-2.25,1.5-3.08v-2.43c-1.03.61-1.89,1.39-2.5,2.31v4.21c.55,0,1-.45,1-1Z"/><path class="b" d="m104.76,121.89v-2.43c-1.41-.83-3.15-1.33-5.03-1.33s-3.62.5-5.03,1.33v2.43c1.2-1.07,3.01-1.76,5.03-1.76s3.83.69,5.03,1.76Z"/><path class="b" d="m92.2,124.72v-2.96c-.64.96-1,2.05-1,3.21,0,.03.01.05.01.07l.27-.15c.23-.12.47-.17.71-.17Z"/><path class="b" d="m107.97,124.9l.27.15s.01-.05.01-.07c0-1.16-.36-2.25-1-3.21v2.96c.24,0,.48.05.71.17Z"/><path class="b" d="m93.18,125.08s.02-.07.02-.11c0-1.17.56-2.25,1.5-3.08v-2.43c-1.03.61-1.89,1.39-2.5,2.31v2.96c.36,0,.7.12.98.36Z"/><path class="b" d="m104.76,119.46v2.43c.94.84,1.5,1.91,1.5,3.08,0,.04.02.07.02.11.27-.24.62-.36.98-.36v-2.96c-.61-.91-1.47-1.7-2.5-2.31Z"/><path class="b" d="m99.73,109.73c.81,0,1.59.12,2.31.32h2.11c.21-.06.41-.13.61-.2v-.78c-1.41-.83-3.15-1.33-5.03-1.33s-3.62.5-5.03,1.33v.78c.2.07.41.14.61.2h2.11c.72-.2,1.49-.32,2.31-.32Z"/><path class="b" d="m97.42,110.05h-2.11c.34.1.68.19,1.04.27h.27c.26-.1.53-.19.81-.27Z"/><path class="b" d="m102.84,110.32h.27c.35-.08.7-.17,1.04-.27h-2.11c.28.08.55.16.81.27Z"/><path class="b" d="m102.84,110.32s.05.02.08.04c.06-.01.13-.02.19-.04h-.27Z"/><path class="b" d="m96.35,110.32c.06.01.13.02.19.04.03-.01.05-.02.08-.04h-.27Z"/><path class="b" d="m94.7,110.05h.61c-.21-.06-.41-.13-.61-.2v.2Z"/><path class="b" d="m104.76,110.05v-.2c-.2.07-.41.14-.61.2h.61Z"/><path class="b" d="m104.15,110.05c-.34.1-.68.19-1.04.27h1.65v-.27h-.61Z"/><path class="b" d="m95.31,110.05h-.61v.27h1.65c-.35-.08-.7-.17-1.04-.27Z"/><path class="b" d="m96.35,110.32h-1.65v1.17c.51-.46,1.14-.84,1.84-1.14-.06-.01-.13-.02-.19-.04Z"/><path class="b" d="m102.92,110.35c.7.29,1.33.68,1.84,1.14v-1.17h-1.65c-.06.01-.13.02-.19.04Z"/><path class="b" d="m107.26,115.57c.25,0,.48-.1.65-.26h-.65v.26Z"/><path class="b" d="m91.55,115.32c.18.15.4.26.65.26v-.26h-.65Z"/><path class="b" d="m107.26,115.32h.65c.11-.09.2-.2.26-.34-.3.02-.6.03-.91.04v.3Z"/><path class="b" d="m92.2,115.02c-.3-.01-.61-.02-.91-.04.06.13.15.24.26.34h.65v-.3Z"/><path class="b" d="m92.2,114.21c-.32-.13-.63-.27-.94-.42-.04.26-.06.51-.06.78,0,.15.03.28.09.41.3.02.6.03.91.04v-.81Z"/><path class="b" d="m107.26,115.02c.3-.01.61-.02.91-.04.06-.13.09-.26.09-.41,0-.26-.02-.52-.06-.78-.31.15-.62.29-.94.42v.81Z"/><path class="b" d="m108.2,113.79c-.12-.87-.45-1.69-.94-2.43v2.85c.32-.13.63-.27.94-.42Z"/><path class="b" d="m92.2,111.36c-.49.74-.82,1.56-.94,2.43.31.15.62.29.94.42v-2.85Z"/><path class="b" d="m93.94,109.56c.25.1.5.19.75.28v-.78c-.26.16-.52.32-.75.5Z"/><path class="b" d="m104.76,109.84c.26-.09.51-.18.75-.28-.24-.18-.49-.34-.75-.5v.78Z"/><path class="b" d="m106.61,115.32c.18.15.4.26.65.26,0,0,0,0,0,0v-.26h-.65Z"/><path class="b" d="m92.2,115.32v.26c.25,0,.48-.1.65-.26h-.65Z"/><path class="b" d="m92.2,115.02v.3h.65c.09-.08.16-.17.22-.27-.29,0-.58-.01-.87-.02Z"/><path class="b" d="m106.61,115.32h.65v-.3c-.29,0-.58.02-.87.02.06.1.13.2.22.27Z"/><path class="b" d="m93.19,114.6c-.34-.12-.67-.25-.99-.39v.81c.29,0,.58.02.87.02.07-.13.12-.28.13-.44Z"/><path class="b" d="m107.26,115.02v-.81c-.33.13-.65.27-.99.39,0,.16.05.31.13.44.29,0,.58-.01.87-.02Z"/><path class="b" d="m94.7,109.84c-.26-.09-.51-.18-.75-.28-.21.16-.41.32-.6.49h1.35v-.2Z"/><path class="b" d="m104.76,109.84v.2h1.35c-.19-.17-.39-.33-.6-.49-.25.1-.5.19-.75.28Z"/><path class="b" d="m104.76,110.32h1.64c-.09-.09-.19-.18-.29-.27h-1.35v.27Z"/><path class="b" d="m93.35,110.05c-.1.09-.19.18-.29.27h1.64v-.27h-1.35Z"/><path class="b" d="m104.76,110.32v1.17c.94.84,1.5,1.91,1.5,3.08,0,.01,0,.02,0,.03.34-.12.67-.25.99-.39v-2.85c-.25-.37-.54-.72-.86-1.05h-1.64Z"/><path class="b" d="m93.19,114.6s0-.02,0-.03c0-1.17.56-2.25,1.5-3.08v-1.17h-1.64c-.33.33-.62.68-.86,1.05v2.85c.33.13.65.27.99.39Z"/><path class="b" d="m82.82,107.62v.37c.26.1.51.21.77.3-.26-.22-.52-.45-.77-.67Z"/><path class="b" d="m83.1,100.84c.38-3.16,2.11-6,4.72-8.14v-5.75l-1.01.75c-.7.52-1.62.64-2.43.31l-1.56-.63v13.13c.1.11.19.23.28.34Z"/><path class="b" d="m83.76,108.36c.48.18.97.34,1.47.49-.29-.42-.56-.84-.8-1.28l-.66.8Z"/><path class="b" d="m85.23,108.85c-.49-.15-.98-.31-1.47-.49l-.04.05s-.09-.08-.13-.11c-.26-.1-.52-.2-.77-.3v2.33h3.61c-.44-.47-.85-.96-1.21-1.47Z"/><path class="b" d="m82.82,110.32v1.19h4.86c-.44-.37-.86-.77-1.25-1.19h-3.61Z"/><path class="b" d="m86.81,87.69l1.01-.75v-1.26h-5v1.68l1.56.63c.81.33,1.73.21,2.43-.31Z"/><path class="b" d="m87.82,92.69c-2.6,2.15-4.33,4.99-4.72,8.14,1.16,1.33,2.43,2.58,3.81,3.73l-2.5,3c.24.44.51.87.8,1.28.85.26,1.71.48,2.59.66v-16.81Z"/><path class="b" d="m85.23,108.85c.36.51.77,1,1.21,1.47h1.39v-.81c-.88-.18-1.75-.4-2.59-.66Z"/><path class="b" d="m87.82,110.32h-1.39c.39.41.8.81,1.25,1.19h.14v-1.19Z"/><path class="b" d="m116.35,100.82c.1-.11.19-.23.28-.34v-13.12l-1.56.63c-.3.12-.62.18-.94.18-.53,0-1.05-.17-1.49-.49l-1.01-.75v5.75c2.6,2.14,4.33,4.98,4.72,8.13Z"/><path class="b" d="m115.87,108.29c.26-.1.52-.2.77-.3v-.37c-.26.23-.51.45-.77.67Z"/><path class="b" d="m114.23,108.85c.49-.15.98-.31,1.47-.49l-.66-.8c-.24.44-.51.87-.8,1.28Z"/><path class="b" d="m115.74,108.41l-.04-.05c-.48.18-.97.34-1.47.49-.36.51-.77,1-1.21,1.47h3.61v-2.33c-.26.1-.51.21-.77.3-.04.04-.09.08-.13.11Z"/><path class="b" d="m111.81,111.48h4.83v-1.16h-3.61c-.38.4-.78.79-1.22,1.16Z"/><path class="b" d="m114.14,88.18c.32,0,.64-.06.94-.18l1.56-.63v-1.68h-5v1.26l1.01.75c.44.33.96.49,1.49.49Z"/><path class="b" d="m112.54,104.56c1.37-1.13,2.64-2.39,3.81-3.74-.38-3.15-2.11-5.99-4.72-8.13v16.81c.88-.18,1.75-.4,2.59-.66.29-.42.56-.84.8-1.28l-2.5-3Z"/><path class="b" d="m111.64,110.32h1.39c.44-.47.85-.96,1.21-1.47-.85.26-1.71.48-2.59.66v.81Z"/><path class="b" d="m111.64,110.32v1.16h.17c.43-.37.84-.76,1.22-1.16h-1.39Z"/><path class="b" d="m60.55,82.11l-3.22-1.18v-17.54l3.22-1.18v-5.32l-6.58,2.4c-.99.36-1.64,1.3-1.64,2.35v21.03c0,1.05.66,1.99,1.64,2.35l7.02,2.56c-.28-1.72-.43-3.49-.43-5.29v-.19Z"/><path class="b" d="m63.05,88.18c.51,0,1.01-.15,1.43-.45.67-.47,1.07-1.23,1.07-2.05v-5.32l-3.44-1.4,1.88-4.63,1.56.63v-14.76c-.45.21-.9.42-1.34.65l-2.33-4.43c.07-.03.13-.06.2-.1l-1.54.56v25.41c0,1.8.15,3.57.43,5.29l1.21.44c.28.1.57.15.86.15Z"/><path class="b" d="m64.48,56.6c-.67-.47-1.52-.58-2.29-.3l-.11.04c-.07.03-.13.06-.2.1l2.33,4.43c.44-.23.89-.44,1.34-.65v-1.56c0-.82-.4-1.58-1.07-2.05Z"/><polygon class="b" points="63.99 74.33 62.11 78.96 65.55 80.36 65.55 74.96 63.99 74.33"/><path class="b" d="m78.51,94.05c-1.55-3.04-2.62-6.34-3.19-9.73l-5.31-2.15c.43,4.91,1.81,9.78,4.05,14.15,2.2,4.31,5.15,8.09,8.76,11.29v-7.12c-1.67-1.97-3.12-4.12-4.31-6.45Z"/><path class="b" d="m74.89,80.33l-4.99.22c.02.54.07,1.08.12,1.62l5.31,2.15c-.22-1.32-.37-2.66-.43-4Z"/><path class="b" d="m83.02,102.16c0-.45.03-.89.08-1.32-.1-.11-.19-.23-.28-.34v7.12c.26.23.51.45.77.67.06.02.11.05.17.07l.66-.8c-.9-1.66-1.4-3.48-1.4-5.4Z"/><path class="b" d="m83.72,108.41l.04-.05c-.06-.02-.11-.05-.17-.07.04.04.09.08.13.11Z"/><path class="b" d="m84.42,107.56l2.5-3c-1.38-1.15-2.65-2.39-3.81-3.73-.05.44-.08.88-.08,1.32,0,1.92.51,3.75,1.4,5.4Z"/><rect class="b" x="67.03" y="149.08" width="5" height="11.66"/><rect class="b" x="52.68" y="149.08" width="5" height="11.66"/><path class="b" d="m72.03,163.24v-2.5h-19.34v2.5c0,1.38,1.12,2.5,2.5,2.5h14.34c1.38,0,2.5-1.12,2.5-2.5Z"/><polygon class="b" points="89.7 129.27 89.7 125.86 76.15 133.17 76.15 136.58 89.7 129.27"/><path class="b" d="m92.2,127.92v-1.95c-.53,0-.95-.41-.99-.93l-1.51.82v3.41l2.5-1.35Z"/><path class="b" d="m93.52,125.5c-.09-.17-.21-.3-.34-.42-.06.5-.46.89-.98.89v1.95l.71-.38c.73-.39,1-1.3.61-2.03Z"/><path class="b" d="m92.2,125.97v-1.25c-.24,0-.49.05-.71.17l-.27.15c.04.52.46.93.99.93Z"/><path class="b" d="m93.18,125.08c-.27-.24-.62-.36-.98-.36v1.25c.51,0,.92-.39.98-.89Z"/><path class="b" d="m142.13,63.4v17.54l-3.22,1.18v.19c0,1.8-.15,3.57-.43,5.29l7.02-2.56c.99-.36,1.64-1.3,1.64-2.35v-21.03c0-1.05-.66-1.99-1.64-2.35l-6.58-2.4v5.32l3.22,1.18Z"/><path class="b" d="m137.57,56.43l-2.33,4.43c-.44-.23-.89-.44-1.34-.65v14.76l1.56-.63,1.88,4.63-3.44,1.4v5.32c0,.82.4,1.58,1.07,2.05.43.3.93.45,1.43.45.29,0,.58-.05.86-.15l1.21-.44c.28-1.72.43-3.49.43-5.29v-25.41l-1.54-.56c.07.03.13.06.2.1Z"/><path class="b" d="m134.98,56.6c-.67.47-1.07,1.23-1.07,2.05v1.56c.45.21.9.42,1.34.65l2.33-4.43c-.07-.03-.13-.06-.2-.1l-.11-.04c-.77-.28-1.62-.17-2.29.3Z"/><polygon class="b" points="137.35 78.96 135.47 74.33 133.91 74.96 133.91 80.36 137.35 78.96"/><path class="b" d="m116.64,100.48v7.13c3.61-3.2,6.56-6.98,8.76-11.29,2.23-4.38,3.61-9.24,4.04-14.16l-5.31,2.15c-.56,3.38-1.64,6.69-3.19,9.73-1.17,2.29-2.63,4.46-4.31,6.43Z"/><path class="b" d="m129.56,80.55l-4.99-.22c-.06,1.34-.21,2.67-.43,4l5.31-2.15c.05-.54.09-1.08.12-1.62Z"/><path class="b" d="m116.35,100.82c.05.44.08.89.08,1.34,0,1.92-.51,3.75-1.4,5.4l.66.8c.06-.02.11-.05.17-.07.26-.22.52-.45.77-.67v-7.13c-.1.11-.19.23-.28.34Z"/><path class="b" d="m115.74,108.41s.09-.08.13-.11c-.06.02-.11.05-.17.07l.04.05Z"/><path class="b" d="m112.54,104.56l2.5,3c.9-1.66,1.4-3.48,1.4-5.4,0-.45-.03-.9-.08-1.34-1.17,1.35-2.45,2.6-3.81,3.74Z"/><path class="b" d="m51.06,149.08h1.62v-2.5h0s-1.62,0-1.62,0v-22.3c-.88.74-1.71,1.53-2.5,2.35v19.96c0,1.38,1.12,2.5,2.5,2.5Z"/><path class="b" d="m76.15,133.17v-17.86h-.12c-.8,0-1.59.03-2.38.08v19.13l2.5-1.35Z"/><path class="b" d="m72.03,149.08h1.62c1.38,0,2.5-1.12,2.5-2.5v-10l-1.79.96c-.23.12-.47.18-.71.18,0,0,0,0,0,0v8.85h-1.62v2.5Z"/><path class="b" d="m49.55,119.06c-.05.04-.09.09-.14.14,4.67-3.58,10.2-6.25,16.28-7.69-5.89,1.38-11.37,3.93-16.14,7.55Z"/><path class="b" d="m73.51,110.39c-.09,0-.18.01-.27.02.09,0,.18-.01.28-.02,0,0,0,0,0,0Z"/><path class="b" d="m48.56,126.62c.79-.82,1.62-1.6,2.5-2.35v-3.23c6.19-4.7,14.01-7.69,22.59-8.16v2.51c.79-.05,1.58-.08,2.38-.08h.12v-2.43c0-.69-.28-1.34-.78-1.82-.5-.47-1.17-.71-1.85-.68-.09,0-.18.01-.28.02-.79.05-1.57.12-2.35.21-.28.03-.57.06-.85.1-.29.04-.57.08-.85.12-.38.06-.76.12-1.14.19-.21.04-.41.07-.62.11-.58.11-1.15.23-1.71.36-.01,0-.03,0-.04,0-6.08,1.43-11.62,4.1-16.28,7.69-.53.47-.84,1.14-.84,1.85v5.57Z"/><polygon class="b" points="72.03 149.08 72.03 146.58 72.03 146.58 52.68 146.58 52.68 146.58 52.68 149.08 57.68 149.08 67.03 149.08 72.03 149.08"/><path class="b" d="m74.36,137.54l1.79-.96v-3.41l-2.5,1.35v3.21s0,0,0,0c.24,0,.48-.06.71-.18Z"/><path class="b" d="m71.15,144.08h-1.62c1.38,0,2.5,1.12,2.5,2.5h1.62v-8.85c-.53,0-1.05-.29-1.32-.79-.39-.73-.12-1.64.61-2.03l.71-.38v-19.13c-.84.05-1.67.13-2.5.23v28.46Z"/><path class="b" d="m52.68,146.58c0-1.38,1.12-2.5,2.5-2.5h-1.62v-21.74c-.87.61-1.7,1.26-2.5,1.94v22.3h1.62Z"/><path class="b" d="m53.56,122.31c.15-.11.31-.2.46-.31.25-.17.51-.34.77-.51.65-.42,1.31-.82,1.99-1.2.14-.08.28-.16.42-.24.39-.21.78-.41,1.18-.61.19-.1.39-.19.59-.29.4-.19.81-.38,1.22-.56.16-.07.32-.13.48-.2.74-.31,1.49-.6,2.26-.87.25-.09.5-.18.76-.26.35-.11.71-.22,1.06-.32.36-.1.72-.2,1.08-.3.29-.08.58-.16.88-.23.68-.16,1.36-.31,2.04-.44.02,0,.04,0,.07-.01.72-.13,1.45-.24,2.18-.33.05,0,.1-.02.15-.02h0c.83-.09,1.66-.17,2.5-.22v-2.51c-8.58.47-16.4,3.46-22.59,8.16v3.23c.8-.68,1.63-1.33,2.5-1.94v-.02Z"/><path class="b" d="m69.53,144.08h-14.34c-1.38,0-2.5,1.12-2.5,2.5h19.34c0-1.38-1.12-2.5-2.5-2.5Z"/><path class="b" d="m72.94,134.9c-.73.39-1,1.3-.61,2.03.27.5.79.79,1.32.79v-3.21l-.71.38Z"/><path class="b" d="m146.78,146.58h0v2.5h1.62c1.38,0,2.5-1.12,2.5-2.5v-19.96c-.79-.82-1.62-1.6-2.5-2.35v22.3h-1.62Z"/><path class="b" d="m125.95,110.39s0,0,0,0c.08,0,.17.01.25.02-.08,0-.16-.01-.25-.02Z"/><path class="b" d="m125.1,137.54l-1.79-.96v10c0,1.38,1.12,2.5,2.5,2.5h1.62v-2.5h0s-1.62,0-1.62,0v-8.85s0,0,0,0c-.24,0-.48-.06-.71-.18Z"/><path class="b" d="m125.81,134.52v-19.13c-.79-.05-1.58-.08-2.38-.08h-.12v17.86l2.5,1.35Z"/><path class="b" d="m149.91,119.06c-4.76-3.62-10.24-6.17-16.13-7.55,6.08,1.43,11.61,4.1,16.27,7.68-.05-.04-.09-.09-.14-.13Z"/><path class="b" d="m123.31,112.89v2.43h.12c.8,0,1.59.03,2.38.08v-2.51c8.58.47,16.4,3.46,22.59,8.16v3.23c.88.74,1.71,1.53,2.5,2.35v-5.57c0-.72-.32-1.38-.85-1.86-4.66-3.58-10.2-6.25-16.27-7.68-.02,0-.04,0-.07-.01-.56-.13-1.12-.25-1.69-.36-.21-.04-.42-.08-.63-.12-.37-.07-.75-.13-1.12-.18-.29-.04-.58-.09-.86-.13-.27-.04-.55-.06-.83-.1-.79-.09-1.58-.16-2.38-.21-.08,0-.17-.01-.25-.02-.69-.03-1.35.21-1.85.68-.5.47-.78,1.13-.78,1.82Z"/><path class="b" d="m126.52,134.9c.73.39,1,1.3.61,2.03-.27.5-.79.79-1.32.79v8.85h1.62c0-1.38,1.12-2.5,2.5-2.5h-1.62v-28.46c-.83-.1-1.66-.18-2.5-.23v19.13l.71.38Z"/><path class="b" d="m145.9,144.08h-1.62c1.38,0,2.5,1.12,2.5,2.5h1.62v-22.3c-.8-.68-1.63-1.33-2.5-1.94v21.74Z"/><path class="b" d="m128.31,115.61c.05,0,.1.02.15.02.74.09,1.47.2,2.2.33.02,0,.03,0,.05,0,.69.13,1.37.28,2.05.44.29.07.58.15.86.22.37.1.74.2,1.1.31.35.1.7.21,1.05.32.27.09.53.18.8.28.74.26,1.47.54,2.18.84.18.07.35.14.53.22.4.18.8.36,1.2.55.21.1.41.2.62.3.39.19.77.39,1.15.6.19.1.38.22.56.32.62.35,1.23.72,1.82,1.11.27.18.55.35.81.54.15.1.3.19.45.3v.02c.87.61,1.7,1.26,2.5,1.94v-3.23c-6.19-4.7-14.01-7.69-22.59-8.16v2.51c.84.05,1.67.13,2.5.23h0Z"/><rect class="b" x="141.78" y="149.08" width="5" height="11.66"/><rect class="b" x="127.43" y="149.08" width="5" height="11.66"/><path class="b" d="m146.78,163.24v-2.5h-19.34v2.5c0,1.38,1.12,2.5,2.5,2.5h14.34c1.38,0,2.5-1.12,2.5-2.5Z"/><polygon class="b" points="127.43 149.08 132.43 149.08 141.78 149.08 146.78 149.08 146.78 146.58 146.78 146.58 127.43 146.58 127.43 146.58 127.43 149.08"/><path class="b" d="m144.28,144.08h-14.34c-1.38,0-2.5,1.12-2.5,2.5h19.34c0-1.38-1.12-2.5-2.5-2.5Z"/><polygon class="b" points="123.31 136.58 123.31 133.17 109.76 125.86 109.76 129.27 123.31 136.58"/><path class="b" d="m107.26,125.97v1.95l2.5,1.35v-3.41l-1.51-.82c-.04.52-.46.93-.98.93Z"/><path class="b" d="m107.26,125.97c-.51,0-.92-.39-.98-.89-.13.12-.25.25-.34.42-.39.73-.12,1.64.61,2.03l.71.38v-1.95s0,0,0,0Z"/><path class="b" d="m107.26,124.72v1.25c.53,0,.95-.41.98-.93l-.27-.15c-.23-.12-.47-.17-.71-.17Z"/><path class="b" d="m107.26,125.97s0,0,0,0v-1.25c-.36,0-.7.13-.98.36.06.5.46.89.98.89Z"/><path class="b" d="m125.1,137.54c.23.12.47.18.71.18,0,0,0,0,0,0v-3.2l-2.5-1.35v3.41l1.79.96Z"/><path class="b" d="m127.13,136.94c.39-.73.12-1.64-.61-2.03l-.71-.38v3.2c.53,0,1.05-.29,1.32-.79Z"/></svg>