<?xml version="1.0" encoding="UTF-8"?><svg id="a" xmlns="http://www.w3.org/2000/svg" viewBox="0 0 200 200"><defs><style>.b{stroke-width:0px;}</style></defs><path class="b" d="m141.24,105.4h-4.01c-.99,0-1.82.64-2.12,1.53h-70.27c-.36-.89-1.23-1.53-2.25-1.53h-3.65c-1.33,0-2.42,1.09-2.42,2.42l.06,34.07c0,2.65,2.16,4.8,4.81,4.8h.01l77.28-.22c1.28,0,2.49-.51,3.39-1.42.91-.91,1.4-2.12,1.4-3.41v-34c0-1.24-1.01-2.24-2.24-2.24Zm-6.25,9.87l-69.97.2v-2.37h69.97v2.17Zm0-4.1h-69.97v-2.32h69.97v2.32Z"/><path class="b" d="m161.09,62.49h-37.36v-7.77c0-5.68-4.62-10.3-10.3-10.3h-27.32c-5.68,0-10.3,4.62-10.3,10.3v7.77h-36.9c-9.32,0-16.9,7.58-16.9,16.9v59.3c0,9.32,7.58,16.9,16.9,16.9h122.17c9.32,0,16.9-7.58,16.9-16.9v-59.3c0-9.32-7.58-16.9-16.9-16.9Zm-80.27-7.77c0-2.92,2.38-5.3,5.3-5.3h27.32c2.92,0,5.3,2.38,5.3,5.3v7.77h-37.92v-7.77Zm-53.79,83.97v-59.3c0-6.56,5.34-11.9,11.9-11.9h7.91v83.09h-7.91c-6.56,0-11.9-5.34-11.9-11.9Zm24.81-71.2h97.02v83.09H51.82v-83.09Zm121.16,71.2c0,6.56-5.34,11.9-11.9,11.9h-7.24v-83.09h7.24c6.56,0,11.9,5.34,11.9,11.9v59.3Z"/></svg>