<?xml version="1.0" encoding="UTF-8"?><svg id="a" xmlns="http://www.w3.org/2000/svg" viewBox="0 0 200 200"><defs><style>.b{stroke-width:0px;}</style></defs><path class="b" d="m176.52,86.15c.85,0,1.55-.69,1.55-1.55s-.69-1.55-1.55-1.55h-10.88c-.85,0-1.55.69-1.55,1.55s.69,1.55,1.55,1.55h3.89v32.49h-3.45c-.44,0-.66.48-.35.76l5,4.54c.19.18.5.18.7,0l5-4.54c.31-.28.09-.76-.35-.76h-3.45v-32.49h3.89Z"/><path class="b" d="m57.39,75.67h2.97c.43,0,.78-.35.78-.77s-.35-.77-.78-.77h-2.97c-.43,0-.78.35-.78.77s.35.77.78.77Z"/><path class="b" d="m51.43,75.67h2.97c.43,0,.78-.35.78-.77s-.35-.77-.78-.77h-2.97c-.43,0-.78.35-.78.77s.35.77.78.77Z"/><path class="b" d="m75.24,75.67h2.97c.43,0,.78-.35.78-.77s-.35-.77-.78-.77h-2.97c-.43,0-.78.35-.78.77s.35.77.78.77Z"/><path class="b" d="m81.19,75.67h2.97c.43,0,.78-.35.78-.77s-.35-.77-.78-.77h-2.97c-.43,0-.78.35-.78.77s.35.77.78.77Z"/><path class="b" d="m63.34,75.67h2.97c.43,0,.78-.35.78-.77s-.35-.77-.78-.77h-2.97c-.43,0-.78.35-.78.77s.35.77.78.77Z"/><path class="b" d="m36.04,80.89s.1.01.15.01c.37,0,.7-.26.77-.63.16-.85.52-1.66,1.05-2.35.26-.34.19-.83-.15-1.09-.34-.26-.83-.19-1.09.15-.67.88-1.13,1.92-1.34,3-.08.42.2.83.62.9Z"/><path class="b" d="m87.14,75.67h2.97c.43,0,.78-.35.78-.77s-.35-.77-.78-.77h-2.97c-.43,0-.78.35-.78.77s.35.77.78.77Z"/><path class="b" d="m39.64,76.35c.12,0,.24-.03.35-.08.79-.39,1.63-.59,2.52-.6.43,0,.78-.35.78-.78,0-.43-.35-.77-.78-.77h0c-1.13,0-2.21.26-3.21.76-.39.19-.54.66-.35,1.04.14.27.41.43.7.43Z"/><path class="b" d="m45.48,75.67h2.97c.43,0,.78-.35.78-.77s-.35-.77-.78-.77h-2.97c-.43,0-.78.35-.78.77s.35.77.78.77Z"/><path class="b" d="m69.29,75.67h2.97c.43,0,.78-.35.78-.77s-.35-.77-.78-.77h-2.97c-.43,0-.78.35-.78.77s.35.77.78.77Z"/><path class="b" d="m93.09,75.67h2.97c.43,0,.78-.35.78-.77s-.35-.77-.78-.77h-2.97c-.43,0-.78.35-.78.77s.35.77.78.77Z"/><path class="b" d="m110.94,75.67h2.97c.43,0,.78-.35.78-.77s-.35-.77-.78-.77h-2.97c-.43,0-.78.35-.78.77s.35.77.78.77Z"/><path class="b" d="m104.99,75.67h2.97c.43,0,.78-.35.78-.77s-.35-.77-.78-.77h-2.97c-.43,0-.78.35-.78.77s.35.77.78.77Z"/><path class="b" d="m99.04,75.67h2.97c.43,0,.78-.35.78-.77s-.35-.77-.78-.77h-2.97c-.43,0-.78.35-.78.77s.35.77.78.77Z"/><path class="b" d="m140.8,79.76c.1.34.41.56.75.56.07,0,.14-.01.22-.03.41-.12.65-.55.53-.96-.31-1.06-.87-2.04-1.62-2.86-.29-.32-.79-.34-1.1-.05-.32.29-.34.78-.05,1.09.59.64,1.03,1.42,1.27,2.24Z"/><path class="b" d="m134.76,75.67h.57c.71,0,1.41.13,2.07.38.09.04.19.05.28.05.31,0,.61-.19.73-.49.16-.4-.04-.85-.45-1-.84-.32-1.73-.49-2.63-.49h-.57c-.43,0-.78.35-.78.77s.35.77.78.77Z"/><path class="b" d="m128.81,75.67h2.98c.43,0,.78-.35.78-.77s-.35-.77-.78-.77h-2.98c-.43,0-.78.35-.78.77s.35.77.78.77Z"/><path class="b" d="m122.86,75.67h2.98c.43,0,.78-.35.78-.77s-.35-.77-.78-.77h-2.98c-.43,0-.78.35-.78.77s.35.77.78.77Z"/><path class="b" d="m116.91,75.67h2.98c.43,0,.78-.35.78-.77s-.35-.77-.78-.77h-2.98c-.43,0-.78.35-.78.77s.35.77.78.77Z"/><path class="b" d="m141.86,86.61c0-3.25-2.64-5.89-5.89-5.89H41.14c-3.25,0-5.89,2.64-5.89,5.89v7.73h106.61v-7.73Z"/><path class="b" d="m142.41,98.23c-.56-.51-1.3-.8-2.06-.8H39.2c-2.18,0-3.95,1.77-3.95,3.95v6.26h-10.14c-1.75,0-3.17,1.42-3.17,3.17s1.42,3.17,3.17,3.17h10.14v3.84c0,2.73,2.11,4.94,4.78,5.16v1.13c0,.97.87,1.76,1.94,1.76h3.38c1.07,0,1.94-.79,1.94-1.76v-1.08h87.15v1.08c0,.97.87,1.76,1.94,1.76h3.38c1.07,0,1.94-.79,1.94-1.76v-1.08h10.02c3.83,0,6.93-3.1,6.93-6.93,0-1.95-.82-3.81-2.26-5.12l-13.97-12.74Z"/></svg>