<?xml version="1.0" encoding="UTF-8"?><svg id="a" xmlns="http://www.w3.org/2000/svg" viewBox="0 0 200 200"><defs><style>.b{stroke-width:0px;}</style></defs><circle class="b" cx="76.99" cy="89.12" r="11.71"/><path class="b" d="m58.02,118.48h0s37.92,0,37.92,0h0c0-8.33-6.75-15.09-15.09-15.09h-7.75c-8.33,0-15.09,6.75-15.09,15.09Z"/><polygon class="b" points="154.18 97.27 146.18 97.27 146.18 123.44 47.34 123.44 47.34 71.1 96.76 71.1 96.76 63.1 39.34 63.1 39.34 131.44 154.18 131.44 154.18 97.27"/><path class="b" d="m34.27,145.6h124.98c6.08,0,11.01-4.93,11.01-11.01H23.26c0,6.08,4.93,11.01,11.01,11.01Z"/><path class="b" d="m101.19,54.4v38.64h14.27v17.36l21.85-17.36h39.43v-38.64h-75.54Zm70.54,33.64h-36.17l-15.1,12v-12h-14.27v-28.64h65.54v28.64Z"/></svg>