<?xml version="1.0" encoding="UTF-8"?><svg id="a" xmlns="http://www.w3.org/2000/svg" viewBox="0 0 200 200"><defs><style>.b{stroke-width:0px;}</style></defs><path class="b" d="m54.63,113.07c-.06.5-.1,1.01-.1,1.53,0,7.01,5.68,12.7,12.7,12.7s12.7-5.68,12.7-12.7c0-.52-.04-1.03-.1-1.53-.22-1.81-.82-3.5-1.72-5-2.22-3.69-6.25-6.17-10.88-6.17s-8.65,2.48-10.88,6.17c-.9,1.5-1.5,3.19-1.72,5Zm12.6-7.86c2.64,0,5.02,1.1,6.73,2.86,1.3,1.34,2.2,3.07,2.52,5,.08.5.14,1.01.14,1.53,0,5.17-4.21,9.38-9.38,9.38s-9.38-4.21-9.38-9.38c0-.52.05-1.03.14-1.53.32-1.93,1.22-3.66,2.52-5,1.71-1.76,4.09-2.86,6.73-2.86Z"/><path class="b" d="m67.22,100.11c2.22,0,4.03-1.8,4.03-4.03s-1.8-4.03-4.03-4.03-4.03,1.8-4.03,4.03,1.8,4.03,4.03,4.03Z"/><path class="b" d="m82.99,104.29c1.57-1.57,1.57-4.12,0-5.7-1.57-1.57-4.12-1.57-5.7,0-1.57,1.57-1.57,4.12,0,5.7,1.57,1.57,4.12,1.57,5.7,0Z"/><path class="b" d="m85.49,110.57c-1.68,0-3.12,1.03-3.72,2.5-.19.47-.3.99-.3,1.53,0,2.22,1.8,4.03,4.03,4.03s4.03-1.8,4.03-4.03c0-.54-.11-1.06-.3-1.53-.6-1.47-2.04-2.5-3.72-2.5Z"/><path class="b" d="m77.3,124.66c-1.57,1.57-1.57,4.12,0,5.7,1.57,1.57,4.12,1.57,5.7,0,1.57-1.57,1.57-4.12,0-5.7-1.57-1.57-4.12-1.57-5.7,0Z"/><path class="b" d="m67.22,128.6c-2.22,0-4.03,1.8-4.03,4.03s1.8,4.03,4.03,4.03,4.03-1.8,4.03-4.03-1.8-4.03-4.03-4.03Z"/><path class="b" d="m51.46,124.43c-1.57,1.57-1.57,4.12,0,5.7,1.57,1.57,4.12,1.57,5.7,0,1.57-1.57,1.57-4.12,0-5.7-1.57-1.57-4.12-1.57-5.7,0Z"/><path class="b" d="m52.98,114.36c0-.45-.09-.88-.23-1.29-.54-1.59-2.03-2.74-3.8-2.74s-3.26,1.15-3.8,2.74c-.14.41-.23.84-.23,1.29,0,2.22,1.8,4.03,4.03,4.03s4.03-1.8,4.03-4.03Z"/><path class="b" d="m57.15,104.29c1.57-1.57,1.57-4.12,0-5.7s-4.12-1.57-5.7,0c-1.57,1.57-1.57,4.12,0,5.7,1.57,1.57,4.12,1.57,5.7,0Z"/><path class="b" d="m67.22,122.42c4.31,0,7.82-3.51,7.82-7.83,0-.52-.05-1.03-.15-1.53-.41-2.08-1.66-3.87-3.37-5-1.24-.82-2.72-1.3-4.31-1.3s-3.07.48-4.31,1.3c-1.71,1.13-2.95,2.92-3.37,5-.1.49-.15,1-.15,1.53,0,4.31,3.51,7.83,7.83,7.83Zm-5.7-9.35c.68-2.52,2.97-4.38,5.7-4.38s5.03,1.86,5.7,4.38c.13.49.21,1,.21,1.53,0,3.26-2.65,5.91-5.91,5.91s-5.91-2.65-5.91-5.91c0-.53.08-1.04.21-1.53Z"/><path class="b" d="m165.66,47.9H15.14v19.44h0v5h0v.27h89.94v28.57c0,3.8-3.09,6.89-6.89,6.89h-1.43c-2.99-13.56-15.1-23.73-29.54-23.73s-26.55,10.17-29.54,23.73H15.14v5h21.86c-.03.51-.04,1.01-.04,1.53,0,16.68,13.57,30.26,30.26,30.26s30.26-13.57,30.26-30.26c0-.51-.01-1.02-.04-1.53h.75c6.55,0,11.89-5.33,11.89-11.89v-28.57h74.78v-5.22c0-13.95-8.24-19.18-19.2-19.5Zm-74.41,66.69c0,13.27-10.76,24.03-24.03,24.03s-24.03-10.76-24.03-24.03c0-.51.02-1.02.05-1.53.11-1.72.4-3.39.85-5,2.84-10.1,12.12-17.5,23.12-17.5s20.28,7.4,23.12,17.5c.45,1.61.74,3.28.85,5,.03.51.05,1.01.05,1.53Z"/><path class="b" d="m79.26,86l5.85-2.54c.23-.1.34-.36.25-.59l-2.27-5.96c-.14-.37-.65-.36-.81,0l-1.16,2.75c-11.09-4.39-23.57-3.3-33.71,3.05-.67.42-1.33.86-1.96,1.31-.67.48-.83,1.42-.34,2.09.29.41.75.63,1.22.63.3,0,.61-.09.87-.28.58-.42,1.19-.83,1.8-1.21,9.3-5.83,20.76-6.84,30.95-2.83l-1.26,2.98c-.16.37.19.74.56.58Z"/><path class="b" d="m83.03,145.01c-10.29,5.54-22.8,5.42-33-.18l1.63-2.79c.2-.35-.1-.76-.48-.65l-6.12,1.77c-.24.07-.38.32-.32.56l1.49,6.2c.09.39.6.44.8.09l1.5-2.58c5.63,3.11,11.89,4.69,18.17,4.69s12.23-1.48,17.75-4.45c.73-.39,1-1.3.61-2.03-.39-.73-1.3-1-2.03-.61Z"/></svg>