<?xml version="1.0" encoding="UTF-8"?><svg id="a" xmlns="http://www.w3.org/2000/svg" viewBox="0 0 200 200"><defs><style>.b{stroke-width:0px;}</style></defs><path class="b" d="m192.9,104.23c0-2.06-1.69-3.74-3.75-3.74h0l-58.22.12v-13.4c0-3.53-2.87-6.39-6.39-6.39h-3.45c1.82-4.97,3.75-10.47,3.84-11.54.25-3-3.09-7.44-7.47-12.94l-.15-.19c-.85-1.07-1.9-2.39-2.24-2.93l-.02-3.68h.57c.45-.01.87-.19,1.17-.5.32-.33.49-.75.48-1.17l-.05-10.5c0-.91-.75-1.65-1.67-1.65l-28.89.13c-.44,0-.87.18-1.17.49-.04.04-.1.1-.15.17-.23.3-.34.66-.33,1.01l.05,10.5c0,.44.16.85.47,1.16.31.32.74.5,1.19.5h.33l.03,4.15c-4.47,5.13-4.6,14.54-4.6,15.61,0,.08,0,.14.01.21l.99,7.54v3.63s-7.96,0-7.96,0c-3.53,0-6.4,2.87-6.4,6.39v13.53l-58.4.12c-1,0-1.94.39-2.65,1.1s-1.09,1.65-1.09,2.65l.15,40.01c0,.89.33,1.7.86,2.34v16.35c0,.52.42.95.95.95h182.18c.56,0,1.01-.45,1.01-1.01v-16.55c.61-.69.95-1.55.95-2.48l-.15-40.01ZM19.28,148.35h.65s160.15-.34,160.15-.34h1.36s0,6.09,0,6.09H19.28v-5.74ZM116.79,60.88c2.22,2.88,4.92,6.64,4.81,8.11h0s0,0,0,0c-.09.62-1.18,3.82-2.47,7.44-.51,1.44-1.06,2.94-1.58,4.39-.65,1.79-1.28,3.48-1.79,4.81-.03.07-.05.13-.07.19-.09.24-.18.47-.26.69-.28-.18-.57-.42-.88-.69-.07-.06-.14-.13-.21-.19-.52-.49-1.04-1.09-1.48-1.79-.42-.67-.99-1.81-.94-3.02.02-.41.1-.83.3-1.24,1.07-2.27,2.39-6.69,2.4-6.72.15-.48.07-1-.23-1.43-.28-.41-.75-.67-1.26-.71l-.82-.05h-.02c-1.32,0-2.84-.79-4.29-2.22-2.49-2.47-4.17-6.22-4.17-9.33v-.5s-3.33.02-3.33.02v.5c.03,5.88,4.74,13.56,10.33,14.7-.6,1.82-1.09,3.16-1.5,4.07l-2.11-.07c-.32,0-.64.06-.96.16-.14-.37-.33-.7-.55-.97-.65-.81-1.58-1.28-2.54-1.28l-3.42.02c-.34,0-.67.07-.99.18-.68-.83-1.67-1.31-2.72-1.31l-2.94.02c-.36,0-.72.06-1.08.18-.62-.96-1.61-1.54-2.67-1.54h-2.56c-.16.01-.32.03-.47.06l-.52-4c0-.1,0-.76.08-1.75.04-.5.09-1.08.17-1.71.39-3.18,1.37-7.76,3.85-10.26.23-.23.39-.52.46-.85.02-.11.03-.22.03-.33l-.02-4.81,21.38-.09.02,3.98c0,.94.59,1.72,3.1,4.87.52.65,1.21,1.51,1.95,2.47Zm-13.5,28.09v.56s0,0,0,0c0,.06,0,.12,0,.15,0,0,0,0,0,0-.06.01-.15.03-.3.03l-2.96.02c-.17,0-.25,0-.31-.02,0-.05,0-.11,0-.15l-.02-3.73v-.19s-.02-4.81-.02-4.81v-1.17c0-.29.1-.49.16-.56h3.25c.1.12.16.33.16.55v1.18s.02,4.81.02,4.81v.19s.01,3.15.01,3.15Zm-10.48-3.35l-.02-4.81v-2.27c-.01-.18.05-.36.14-.47.06-.07.11-.1.15-.1h2.96c.11,0,.31.21.31.56v2.29s.03,4.81.03,4.81v.19s.01,2.73.01,2.73c0,.17-.05.33-.14.45-.06.08-.13.12-.17.12l-2.95.02c-.12,0-.31-.23-.31-.57v-2.75s-.01-.19-.01-.19Zm-6.02.19v-.19s-.02-4.81-.02-4.81v-3.73c-.02-.19.03-.35.11-.46h2.33s.13.2.13.46v3.73s.03,4.81.03,4.81v.19s0,.85,0,.85c0,.18-.04.34-.14.48h-2.32s0,0,0,0c-.04-.04-.07-.11-.09-.19-.02-.08-.04-.17-.04-.28v-.87Zm19.82,3.13l-.02-3.13v-.19s-.02-3.15-.02-3.15h0c0-.83.46-1.3.59-1.3l1.42.05c.05,1.43.55,2.94,1.45,4.4h0s.07.11.07.11v.07s0,.02,0,.02l.06,3.11c0,.29-.08.57-.16.69l-.08.08s-.04.04-.05.06c0,0,0,0,0,0-.01.02-.02.03-.01.03l-2.92.02c-.09-.04-.34-.34-.34-.86Zm-32.53-1.74c0-.77.63-1.39,1.4-1.39h7.99v.89c.01.95.32,1.85.87,2.53.64.79,1.55,1.24,2.5,1.24l2.53-.02c.18,0,.37-.02.57-.07.63,1.25,1.83,2.06,3.21,2.05h2.95c.46,0,.91-.11,1.35-.31.65.6,1.56.89,2.59.9h2.96c.79-.01,1.48-.19,2.05-.53.57.4,1.21.61,1.88.61l2.96-.02c1.04,0,2.02-.51,2.69-1.39.53-.67.85-1.57.91-2.52.32.21.64.39.96.55.67.33,1.3.49,1.87.5.67.03,1.24-.36,1.53-.95.11-.23.63-1.58,1.35-3.48h5.31c.77,0,1.39.62,1.39,1.39v13.41l-51.83.11v-13.52Zm-54.16,73.86h-.65v-3.77h162.16v3.77H19.93Z"/></svg>