<?xml version="1.0" encoding="UTF-8"?><svg id="a" xmlns="http://www.w3.org/2000/svg" viewBox="0 0 200 200"><defs><style>.b{stroke-width:0px;}</style></defs><path class="b" d="m134.36,49.45c-4.4-4.4-9.64-7.96-15.45-10.42s-12.2-3.82-18.91-3.82c-13.42,0-25.57,5.44-34.36,14.24-8.79,8.79-14.23,20.94-14.23,34.36,0,5.34.87,10.5,2.48,15.34,1.67,5.01,4.12,9.65,7.22,13.78l36.77,49.02,2.12,2.83,2.12-2.83,36.76-49.02c3.1-4.13,5.56-8.77,7.22-13.78.81-2.42,1.43-4.92,1.85-7.48.42-2.56.64-5.19.64-7.86,0-13.42-5.44-25.57-14.23-34.36Zm-34.36,66.9c-17.65,0-31.95-14.31-31.95-31.95s14.3-31.96,31.95-31.96,31.95,14.31,31.95,31.96-14.31,31.95-31.95,31.95Z"/><path class="b" d="m118.84,66.92h-27.57c-.48,0-.95.14-1.35.39-2.14,1.35-1.18,4.66,1.35,4.66h22.52c1.2,0,2.17.97,2.17,2.17v28.56c0,.67.27,1.31.74,1.79,1.59,1.59,4.31.46,4.31-1.79v-33.62c0-1.2-.97-2.17-2.17-2.17Z"/><path class="b" d="m109.26,76.65l-33.09-.16c-.48,0-.96.13-1.36.39h0c-2.13,1.35-1.19,4.65,1.34,4.67l28.07.16c1.19,0,2.16.98,2.16,2.17v9.25c0,.67.27,1.31.74,1.79,1.59,1.59,4.31.46,4.31-1.79v-14.3c0-1.2-.97-2.17-2.16-2.17Z"/></svg>