<?xml version="1.0" encoding="UTF-8"?><svg id="a" xmlns="http://www.w3.org/2000/svg" viewBox="0 0 200 200"><defs><style>.b{stroke-width:0px;}</style></defs><path class="b" d="m100,49.06l-72.79-10.59v112.48l72.79,10.59,72.79-10.59V38.47l-72.79,10.59Zm-64.79-1.34l60.79,8.84v96.31l-60.79-8.84V47.71Zm129.58,96.31l-60.79,8.84V56.56l60.79-8.84v96.31Z"/><path class="b" d="m115.03,72.42c.11,0,.23,0,.34-.02l38.72-5.28c1.37-.19,2.33-1.45,2.14-2.81-.19-1.37-1.45-2.34-2.81-2.14l-38.72,5.28c-1.37.19-2.33,1.45-2.14,2.81.17,1.25,1.24,2.16,2.47,2.16Z"/><path class="b" d="m115.03,91.15c.11,0,.23,0,.34-.02l38.72-5.34c1.37-.19,2.32-1.45,2.13-2.82-.19-1.37-1.44-2.32-2.82-2.13l-38.72,5.34c-1.37.19-2.32,1.45-2.13,2.82.17,1.25,1.24,2.16,2.47,2.16Z"/><path class="b" d="m115.03,109.87c.11,0,.23,0,.35-.02l38.72-5.39c1.37-.19,2.32-1.45,2.13-2.82s-1.44-2.32-2.82-2.13l-38.72,5.39c-1.37.19-2.32,1.45-2.13,2.82.17,1.25,1.25,2.16,2.47,2.16Z"/><path class="b" d="m153.41,118.17l-38.72,5.45c-1.37.19-2.32,1.46-2.13,2.82.18,1.25,1.25,2.15,2.47,2.15.12,0,.23,0,.35-.02l38.72-5.45c1.37-.19,2.32-1.46,2.13-2.82-.19-1.37-1.45-2.32-2.82-2.13Z"/><path class="b" d="m60.15,65.67l20.68,3.19c1.1.17,1.99,1.19,1.99,2.29v26.08c0,.61.24,1.24.68,1.73,1.45,1.67,3.94,1.01,3.94-1.04v-30.67c0-1.09-.89-2.12-1.98-2.29l-25.3-3.93c-.44-.07-.87-.01-1.25.16-1.98.93-1.09,4.11,1.25,4.47Z"/><path class="b" d="m46.16,72.31l25.89,4.1c1.1.17,1.98,1.2,1.98,2.29v8.46c0,.61.24,1.24.68,1.74,1.46,1.68,3.95,1.02,3.95-1.04v-13.07c0-1.09-.88-2.11-1.98-2.29l-30.5-4.83c-.45-.07-.89-.01-1.26.17h0c-1.98.94-1.1,4.11,1.24,4.48Z"/><path class="b" d="m85.34,107.3l-38.72-5.68c-1.38-.2-2.64.75-2.84,2.11-.2,1.37.75,2.64,2.11,2.84l38.72,5.68c.12.02.25.03.37.03,1.22,0,2.29-.89,2.47-2.14.2-1.37-.75-2.64-2.11-2.84Z"/><path class="b" d="m85.34,124.07l-38.72-5.55c-1.37-.2-2.63.75-2.83,2.12-.2,1.37.75,2.63,2.12,2.83l38.72,5.55c.12.02.24.03.36.03,1.22,0,2.29-.9,2.47-2.15.2-1.37-.75-2.63-2.12-2.83Z"/></svg>