<?xml version="1.0" encoding="UTF-8"?><svg id="a" xmlns="http://www.w3.org/2000/svg" viewBox="0 0 200 200"><defs><style>.b{stroke-width:0px;}</style></defs><path class="b" d="m86.68,74.46l4.98-.41.22,2.7h5.34v-2.5h5v2.5h5.35l.22-2.7,4.98.41-.16,1.91c5.4-.9,10.48-3.4,14.75-7.25.05-.71.09-1.42.09-2.15v-5.28c-4.97,6.4-11.99,10.06-19.38,10.06h-16.74c-7.39,0-14.41-3.66-19.38-10.06v5.28c0,.72.04,1.44.09,2.15,4.27,3.85,9.35,6.35,14.76,7.25l-.16-1.91Z"/><path class="b" d="m116.14,57.04c3.93,0,7.82,1.05,11.33,3.03v-4.65c0-.32-.01-.64-.02-.95-3.59-1.59-7.43-2.43-11.31-2.43h-32.83c-3.88,0-7.72.84-11.31,2.43-.01.32-.02.63-.02.95v4.65c3.52-1.98,7.41-3.03,11.33-3.03h32.83Z"/><path class="b" d="m87.29,81.82c-5.42-.94-10.43-3.76-14.49-8.18.53,2.14,1.31,4.18,2.3,6.09,3.75,2.76,7.97,4.52,12.44,5.16l-.25-3.07Z"/><path class="b" d="m112.18,81.82l-.25,3.07c4.46-.64,8.68-2.4,12.43-5.16.99-1.91,1.77-3.95,2.3-6.09-4.05,4.42-9.06,7.23-14.48,8.18Z"/><polygon class="b" points="102.23 82.17 102.23 85.17 106.89 85.17 107.14 82.17 102.23 82.17"/><polygon class="b" points="97.23 82.17 92.33 82.17 92.58 85.17 97.23 85.17 97.23 82.17"/><path class="b" d="m52.92,163.24v-2.5h-15.1v-19.73l-5-1.97v24.2c0,1.38,1.12,2.5,2.5,2.5h20.1c-1.38,0-2.5-1.12-2.5-2.5Z"/><path class="b" d="m92.33,82.17l-.44-5.41h-.52c-1.53,0-3.04-.14-4.52-.39l.45,5.45c1.34.23,2.7.35,4.08.35h.97Z"/><path class="b" d="m92.58,85.17h-1.21c-1.29,0-2.57-.1-3.82-.28l.6,7.29c1.64.76,3.37,1.36,5.16,1.79l-.72-8.79Z"/><path class="b" d="m91.89,76.76l-.22-2.7-4.98.41.16,1.91c1.49.25,3,.39,4.52.39h.52Z"/><path class="b" d="m91.36,82.17c-1.38,0-2.74-.12-4.08-.35l.25,3.07c1.26.18,2.53.28,3.82.28h1.21l-.25-3h-.97Z"/><rect class="b" x="97.23" y="76.76" width="5" height="5.41"/><path class="b" d="m97.23,85.17v9.44c.82.07,1.66.12,2.5.12s1.68-.04,2.5-.12v-9.44h-5Z"/><rect class="b" x="97.23" y="74.26" width="5" height="2.5"/><rect class="b" x="97.23" y="82.17" width="5" height="3"/><path class="b" d="m99.73,108.42c7.45,0,13.78-5.23,15.45-12.58-2.03,1.09-4.18,1.96-6.43,2.61-1.97,3.03-5.29,4.97-9.01,4.97s-7.06-1.94-9.02-4.97c-2.25-.65-4.4-1.52-6.43-2.61,1.66,7.35,7.98,12.58,15.45,12.58Z"/><path class="b" d="m82.88,97.34v-2.29c-1.78-1.08-3.46-2.32-5-3.7v5.99c0,2.14-1.43,3.93-3.38,4.52.8,1.51,1.68,2.96,2.62,4.36,3.39-1.52,5.76-4.93,5.76-8.88Z"/><path class="b" d="m29.08,137.56l3.74,1.47v-1.7h5v3.67l15.1,5.94v13.79h2.5v5h88.63v-5h2.5v-13.79l15.1-5.94v-3.67h5v1.7l3.74-1.47c.96-.38,1.58-1.3,1.58-2.33v-21.41c0-12.14-9.88-22.01-22.01-22.01-3.9,0-7.5,1.88-9.72,5h-11.28c-1,0-1.9.59-2.3,1.51-.52,1.2-1.08,2.38-1.69,3.53.43.13.88.22,1.36.22v5c-1.42,0-2.76-.31-3.98-.85-1.31,1.95-2.76,3.8-4.35,5.53-4.97,5.42-11.27,9.7-18.26,12.4-6.99-2.7-13.29-6.98-18.26-12.4-1.59-1.74-3.04-3.59-4.35-5.54-1.22.55-2.56.86-3.98.86v-5c.47,0,.92-.09,1.35-.22-.61-1.15-1.17-2.32-1.69-3.52-.39-.92-1.3-1.51-2.3-1.51h-11.28c-2.22-3.12-5.82-5-9.72-5-12.14,0-22.01,9.88-22.01,22.01v21.41c0,1.03.63,1.95,1.58,2.33Zm3.42-23.73c0-9.38,7.63-17.01,17.01-17.01,2.57,0,4.92,1.41,6.12,3.68.43.82,1.28,1.33,2.21,1.33h11.05c2.29,4.89,5.27,9.36,8.89,13.31,5.66,6.18,12.88,11.01,20.88,13.97.15.07.3.12.47.16.54.13,1.11.07,1.6-.14,8.03-2.96,15.27-7.79,20.94-13.99,3.62-3.95,6.61-8.43,8.89-13.31h11.05c.92,0,1.77-.51,2.21-1.33,1.21-2.27,3.55-3.68,6.12-3.68,9.38,0,17.01,7.63,17.01,17.01v19.7l-23.84,9.38c-.96.38-1.58,1.3-1.58,2.33v15.49h-41.57c-.16-.02-.33-.02-.49,0h-41.57v-15.49c0-1.03-.63-1.95-1.58-2.33l-23.84-9.38v-19.7Z"/><path class="b" d="m52.92,160.74v2.5c0,1.38,1.12,2.5,2.5,2.5v-5h-2.5Z"/><polygon class="b" points="37.82 137.33 32.82 137.33 32.82 139.04 37.82 141.01 37.82 137.33"/><path class="b" d="m73.15,107.08c1.42,0,2.76-.31,3.98-.86-.95-1.4-1.83-2.86-2.62-4.36-.43.13-.88.22-1.35.22v5Z"/><path class="b" d="m161.65,160.74h-15.1v2.5c0,1.38-1.12,2.5-2.5,2.5h20.1c1.38,0,2.5-1.12,2.5-2.5v-24.2l-5,1.97v19.73Z"/><path class="b" d="m146.55,163.24v-2.5h-2.5v5c1.38,0,2.5-1.12,2.5-2.5Z"/><polygon class="b" points="161.65 137.33 161.65 141.01 166.65 139.04 166.65 137.33 161.65 137.33"/><path class="b" d="m108.1,82.17c1.38,0,2.75-.12,4.09-.35l.45-5.45c-1.49.25-3,.39-4.53.39h-.51l-.44,5.41h.96Z"/><path class="b" d="m108.1,85.17h-1.2l-.72,8.79c1.79-.43,3.52-1.03,5.16-1.79l.6-7.28c-1.26.18-2.54.28-3.84.28Z"/><path class="b" d="m112.63,76.37l.16-1.91-4.98-.41-.22,2.7h.51c1.53,0,3.04-.14,4.53-.39Z"/><path class="b" d="m107.14,82.17l-.25,3h1.2c1.29,0,2.57-.1,3.84-.28l.25-3.07c-1.34.23-2.7.35-4.09.35h-.96Z"/><path class="b" d="m116.59,97.43c0,3.91,2.37,7.28,5.76,8.79.95-1.41,1.83-2.86,2.63-4.36-1.95-.58-3.38-2.33-3.38-4.43v-6.1c-1.54,1.39-3.22,2.63-5,3.7v2.39Z"/><path class="b" d="m126.33,107.08v-5c-.47,0-.92-.09-1.36-.22-.8,1.51-1.68,2.96-2.63,4.36,1.22.54,2.56.85,3.98.85Z"/><path class="b" d="m82.88,90.3v4.75c.46.28.92.54,1.4.8-.08-.38-.17-.75-.23-1.14l4.24-.66-.15-1.87c-5.6-2.59-10.2-6.99-13.04-12.45-2.02-1.49-3.9-3.26-5.6-5.31l2.31-1.92c.32.39.66.77.99,1.14-.36-1.46-.6-2.97-.72-4.52-1.67-1.5-3.21-3.2-4.61-5.09l4.03-2.96c.16.21.32.42.49.63v-1.63c-.39.22-.78.44-1.16.68l-2.69-4.22c1.25-.79,2.54-1.48,3.87-2.07.51-14.86,12.74-26.79,27.72-26.79s27.22,11.93,27.72,26.79c1.33.59,2.62,1.27,3.87,2.07l-2.69,4.22c-.38-.24-.77-.46-1.16-.68v1.63c.16-.21.33-.41.49-.63l4.03,2.96c-1.39,1.89-2.94,3.59-4.61,5.09-.12,1.54-.36,3.05-.72,4.52.34-.37.67-.75.99-1.14l2.31,1.92c-1.7,2.05-3.59,3.82-5.6,5.31-2.84,5.45-7.43,9.85-13.02,12.44l-.16,1.96,4.22.69c-.06.35-.14.69-.21,1.03.48-.26.95-.52,1.41-.8v-4.74h5v1.04c6.68-6,10.89-14.69,10.89-24.36v-11.55c0-18.06-14.69-32.75-32.75-32.75s-32.75,14.69-32.75,32.75v11.55c0,9.67,4.21,18.37,10.9,24.37v-1.05h5Z"/><path class="b" d="m106.03,95.72l.14-1.76c-1.28.31-2.6.52-3.94.64v2.62h-5v-2.62c-1.34-.12-2.65-.34-3.93-.64l.14,1.76-3.91.32c.3.86.7,1.66,1.18,2.4,2.87.82,5.89,1.27,9.02,1.27s6.15-.45,9.01-1.27c.48-.74.88-1.55,1.19-2.41l-3.91-.32Z"/><path class="b" d="m71.98,61.7c-.16-.21-.33-.41-.49-.63l-4.03,2.96c1.39,1.89,2.94,3.59,4.61,5.09-.05-.71-.09-1.42-.09-2.15v-5.28Z"/><path class="b" d="m127.38,69.12c1.67-1.5,3.21-3.2,4.61-5.09l-4.03-2.96c-.16.21-.32.42-.49.63v5.28c0,.72-.04,1.44-.09,2.15Z"/><path class="b" d="m127.48,60.07c.39.22.78.44,1.16.68l2.69-4.22c-1.25-.79-2.54-1.48-3.87-2.07.01.32.02.63.02.95v4.65Z"/><path class="b" d="m72.01,54.47c-1.33.59-2.62,1.27-3.87,2.07l2.69,4.22c.38-.24.77-.46,1.16-.68v-4.65c0-.32.01-.64.02-.95Z"/><path class="b" d="m129.96,74.42l-2.31-1.92c-.32.39-.66.77-.99,1.14-.53,2.14-1.31,4.18-2.3,6.09,2.02-1.49,3.9-3.26,5.6-5.31Z"/><path class="b" d="m71.81,72.5l-2.31,1.92c1.7,2.05,3.59,3.82,5.6,5.31-.99-1.91-1.77-3.95-2.3-6.09-.34-.37-.67-.75-.99-1.14Z"/><path class="b" d="m89.53,96.05l3.91-.32-.14-1.76c-1.79-.43-3.52-1.03-5.16-1.79l.15,1.87.7-.11c.11.73.3,1.44.54,2.11Z"/><path class="b" d="m97.23,94.6v2.62h5v-2.62c-.82.07-1.66.12-2.5.12s-1.68-.04-2.5-.12Z"/><path class="b" d="m89.53,96.05l-1.07.09-.17-2.09-4.24.66c.06.39.14.76.23,1.14,2.02,1.09,4.18,1.96,6.43,2.61-.48-.74-.88-1.54-1.18-2.4Z"/><path class="b" d="m109.93,96.04c-.3.86-.71,1.67-1.19,2.41,2.25-.65,4.41-1.52,6.43-2.61.08-.34.16-.68.21-1.03l-4.22-.69-.16,2-1.08-.09Z"/><path class="b" d="m89.53,96.05c-.24-.67-.42-1.38-.54-2.11l-.7.11.17,2.09,1.07-.09Z"/><path class="b" d="m82.88,90.3h-5v1.05c1.54,1.38,3.22,2.63,5,3.7v-4.75Z"/><path class="b" d="m106.03,95.72l3.91.32c.23-.65.41-1.33.52-2.03l.72.12.16-1.96c-1.64.76-3.37,1.36-5.16,1.79l-.14,1.76Z"/><path class="b" d="m109.93,96.04l1.08.09.16-2-.72-.12c-.11.7-.29,1.38-.52,2.03Z"/><path class="b" d="m116.59,90.3v4.74c1.78-1.08,3.46-2.32,5-3.7v-1.04h-5Z"/><path class="b" d="m95.98,136.67h13.96c.74,0,1.35.6,1.35,1.35v17.71c0,.42.16.81.46,1.11.99.99,2.68.29,2.68-1.11v-20.85c0-.74-.6-1.35-1.35-1.35h-17.1c-.3,0-.59.08-.84.24-1.33.84-.73,2.89.84,2.89Z"/><path class="b" d="m86.6,142.6l17.4.1c.74,0,1.34.61,1.34,1.35v5.73c0,.42.17.81.46,1.11.99.99,2.68.29,2.68-1.11v-8.87c0-.74-.6-1.34-1.34-1.35l-20.52-.1c-.3,0-.59.08-.84.24h0c-1.32.84-.74,2.88.83,2.89Z"/></svg>