<?xml version="1.0" encoding="UTF-8"?><svg id="a" xmlns="http://www.w3.org/2000/svg" viewBox="0 0 200 200"><defs><style>.b{stroke-width:0px;}</style></defs><path class="b" d="m148.98,89.53h-3.29c-.63,0-1.22.19-1.71.52h-14.24c-.47-1.43-1.8-2.47-3.39-2.47H29.25c-1.98,0-3.59,1.61-3.59,3.59v23.78c0,1.98,1.61,3.59,3.59,3.59h19.34v6.93c0,1.22.99,2.21,2.21,2.21h5.11c1.03,0,1.88-.71,2.13-1.65h84.91c.52.99,1.54,1.68,2.74,1.68h3.29c1.71,0,3.1-1.39,3.1-3.1v-31.98c0-1.71-1.39-3.1-3.1-3.1Zm-6.38,30.93H58.13v-1.92h84.47v1.92Zm0-27.83v24.56h-13.47c.5-.62.81-1.39.81-2.24v-23.55h12.92c-.16.38-.26.79-.26,1.23Zm-84.47,29.57h84.47v2.09H58.13v-2.09Z"/><path class="b" d="m22.22,87.28h-3.72c-.54,0-.98.44-.98.98s.44.98.98.98h3.72c.54,0,.98-.44.98-.98s-.44-.98-.98-.98Z"/><path class="b" d="m15.64,87.21c-1.81,0-3.52,0-4.59.88-1.15.95-1.15,2.58-1.15,4.02,0,.54.44.98.98.98s.98-.44.98-.98c0-1,0-2.14.44-2.5.52-.43,2.09-.43,3.34-.43.54,0,.98-.44.98-.98s-.44-.98-.98-.98Z"/><path class="b" d="m10.96,99.59h.02c.53-.01.96-.45.95-.99l-.07-3.6c-.01-.53-.45-.96-.99-.95-.53.01-.96.45-.95.99l.07,3.6c.01.53.44.95.97.95Z"/><path class="b" d="m9.87,104.91c.01.52.44.93.96.93,0,0,.02,0,.03,0,.53-.01.95-.46.93-.99l-.09-3.14c-.01-.53-.46-.95-.99-.93-.53.01-.95.46-.93.99l.09,3.14Z"/><path class="b" d="m9.73,110.34c.02.52.44.93.96.93h.03c.53-.02.94-.46.93-.99l-.09-2.91c-.02-.53-.47-.93-.99-.93-.53.02-.94.46-.93.99l.09,2.91Z"/><path class="b" d="m14.64,116.98h-.03c-1,.03-2.14.06-2.51-.36-.44-.51-.49-2.07-.53-3.33-.02-.54-.49-.98-1.01-.95-.54.02-.97.47-.95,1.01.05,1.81.11,3.52,1.01,4.56.79.9,1.99,1.05,3.18,1.05.29,0,.58,0,.86-.02.54-.02.97-.47.95-1.01-.02-.53-.45-.95-.98-.95Z"/><path class="b" d="m21.83,116.68h-3.72c-.54,0-.98.44-.98.98s.44.98.98.98h3.72c.54,0,.98-.44.98-.98s-.44-.98-.98-.98Z"/><path class="b" d="m181.51,117.3h-3.72c-.54,0-.98.44-.98.98s.44.98.98.98h3.72c.54,0,.98-.44.98-.98s-.44-.98-.98-.98Z"/><path class="b" d="m189.14,113.45c-.54,0-.98.44-.98.98,0,1,0,2.14-.44,2.5-.52.43-2.09.43-3.34.43-.54,0-.98.44-.98.98s.44.98.98.98c1.81,0,3.52,0,4.59-.88,1.15-.95,1.15-2.58,1.15-4.02,0-.54-.44-.98-.98-.98Z"/><path class="b" d="m189.13,112.48h.02c.53-.01.96-.45.95-.99l-.07-3.6c-.01-.53-.45-.95-.99-.95-.53.01-.96.45-.95.99l.07,3.6c.01.53.44.95.97.95Z"/><path class="b" d="m189.17,100.69c-.53.01-.95.46-.93.99l.09,3.14c.01.52.44.93.96.93,0,0,.02,0,.03,0,.53-.01.95-.46.93-.99l-.09-3.14c-.01-.53-.44-.95-.99-.93Z"/><path class="b" d="m189.3,95.27c-.53.02-.94.46-.93.99l.09,2.91c.02.52.44.93.96.93h.03c.53-.02.94-.46.93-.99l-.09-2.91c-.02-.53-.48-.92-.99-.93Z"/><path class="b" d="m185.36,87.6c-.54.02-.97.47-.95,1.01.02.54.47.96,1.01.95,1-.03,2.14-.06,2.51.36.44.51.49,2.07.53,3.33.02.53.45.95.98.95.01,0,.02,0,.03,0,.54-.02.97-.47.95-1.01-.05-1.81-.11-3.52-1.01-4.56-.98-1.12-2.61-1.07-4.05-1.03Z"/><path class="b" d="m181.9,87.9h-3.72c-.54,0-.98.44-.98.98s.44.98.98.98h3.72c.54,0,.98-.44.98-.98s-.44-.98-.98-.98Z"/><path class="b" d="m173.95,117.3h-3.72c-.54,0-.98.44-.98.98s.44.98.98.98h3.72c.54,0,.98-.44.98-.98s-.44-.98-.98-.98Z"/><path class="b" d="m190.77,76.75l-3.85-4.18c-.24-.26-.64-.07-.64.3l.02,3H13.7v-3.15c0-.37-.41-.55-.64-.29l-3.83,4.21c-.15.16-.15.42,0,.59l3.83,4.21c.24.26.64.08.64-.29v-2.78h172.61l.02,2.93c0,.37.41.55.65.29l3.8-4.24c.15-.16.14-.43,0-.59Z"/><path class="b" d="m174.35,87.9h-3.71c-.54,0-.98.44-.98.98s.44.98.98.98h3.71c.54,0,.98-.44.98-.98s-.44-.98-.98-.98Z"/><path class="b" d="m165.84,117.3h-3.72c-.54,0-.98.44-.98.98s.44.98.98.98h3.72c.54,0,.98-.44.98-.98s-.44-.98-.98-.98Z"/><path class="b" d="m166.23,87.9h-3.71c-.54,0-.98.44-.98.98s.44.98.98.98h3.71c.54,0,.98-.44.98-.98s-.44-.98-.98-.98Z"/><path class="b" d="m157.73,117.3h-3.71c-.54,0-.98.44-.98.98s.44.98.98.98h3.71c.54,0,.98-.44.98-.98s-.44-.98-.98-.98Z"/><path class="b" d="m158.12,87.9h-3.71c-.54,0-.98.44-.98.98s.44.98.98.98h3.71c.54,0,.98-.44.98-.98s-.44-.98-.98-.98Z"/></svg>