<?xml version="1.0" encoding="UTF-8"?><svg id="a" xmlns="http://www.w3.org/2000/svg" viewBox="0 0 200 200"><defs><style>.b{stroke-width:0px;}</style></defs><path class="b" d="m174.14,97.83c0-4.97-4.07-9-9.08-9h-33.52c-3.53.24-4.94.58-6.6.92-1.81.37-3.95.74-7.36,1.54-3.41.8-8.11,2.03-13.38,2.52-5.28.49-11.15.25-15.63-.31-4.48-.55-7.57-1.41-10.4-2.15-2.83-.74-5.39-1.35-8.91-1.78-2.65-.32-5.85-.54-9.19-.74h-25.34c-5.02,0-9.08,4.03-9.08,9v5.47h148.48v-5.47Z"/><path class="b" d="m174.41,109.03c0-.32-.1-.63-.27-.9-.49-.8-1.63-1.37-2.95-1.37H28.81c-.67,0-1.3.15-1.81.4-.85.41-1.4,1.09-1.4,1.87v20.27c0,.14.02.28.06.42-.04.13-.06.27-.06.41v2.8c0,.78.57,1.47,1.42,1.87.5.24,1.1.37,1.75.37h5.54c1.75,0,3.18-1,3.18-2.24v-1.36h125.03v1.36c0,1.24,1.42,2.24,3.18,2.24h5.54c1.3,0,2.42-.55,2.91-1.35.17-.27.27-.58.27-.9v-2.8c0-.14-.02-.28-.06-.41.04-.13.06-.27.06-.41v-20.27Z"/><path class="b" d="m75.38,86.05c.53.24,1.84.75,1.99.81l.63.24,3.02-1.55.27,2.48,1.09.21c.38.07,9,1.69,16.45,1.69.24,0,.49,0,.73,0,4.07-.06,10.13-.58,10.38-.6l.56-.05,3.02-3.12.86,2.57,1.6-.96c.1-.06,1.23-.74,2.77-1.71.02,0,.03-.01.05-.02,1.99-1.25,3.76-2.43,5.38-3.58.42-.3.83-.59,1.23-.88,0,0,.01,0,.02-.01,0,0,0,0,0,0,0,0,0,0,0,0h0c.66-.49.81-1.43.32-2.09-.49-.67-1.43-.81-2.1-.32-.38.28-.77.56-1.16.84-2.24,1.58-4.83,3.23-6.46,4.24l-1.23-3.7-5.67,5.87c-1.61.13-6.35.49-9.61.54-5.82.1-12.83-.99-15.48-1.44l-.5-4.59-5.7,2.92c-.42-.16-.93-.37-1.19-.49-2.25-1.04-9.62-4.86-10-10.38-.05-.7-.12-1.75.44-2.69,1.46-2.43,6.37-2.42,9.29-2.42,8.11.01,15.8.36,18.01.46l5.81,6.61,1.22-6.66c3.15-.23,8.61-.42,13.1.06.35.04.69.08,1.02.13,0,0,.02,0,.03,0,2.95.44,5.47,1.36,7.67,3.36,0,0,.01,0,.02.01h0c.29.26.65.39,1.01.39.41,0,.81-.16,1.11-.49.56-.61.52-1.56-.09-2.12,0,0,0,0,0,0h0s-.06-.05-.09-.08c-.22-.2-.44-.38-.66-.57-.98-.8-1.97-1.46-3.02-1.99-1.38-.7-3.25-1.16-5.3-1.46-1.19-.19-2.39-.3-3.57-.37-.03,0-.05,0-.08,0-5.97-.37-12.14.19-12.54.22l-1.13.11-.51,2.81-2.56-2.91-.63-.03c-.09,0-9.14-.48-18.79-.5-3.79,0-9.53-.01-11.86,3.88-1.05,1.75-.92,3.56-.86,4.44.48,6.98,8.37,11.35,11.74,12.9Z"/><path class="b" d="m74.53,73.68c-.8-.21-1.62.27-1.83,1.07-.21.8.27,1.62,1.07,1.83,8.63,2.28,17.5,3.43,26.4,3.43,1.23,0,2.47-.02,3.7-.07,11.32-.41,22.43-2.66,33.03-6.69.77-.29,1.16-1.16.87-1.94-.29-.77-1.16-1.16-1.94-.87-10.29,3.92-21.08,6.1-32.08,6.5-9.85.35-19.69-.75-29.23-3.27Z"/></svg>