<?xml version="1.0" encoding="UTF-8"?><svg id="a" xmlns="http://www.w3.org/2000/svg" viewBox="0 0 200 200"><defs><style>.b{stroke-width:0px;}</style></defs><path class="b" d="m51.7,82.16c.68-1.74,1.46-3.44,2.33-5.1.17-.33.35-.66.53-.98.14-.26.28-.51.43-.77.18-.32.37-.63.56-.95.16-.26.31-.52.48-.78.18-.3.37-.59.57-.88.18-.27.36-.55.54-.82.18-.27.37-.54.56-.8.2-.28.4-.57.61-.85.18-.25.37-.5.56-.74.22-.29.44-.57.67-.85,1.14-1.43,2.36-2.8,3.65-4.11.73-.73,1.47-1.44,2.24-2.13.03-.03.06-.05.09-.08.7-.63,1.42-1.23,2.15-1.81.09-.07.18-.15.28-.22,1.59-1.25,3.24-2.41,4.96-3.47,0,0,.02-.01.02-.02.87-.54,1.76-1.05,2.66-1.53.02-.01.05-.02.07-.04.86-.46,1.74-.89,2.63-1.3.05-.02.11-.05.16-.08,1.86-.85,3.78-1.6,5.73-2.22.81-.26,1.64-.49,2.47-.71.27-.07.54-.13.81-.2.58-.14,1.17-.28,1.76-.41.3-.06.59-.12.89-.18.59-.11,1.19-.22,1.79-.31.27-.04.54-.09.81-.13.85-.12,1.71-.23,2.57-.31,0,0,.01,0,.02,0,10.23-.94,20.19,1.1,28.99,5.8l-10.96,10.93c-1.35,1.35-.4,3.65,1.51,3.65l30.68.04c1.18,0,2.14-.95,2.14-2.14l.04-30.68c0-1.91-2.3-2.86-3.65-1.52l-12.44,12.41c-11.13-6.6-24.2-9.64-37.22-8.45-1.03.09-2.05.22-3.08.37-.33.05-.66.1-.98.16-.71.11-1.41.23-2.11.37-.36.07-.71.14-1.07.22-.71.15-1.41.31-2.11.49-.31.08-.62.15-.93.23-.13.04-.27.06-.4.1v.02c-.85.23-1.71.47-2.55.74-2.21.71-4.37,1.55-6.48,2.5v-.02c-.13.06-.25.12-.37.17-.06.03-.11.05-.17.08-1.07.49-2.12,1.02-3.16,1.57-.02.01-.05.02-.07.04-1.08.58-2.14,1.19-3.19,1.83,0,0-.01,0-.02.01-2.05,1.26-4.03,2.64-5.93,4.14-.11.09-.23.18-.34.27-.87.69-1.72,1.4-2.54,2.14-.04.04-.09.07-.13.11-.03.03-.07.06-.1.09h0c-.88.79-1.73,1.61-2.57,2.45-1.42,1.44-2.76,2.95-4.03,4.51h0c-.11.13-.21.26-.32.4-.26.33-.52.66-.77.99-.23.3-.46.6-.69.91-.24.33-.48.66-.72,1-.23.32-.45.64-.67.97-.22.32-.43.65-.65.97-.23.35-.45.7-.67,1.05-.19.31-.38.62-.57.94-.22.37-.45.75-.66,1.12-.18.31-.35.62-.52.92-.21.39-.42.77-.63,1.16-.06.12-.13.24-.19.36h0c-.96,1.87-1.83,3.77-2.59,5.73l9.31,3.64Z"/><path class="b" d="m48.38,105.74c-.15-1.59-.22-3.2-.22-4.79,0-3.73.41-7.47,1.2-11.1l-9.77-2.15c-.95,4.33-1.44,8.79-1.44,13.25,0,1.89.09,3.81.26,5.7v.14s9.97-.93,9.97-.93v-.12Z"/><path class="b" d="m49.76,113.83l-9.69,2.46c.89,3.51,2.1,6.96,3.59,10.26l9.11-4.13c-1.25-2.76-2.26-5.65-3.01-8.59Z"/><path class="b" d="m147.3,122.27c-.9,1.99-1.92,3.92-3.06,5.77-.52.86-1.07,1.7-1.64,2.52-.05.07-.1.14-.16.22-.5.71-1.02,1.41-1.55,2.09-.16.21-.32.41-.49.62-.48.59-.97,1.17-1.47,1.74-.15.17-.29.34-.43.5-.66.73-1.34,1.45-2.03,2.14-.08.08-.17.16-.26.24-.59.58-1.19,1.13-1.81,1.68-.22.19-.44.38-.66.57-.54.46-1.08.91-1.64,1.34-.2.15-.39.31-.58.46-.69.53-1.4,1.04-2.12,1.54-.02.02-.04.03-.07.05-.18.13-.37.25-.56.37-.08.05-.17.1-.25.16-.31.21-.63.4-.95.6-.16.1-.31.2-.47.3-.13.08-.25.16-.37.24-.13.08-.26.16-.39.24-.08.05-.17.09-.26.14-.57.33-1.14.64-1.72.95-.51.27-1.02.53-1.53.78-.43.21-.86.42-1.3.62-.2.09-.4.2-.6.29-.01,0-.03.01-.04.02-.21.09-.43.17-.65.26-.19.08-.39.16-.59.24-.23.1-.46.19-.7.28-.32.12-.63.27-.95.38,0,0,0,0-.01,0-.23.09-.47.15-.7.24-.61.22-1.22.42-1.83.62-.4.13-.81.24-1.21.36-.51.15-1.03.29-1.55.42-.37.09-.74.19-1.11.27-.84.19-1.69.37-2.54.52-.26.05-.52.08-.78.12-.69.11-1.39.21-2.09.3-.3.04-.59.07-.89.1-.89.09-1.79.17-2.69.21-.04,0-.08,0-.12,0,0,0,0,0-.01,0-.15,0-.31,0-.47.01-.62.02-1.24.04-1.86.04-.02,0-.03,0-.05,0-.72,0-1.43-.01-2.15-.04,0,0-.02,0-.03,0-.26-.01-.52-.03-.77-.05-.15,0-.29-.02-.44-.03-.32-.02-.63-.03-.95-.06,0,0,0,0,0,0-.66-.05-1.31-.13-1.97-.21-.02,0-.05,0-.07,0-.07,0-.13-.01-.2-.02-.57-.07-1.13-.16-1.7-.25-.12-.02-.24-.04-.35-.06-.49-.08-.98-.19-1.47-.28-.85-.17-1.7-.34-2.54-.55-.31-.08-.62-.16-.93-.24-.04-.01-.09-.02-.13-.04-4.4-1.2-8.64-2.97-12.59-5.28l11.47-10.51c1.41-1.29.55-3.63-1.35-3.72l-30.68-1.33c-1.18-.05-2.18.86-2.23,2.05l-1.33,30.68c-.08,1.91,2.18,2.96,3.59,1.67l12.89-11.82h0c.29.19.58.39.88.58.02.01.03.02.05.03.05.03.09.06.14.08,0,0,.02.01.02.02.35.22.7.43,1.06.64.09.05.18.11.27.16.2.12.4.25.6.36.07.04.13.07.2.11.44.25.88.49,1.32.73.12.07.25.13.37.2.08.04.15.09.23.13.07.04.15.08.22.12.23.12.46.25.69.37v-.02s.01,0,.01,0c.41.21.82.42,1.24.61.24.11.48.22.71.33.49.23.98.45,1.48.66.26.11.53.22.79.33.47.19.95.39,1.43.57.29.11.58.21.87.32.46.17.92.33,1.39.49.31.1.61.2.92.3.45.14.9.28,1.35.42.04.01.09.03.13.04v.03c5.64,1.66,11.5,2.5,17.42,2.5.37,0,.74-.02,1.11-.03.61-.01,1.22-.02,1.82-.04.03,0,.06,0,.09,0,.5-.02,1-.05,1.5-.09h0c.31-.03.61-.05.92-.08.2-.02.39-.04.59-.06.7-.07,1.39-.15,2.08-.24.11-.01.23-.03.34-.04.84-.12,1.68-.25,2.52-.4.03,0,.06-.01.1-.02.84-.15,1.67-.32,2.5-.51.03,0,.05-.01.08-.02.6-.14,1.2-.28,1.8-.43h0c.17-.03.35-.09.52-.13.37-.1.74-.21,1.12-.31.72-.21,1.43-.42,2.14-.65.26-.08.52-.17.78-.26.48-.16.95-.33,1.43-.5.17-.06.34-.13.51-.19.46-.17.91-.37,1.36-.55.03-.01.05-.02.08-.03.42-.17.84-.33,1.26-.51.17-.07.35-.15.52-.22.47-.21.94-.43,1.41-.65.22-.1.43-.21.64-.31.39-.19.77-.39,1.15-.59,0,0,.02,0,.03-.01.31-.16.62-.31.92-.47.33-.18.66-.35.98-.54.34-.19.67-.38,1.01-.58.48-.28.95-.56,1.42-.86.22-.13.43-.27.65-.4.63-.41,1.26-.83,1.88-1.26.08-.06.17-.11.26-.17h0c1.4-.99,2.77-2.03,4.09-3.13.03-.02.05-.05.08-.07.61-.51,1.21-1.04,1.81-1.57.08-.08.17-.15.25-.23.62-.57,1.24-1.15,1.84-1.75h-.01c.13-.14.27-.26.4-.4h0s.08-.08.12-.13c.58-.59,1.15-1.18,1.7-1.79.04-.05.09-.1.13-.15.56-.62,1.11-1.26,1.65-1.9.13-.15.25-.31.38-.46.4-.48.78-.97,1.16-1.47.16-.2.31-.4.47-.61.45-.6.88-1.2,1.31-1.82.17-.25.34-.51.51-.76.28-.42.56-.84.83-1.26.18-.28.36-.56.53-.85.05-.09.11-.17.16-.26h0c1.31-2.16,2.5-4.4,3.55-6.72l-9.12-4.11Z"/><path class="b" d="m161.77,98.05c-.07-1.39-.18-2.79-.34-4.17l-9.93,1.14c.13,1.16.23,2.33.28,3.51.04.82.06,1.67.06,2.52,0,4.2-.51,8.39-1.51,12.44l9.71,2.4c1.2-4.84,1.8-9.83,1.8-14.84,0-1.02-.02-2.03-.07-3Z"/><path class="b" d="m149.59,85.88l9.57-2.91c-1.05-3.46-2.42-6.85-4.07-10.08l-8.9,4.55c1.38,2.7,2.53,5.54,3.41,8.44Z"/></svg>