<?xml version="1.0" encoding="UTF-8"?><svg id="a" xmlns="http://www.w3.org/2000/svg" viewBox="0 0 200 200"><defs><style>.b{stroke-width:0px;}</style></defs><path class="b" d="m121.03,133.69c0-.56-.48-1.01-1.08-1.01h-40.34c-.6,0-1.08.45-1.08,1.01v2.54h42.5v-2.54Z"/><path class="b" d="m120.22,137.45h-40.88c-.51,0-.92.31-.92.7v6.22s.02.08.03.13c-.01.04-.03.08-.03.13v.86c0,.38.41.69.91.69h1.59c.5,0,.91-.31.91-.69v-.42h35.89v.42c0,.38.41.69.91.69h1.59c.5,0,.91-.31.91-.69v-.86s-.02-.08-.03-.13c.01-.04.03-.08.03-.13v-6.22c0-.38-.41-.7-.92-.7Z"/><path class="b" d="m176.58,77.59h-2.17v-11.76c0-8.14-6.62-14.75-14.76-14.75h-47.4c-5.1,0-9.6,2.6-12.25,6.55-2.65-3.95-7.15-6.55-12.26-6.55h-47.4c-8.14,0-14.75,6.62-14.75,14.75v11.76h-2.17c-5.37,0-9.74,4.37-9.74,9.74v25.66c0,9.63,7.84,17.47,17.47,17.47h1.39l-2.88,7.6c-.94,2.46-.6,5.23.9,7.4,1.5,2.17,3.96,3.46,6.6,3.46h2.67c2.51,0,4.92-1.2,6.44-3.2l11.58-15.26h84.3l11.58,15.26c1.52,2,3.93,3.2,6.44,3.2h2.67c2.64,0,5.1-1.29,6.6-3.46,1.5-2.17,1.83-4.94.9-7.4l-2.88-7.6h1.39c9.63,0,17.47-7.84,17.47-17.47v-25.66c0-5.37-4.37-9.74-9.74-9.74Zm-7.73,47.87H31.15c-6.88,0-12.47-5.59-12.47-12.47v-25.66c0-2.61,2.12-4.74,4.74-4.74h10.92c1.99,0,3.7,1.24,4.39,2.99.22.54.34,1.13.34,1.74v20.67c0,.57.2,1.08.51,1.5.46.6,1.17,1,1.99,1h116.85c.81,0,1.53-.39,1.99-1,.32-.42.51-.94.51-1.5v-20.67c0-.62.13-1.2.34-1.74.7-1.75,2.4-2.99,4.39-2.99h10.92c2.61,0,4.74,2.12,4.74,4.74v25.66c0,6.88-5.59,12.47-12.47,12.47Zm-3.52,17.16c-.57.83-1.48,1.3-2.49,1.3h-2.67c-.96,0-1.88-.46-2.46-1.22l-9.29-12.24h13.69l3.56,9.37c.36.94.23,1.96-.34,2.79Zm-125.51,1.3h-2.67c-1.01,0-1.91-.48-2.49-1.3s-.7-1.84-.34-2.79l3.55-9.37h13.69l-9.29,12.24c-.58.76-1.5,1.22-2.46,1.22Zm-9.23-78.09c0-5.38,4.38-9.75,9.75-9.75h47.4c5.38,0,9.76,4.38,9.76,9.75v23.38c-2.6-2.3-6.01-3.71-9.76-3.71h-43.85c-.86-4.49-4.82-7.9-9.56-7.9h-3.75v-11.76Zm71.91,0c0-5.38,4.38-9.75,9.75-9.75h47.4c5.38,0,9.76,4.38,9.76,9.75v11.76h-3.75c-4.74,0-8.7,3.41-9.56,7.9h-43.85c-3.74,0-7.15,1.41-9.75,3.71v-23.38Zm-58.43,24.66h43.67c5.38,0,9.76,4.38,9.76,9.75v5.25h-53.43v-15.01Zm58.43,9.75c0-5.38,4.38-9.75,9.75-9.75h43.67v15.01h-53.43v-5.25Z"/></svg>