<?xml version="1.0" encoding="UTF-8"?><svg id="a" xmlns="http://www.w3.org/2000/svg" viewBox="0 0 200 200"><defs><style>.b{stroke-width:0px;}</style></defs><path class="b" d="m127.65,103.27c0-1.43-1.16-2.59-2.59-2.59H28.35c-1.43,0-2.59,1.16-2.59,2.59v6.49h101.88v-6.49Z"/><path class="b" d="m140.72,112.89H61.66c-.99,0-1.78.8-1.78,1.78v15.93c0,.11.01.22.03.33-.02.11-.03.21-.03.32v2.2c0,.97.79,1.76,1.76,1.76h3.08c.97,0,1.76-.79,1.76-1.76v-1.07h69.42v1.07c0,.97.79,1.76,1.76,1.76h3.08c.97,0,1.76-.79,1.76-1.76v-2.2c0-.11-.01-.22-.03-.32.02-.11.03-.21.03-.33v-15.93c0-.98-.8-1.78-1.78-1.78Z"/><rect class="b" x="131.74" y="100.68" width="5.23" height="9.08" rx="1.93" ry="1.93"/><rect class="b" x="169.01" y="100.68" width="5.23" height="9.08" rx="1.93" ry="1.93"/><rect class="b" x="150.37" y="100.68" width="5.23" height="9.08" rx="1.93" ry="1.93"/><rect class="b" x="159.69" y="100.68" width="5.23" height="9.08" rx="1.93" ry="1.93"/><rect class="b" x="141.06" y="100.68" width="5.23" height="9.08" rx="1.93" ry="1.93"/><path class="b" d="m37.54,89.6c.71.71,1.93.21,1.93-.8v-8.94h121.07v8.94c0,1.01,1.21,1.51,1.93.8l11.44-11.44c.44-.44.44-1.15,0-1.6l-11.44-11.44c-.71-.71-1.93-.21-1.93.8v8.94H39.46v-8.94c0-1.01-1.22-1.51-1.93-.8l-11.44,11.44c-.44.44-.44,1.15,0,1.6l11.44,11.44Z"/></svg>