<?xml version="1.0" encoding="UTF-8"?><svg id="a" xmlns="http://www.w3.org/2000/svg" viewBox="0 0 200 200"><defs><style>.b{stroke-width:0px;}</style></defs><path class="b" d="m52.42,63.52c0-19.76,16.08-35.84,35.84-35.84s35.84,16.08,35.84,35.84v49.64c1.73.72,3.41,1.55,5,2.51v-52.15c0-22.52-18.32-40.84-40.84-40.84s-40.84,18.32-40.84,40.84v52.15c1.59-.96,3.27-1.79,5-2.51v-49.64Z"/><path class="b" d="m122.59,163.24h-31.43l-.74,1.27c-.45.77-1.27,1.23-2.16,1.23h36.83c-1.38,0-2.5-1.12-2.5-2.5Z"/><path class="b" d="m128.66,118.32c5.91,3.76,10.63,9.24,13.45,15.73.58-.39,1.18-.77,1.81-1.11v-.93c-3.22-6.8-8.4-12.49-14.82-16.34v1.24c0,.53-.16,1.01-.44,1.42Z"/><path class="b" d="m86.11,164.5l-.74-1.27h-31.43c0,1.38-1.12,2.5-2.5,2.5h36.83c-.89,0-1.71-.47-2.16-1.23Z"/><path class="b" d="m31.5,165.74h19.93c-1.38,0-2.5-1.12-2.5-2.5h-17.43v-15.15c0-12.52,6.53-23.51,16.37-29.77-.28-.4-.44-.89-.44-1.42v-1.24c-11.03,6.6-18.42,18.67-18.42,32.43v15.15c0,1.38,1.12,2.5,2.5,2.5Z"/><path class="b" d="m127.59,163.24c0,1.38-1.12,2.5-2.5,2.5h11.61c-.6-.8-1.13-1.63-1.61-2.5h-7.49Z"/><path class="b" d="m117.3,112.51c.11.38.12.77.05,1.13.98.21,1.94.46,2.89.76h3.86v-1.25c-2.32-.96-4.76-1.69-7.29-2.17.18.5.35,1.01.49,1.52Z"/><path class="b" d="m59.22,112.51c.15-.51.31-1.02.49-1.52-2.53.48-4.97,1.21-7.29,2.17v1.25h3.86c.95-.29,1.91-.54,2.89-.76-.07-.37-.06-.76.05-1.14Z"/><path class="b" d="m47.87,118.32c2.6-1.65,5.42-2.98,8.42-3.92h-3.86v-1.25c-1.73.72-3.41,1.55-5,2.51v1.24c0,.53.16,1.01.44,1.42Z"/><path class="b" d="m124.1,114.4h-3.86c3,.93,5.82,2.26,8.42,3.92.28-.4.44-.89.44-1.42v-1.24c-1.59-.96-3.27-1.79-5-2.51v1.25Z"/><path class="b" d="m117.08,114.4h3.16c-.95-.29-1.91-.54-2.89-.76-.05.27-.14.52-.27.76Z"/><polygon class="b" points="92.63 160.74 91.16 163.24 122.59 163.24 122.59 160.74 92.63 160.74"/><path class="b" d="m127.59,160.74v2.5h7.49c-.45-.81-.85-1.64-1.19-2.5h-6.3Z"/><path class="b" d="m34,160.74v-12.65c0-12.34,6.85-23.1,16.95-28.69h-1.03c-.85,0-1.61-.43-2.06-1.08-9.84,6.26-16.37,17.25-16.37,29.77v15.15h17.43v-2.5h-14.93Z"/><path class="b" d="m126.6,119.4h-1.03c6.48,3.59,11.62,9.31,14.47,16.2.65-.56,1.34-1.08,2.06-1.56-2.82-6.49-7.54-11.96-13.45-15.73-.45.65-1.2,1.08-2.06,1.08Z"/><polygon class="b" points="53.93 160.74 53.93 163.24 85.36 163.24 83.9 160.74 53.93 160.74"/><path class="b" d="m59.17,113.65c-.98.21-1.94.46-2.89.76h3.16c-.13-.24-.22-.49-.27-.76Z"/><path class="b" d="m49.92,119.4h1.03c3.11-1.72,6.54-2.95,10.16-3.59l-.81-.51c-.37-.23-.66-.55-.86-.91h-3.16c-3,.93-5.82,2.26-8.42,3.92.45.65,1.2,1.08,2.06,1.08Z"/><path class="b" d="m116.22,115.31l-.81.51c3.62.63,7.05,1.86,10.16,3.59h1.03c.85,0,1.61-.43,2.06-1.08-2.6-1.65-5.42-2.98-8.42-3.92h-3.16c-.2.36-.49.68-.86.91Z"/><path class="b" d="m51.43,140.3c-1.38,0-2.5,1.12-2.5,2.5v17.94h5v-17.94c0-1.38-1.12-2.5-2.5-2.5Z"/><path class="b" d="m53.93,163.24h-5c0,1.38,1.12,2.5,2.5,2.5s2.5-1.12,2.5-2.5Z"/><rect class="b" x="48.93" y="160.74" width="5" height="2.5"/><path class="b" d="m125.09,140.3c-1.38,0-2.5,1.12-2.5,2.5v17.94h5v-17.94c0-1.38-1.12-2.5-2.5-2.5Z"/><path class="b" d="m127.59,163.24h-5c0,1.38,1.12,2.5,2.5,2.5s2.5-1.12,2.5-2.5Z"/><rect class="b" x="122.59" y="160.74" width="5" height="2.5"/><path class="b" d="m112.42,107.71c.64.99,1.13,1.95,1.53,2.84.97.11,1.92.25,2.86.43-.59-1.63-1.35-3.18-2.29-4.63-1.11-1.72-2.46-3.25-3.98-4.61-.53.63-1.09,1.25-1.67,1.83,1.15,1.02,2.42,2.37,3.55,4.14Z"/><path class="b" d="m64.1,107.71c1.14-1.76,2.41-3.12,3.55-4.14-.58-.59-1.14-1.2-1.67-1.83-1.52,1.36-2.87,2.89-3.98,4.61-.94,1.45-1.7,3-2.29,4.63.94-.18,1.9-.33,2.86-.43.39-.89.89-1.85,1.53-2.84Z"/><path class="b" d="m113.15,122.25l-2.64-2.85h-3.41c1.4,1.52,2.81,3.03,4.21,4.55-6.9,11.77-13.81,23.53-20.71,35.3l-.3,1.49h2.33l20.84-35.52c.56-.95.43-2.16-.32-2.96Z"/><path class="b" d="m65.21,123.95c1.4-1.52,2.81-3.03,4.21-4.55h-3.41l-2.64,2.85c-.75.81-.88,2.01-.32,2.96l20.84,35.52h2.33l-.3-1.49c-6.9-11.77-13.81-23.53-20.71-35.3Z"/><path class="b" d="m66.02,119.4h3.41c.26-.28.52-.56.78-.84-1.71-1.07-3.41-2.14-5.12-3.21-1.35.07-2.68.23-3.98.46l5.21,3.26-.3.32Z"/><path class="b" d="m106.32,118.56c.26.28.52.56.78.84h3.41l-.3-.32,5.21-3.26c-1.3-.23-2.63-.39-3.98-.46-1.71,1.07-3.41,2.14-5.12,3.21Z"/><path class="b" d="m61.63,113.19c.22-.76.52-1.66.95-2.64-.97.11-1.92.25-2.86.43-.18.5-.35,1.01-.49,1.52-.11.38-.12.77-.05,1.14.81-.18,1.63-.33,2.46-.45,0,0,0,0,0,0Z"/><path class="b" d="m114.9,113.19s0,0,0,0c.83.12,1.65.27,2.46.45.07-.37.06-.76-.05-1.13-.15-.51-.31-1.02-.49-1.52-.94-.18-1.9-.33-2.86-.43.43.98.73,1.88.95,2.64Z"/><path class="b" d="m90.42,164.5l.74-1.27h-1.37l-.06.3c-.14.7-.76,1.2-1.47,1.2s-1.33-.5-1.47-1.2l-.06-.3h-1.37l.74,1.27c.45.77,1.27,1.23,2.16,1.23s1.71-.47,2.16-1.23Z"/><path class="b" d="m112.96,114.4h4.11c.13-.24.22-.49.27-.76-.81-.18-1.63-.33-2.46-.45-.64.4-1.29.81-1.93,1.21Z"/><polygon class="b" points="83.9 160.74 85.36 163.24 86.73 163.24 86.22 160.74 83.9 160.74"/><polygon class="b" points="90.3 160.74 89.79 163.24 91.16 163.24 92.63 160.74 90.3 160.74"/><path class="b" d="m61.63,113.19c-.83.12-1.65.27-2.46.45.05.27.14.52.27.76h4.11c-.64-.4-1.29-.81-1.93-1.21Z"/><path class="b" d="m63.56,114.4h-4.11c.2.36.49.68.86.91l.81.51c1.3-.23,2.63-.39,3.98-.46-.51-.32-1.02-.64-1.53-.96Z"/><path class="b" d="m111.44,115.36c1.35.07,2.68.23,3.98.46l.81-.51c.37-.23.66-.55.86-.91h-4.11c-.51.32-1.02.64-1.53.96Z"/><path class="b" d="m66.2,109.07c.92-1.42,2.03-2.69,3.31-3.79-.64-.54-1.26-1.11-1.86-1.7-1.15,1.02-2.42,2.37-3.55,4.14-.64.99-1.13,1.95-1.53,2.84.95-.11,1.91-.17,2.89-.21.23-.43.47-.86.74-1.28Z"/><path class="b" d="m110.32,109.07c.27.41.51.84.74,1.28.97.03,1.93.1,2.89.21-.39-.89-.89-1.85-1.53-2.84-1.14-1.76-2.41-3.12-3.55-4.14-.59.59-1.22,1.16-1.86,1.7,1.28,1.1,2.39,2.37,3.31,3.79Z"/><path class="b" d="m104.49,120.26l3.73,4.02-16.08,27.41-1.53,7.55c6.9-11.77,13.81-23.53,20.71-35.3-1.4-1.52-2.81-3.03-4.21-4.55h-3.12c.11.32.28.61.51.86Z"/><path class="b" d="m85.92,159.25l-1.53-7.55-16.08-27.41,3.73-4.02c.23-.25.4-.55.51-.86h-3.12c-1.4,1.52-2.81,3.03-4.21,4.55,6.9,11.77,13.81,23.53,20.71,35.3Z"/><path class="b" d="m106.8,115.32l-1.8,1.13c-.63.4-1.05,1.05-1.15,1.79-.05.4,0,.8.13,1.17h3.12c-.26-.28-.52-.56-.78-.84,1.71-1.07,3.41-2.14,5.12-3.21-.56-.03-1.12-.04-1.69-.04h-2.95Z"/><path class="b" d="m72.68,118.24c-.1-.74-.52-1.39-1.15-1.79l-1.8-1.13h-2.95c-.57,0-1.13.01-1.69.04,1.71,1.07,3.41,2.14,5.12,3.21-.26.28-.52.56-.78.84h3.12c.13-.37.18-.77.13-1.17Z"/><path class="b" d="m64.63,112.12c.24-.61.53-1.2.83-1.77-.97.03-1.93.1-2.89.21-.43.98-.73,1.88-.95,2.64,0,0,0,0,0,0,1.36-.2,2.74-.31,4.15-.35l-1.15-.72Z"/><path class="b" d="m111.9,112.12l-1.15.72c1.4.04,2.79.15,4.15.35,0,0,0,0,0,0-.22-.76-.52-1.66-.95-2.64-.95-.11-1.91-.17-2.89-.21.31.58.59,1.16.83,1.77Z"/><path class="b" d="m65.78,112.84c-1.4.04-2.79.15-4.15.35.64.4,1.29.81,1.93,1.21h4.71l-2.49-1.56Z"/><path class="b" d="m108.26,114.4h4.71c.64-.4,1.29-.81,1.93-1.21-1.36-.2-2.74-.31-4.15-.35l-2.49,1.56Z"/><path class="b" d="m106.8,115.32h2.95c.57,0,1.13.01,1.69.04.51-.32,1.02-.64,1.53-.96h-4.71l-1.46.91Z"/><path class="b" d="m69.73,115.32l-1.46-.91h-4.71c.51.32,1.02.64,1.53.96.56-.03,1.12-.04,1.69-.04h2.95Z"/><path class="b" d="m71.68,100.61c.3.43.44.93.44,1.42h1.32c-5.65-4.42-9.29-11.29-9.29-19v-18.11c3.11-1.6,6.02-3.56,8.65-5.85,2.72-2.37,5.12-5.06,7.16-8.02,1.69,3.4,3.78,6.54,6.26,9.37,8.5,9.72,19.33,13.35,26.15,14.71v7.91c0,7.71-3.64,14.58-9.29,19h1.32c0-.49.14-.99.44-1.42.79-1.13,2.34-1.42,3.48-.64.79.54,1.52,1.14,2.22,1.77,4.26-5.06,6.84-11.59,6.84-18.72v-10.01c0-1.23-.9-2.28-2.12-2.47-5.83-.89-16.87-3.83-25.27-13.43-3.15-3.6-5.6-7.76-7.3-12.37-.34-.92-1.19-1.56-2.17-1.63-.98-.07-1.91.45-2.38,1.32-2.21,4.14-5.11,7.8-8.62,10.86-2.68,2.33-5.68,4.29-8.92,5.8-.88.41-1.44,1.29-1.44,2.27v19.67c0,7.12,2.57,13.65,6.84,18.71.7-.63,1.44-1.23,2.22-1.77,1.14-.78,2.69-.5,3.48.64Z"/><path class="b" d="m71.05,104.09c-.54.37-1.04.77-1.53,1.19,1.9,1.61,4.01,2.97,6.28,4.05l-.39-1.95c-.16-.81.36-1.6,1.17-1.77.81-.16,1.6.36,1.77,1.17l.71,3.52h18.41l.71-3.52c.17-.81.96-1.34,1.77-1.17.81.17,1.34.96,1.17,1.77l-.39,1.95c2.27-1.08,4.38-2.45,6.28-4.05-.49-.42-1-.82-1.53-1.19-.7-.48-1.08-1.26-1.08-2.06h-1.32c-4.09,3.2-9.24,5.11-14.82,5.11s-10.73-1.91-14.82-5.11h-1.32c0,.79-.38,1.57-1.08,2.06Z"/><path class="b" d="m88.26,112.14c3.19,0,6.26-.52,9.13-1.48l.07-.35h-18.41l.07.35c2.87.95,5.94,1.48,9.13,1.48Z"/><path class="b" d="m69.63,102.03h2.5c0-.49-.14-.99-.44-1.42-.78-1.14-2.34-1.42-3.48-.64-.79.54-1.52,1.14-2.22,1.77.53.63,1.09,1.25,1.67,1.83.73-.64,1.4-1.16,1.97-1.55Z"/><path class="b" d="m104.84,100.61c-.3.43-.44.93-.44,1.42h2.5c.57.39,1.24.9,1.97,1.55.58-.59,1.14-1.2,1.67-1.83-.7-.63-1.44-1.23-2.22-1.77-1.14-.78-2.69-.5-3.48.64Z"/><path class="b" d="m105.48,104.09c.54.37,1.04.77,1.53,1.19.64-.54,1.26-1.11,1.86-1.7-.73-.64-1.4-1.16-1.97-1.55h-2.5c0,.79.38,1.57,1.08,2.06Z"/><path class="b" d="m71.05,104.09c.7-.48,1.08-1.26,1.08-2.06h-2.5c-.57.39-1.24.9-1.97,1.55.59.59,1.22,1.16,1.86,1.7.49-.42,1-.82,1.53-1.19Z"/><path class="b" d="m78.12,110.32c-.79-.29-1.56-.62-2.32-.98l.2.98h2.12Z"/><path class="b" d="m100.53,110.32l.2-.98c-.75.36-1.53.69-2.32.98h2.12Z"/><polygon class="b" points="95.62 119.4 88.26 155.69 80.9 119.4 77.84 119.4 84.39 151.7 88.26 158.3 92.13 151.7 98.68 119.4 95.62 119.4"/><polygon class="b" points="96.45 115.32 95.62 119.4 98.68 119.4 99.51 115.32 96.45 115.32"/><polygon class="b" points="77.01 115.32 77.84 119.4 80.9 119.4 80.07 115.32 77.01 115.32"/><path class="b" d="m79.13,110.67c-.34-.11-.68-.23-1.02-.35h-2.12l.51,2.5h3.06l-.44-2.15Z"/><path class="b" d="m100.02,112.82l.51-2.5h-2.12c-.34.12-.67.24-1.02.35l-.44,2.15h3.06Z"/><polygon class="b" points="96.64 114.4 99.7 114.4 100.02 112.82 96.96 112.82 96.64 114.4"/><polygon class="b" points="79.57 112.82 76.51 112.82 76.83 114.4 79.89 114.4 79.57 112.82"/><polygon class="b" points="96.45 115.32 99.51 115.32 99.7 114.4 96.64 114.4 96.45 115.32"/><polygon class="b" points="79.89 114.4 76.83 114.4 77.01 115.32 80.07 115.32 79.89 114.4"/><path class="b" d="m89.73,160.74h.57l.3-1.49c-.29.5-.58.99-.87,1.49Z"/><path class="b" d="m86.22,160.74h.57c-.29-.5-.58-.99-.87-1.49l.3,1.49Z"/><path class="b" d="m86.73,163.24l.06.3c.14.7.76,1.2,1.47,1.2s1.33-.5,1.47-1.2l.06-.3h-3.06Z"/><path class="b" d="m89.73,160.74c-.49.83-.98,1.67-1.47,2.5h1.53l.51-2.5h-.57Z"/><path class="b" d="m86.8,160.74h-.57l.51,2.5h1.53c-.49-.83-.98-1.67-1.47-2.5Z"/><path class="b" d="m92.13,151.7l-3.87,6.6-3.87-6.6,1.53,7.55c.29.5.58.99.87,1.49h2.93c.29-.5.58-.99.87-1.49l1.53-7.55Z"/><path class="b" d="m88.26,163.24c.49-.83.98-1.67,1.47-2.5h-2.93c.49.83.98,1.67,1.47,2.5Z"/><path class="b" d="m100.73,109.33l.39-1.95c.16-.81-.36-1.6-1.17-1.77-.81-.17-1.6.36-1.77,1.17l-.71,3.52h.94c.79-.29,1.56-.62,2.32-.98Z"/><path class="b" d="m79.06,110.32l-.71-3.52c-.17-.81-.95-1.34-1.77-1.17-.81.17-1.34.96-1.17,1.77l.39,1.95c.75.36,1.53.69,2.32.98h.94Z"/><path class="b" d="m79.13,110.67l-.07-.35h-.94c.34.12.67.24,1.02.35Z"/><path class="b" d="m98.41,110.32h-.94l-.07.35c.34-.11.68-.23,1.02-.35Z"/><path class="b" d="m162.57,134.48c5.65,2.54,9.88,7.66,11.21,13.86.02,0,.03,0,.05,0,1.2-.19,2.33.5,2.73,1.6-.83-7.16-5.11-13.54-11.49-17v-10.79h-2.5v12.34Z"/><path class="b" d="m174.61,153.27c-.14.02-.28.04-.42.06-.27,6.28-3.49,11.8-8.3,15.22h-22.79c-1.15-.82-2.21-1.76-3.16-2.81h-3.23c1.37,1.84,3.03,3.48,4.95,4.85.42.3.93.46,1.45.46h22.79c.52,0,1.02-.16,1.45-.46,5.87-4.17,9.38-10.94,9.38-18.12,0-.42-.02-.84-.04-1.26-.17,1.04-.97,1.9-2.07,2.07Z"/><path class="b" d="m146.42,134.48v-12.34h-2.5v9.85c.47,1,.91,2.03,1.3,3.08.39-.21.79-.41,1.2-.59Z"/><path class="b" d="m132.27,152.47c0,2.87.57,5.67,1.62,8.27h2.71c-1.17-2.51-1.82-5.32-1.82-8.27,0-.98.07-1.94.21-2.88-1.12-.27-1.94-1.28-1.92-2.48.03-1.38,1.18-2.51,2.55-2.45.26,0,.51.02.77.03,1.07-2.49,2.65-4.72,4.59-6.55-.27-.86-.58-1.7-.93-2.53-4.85,4.16-7.78,10.29-7.78,16.86Z"/><path class="b" d="m142.11,134.04c.34.78.65,1.58.93,2.39.69-.49,1.42-.95,2.17-1.35-.39-1.05-.82-2.07-1.3-3.08v.93c-.63.34-1.22.72-1.81,1.11Z"/><path class="b" d="m137.99,163.24h-2.91c.48.87,1.02,1.7,1.61,2.5h3.23c-.71-.78-1.36-1.61-1.94-2.5Z"/><path class="b" d="m133.89,160.74c.35.86.75,1.69,1.19,2.5h2.91c-.52-.8-.99-1.63-1.4-2.5h-2.71Z"/><path class="b" d="m140.98,138.14c.65-.61,1.34-1.18,2.07-1.7-.28-.81-.59-1.61-.93-2.39-.72.48-1.41,1-2.06,1.56.34.83.65,1.67.93,2.53Z"/><path class="b" d="m160.07,134.48c0,.98.58,1.88,1.47,2.28,4.99,2.25,8.56,6.7,9.74,11.89.83-.08,1.66-.19,2.49-.32-1.32-6.2-5.56-11.31-11.21-13.86v-12.34h-2.5v12.34Z"/><path class="b" d="m165.06,166.05h-21.14c-.13-.1-.25-.2-.37-.31h-3.62c.95,1.04,2.01,1.99,3.16,2.81h22.79c4.81-3.42,8.03-8.93,8.3-15.22-.84.13-1.68.23-2.52.31-.34,4.86-2.74,9.39-6.61,12.41Z"/><path class="b" d="m147.44,136.76c.9-.4,1.47-1.3,1.47-2.28v-12.34h-2.5v12.34c-.41.18-.81.38-1.2.59.29.8.55,1.61.79,2.43.47-.27.94-.52,1.44-.74Z"/><path class="b" d="m137.5,149.73c-.66-.03-1.32-.06-1.98-.08-.18,0-.36-.03-.53-.07-.14.94-.21,1.9-.21,2.88,0,2.96.66,5.76,1.82,8.27h2.81c-1.38-2.51-2.14-5.35-2.14-8.27,0-.92.08-1.84.23-2.73Z"/><path class="b" d="m139.1,144.79c.7-1.4,1.58-2.7,2.63-3.86-.21-.95-.46-1.88-.75-2.8-1.95,1.83-3.52,4.06-4.59,6.55.91.02,1.81.05,2.72.11Z"/><path class="b" d="m146.01,137.51c-.24-.82-.5-1.63-.79-2.43-.76.4-1.48.86-2.17,1.35.29.83.56,1.68.78,2.54.68-.54,1.41-1.03,2.18-1.47Z"/><path class="b" d="m141.08,163.24h-3.09c.58.89,1.23,1.72,1.94,2.5h3.62c-.91-.75-1.74-1.59-2.47-2.5Z"/><path class="b" d="m139.41,160.74h-2.81c.4.87.87,1.7,1.4,2.5h3.09c-.63-.78-1.19-1.62-1.67-2.5Z"/><path class="b" d="m141.73,140.94c.64-.71,1.34-1.37,2.1-1.96-.23-.86-.49-1.71-.78-2.54-.73.52-1.42,1.09-2.07,1.7.29.92.54,1.85.75,2.8Z"/><path class="b" d="m146.42,117.15h-.64v-4.34h17.42v4.34h-.64c1.38,0,2.5,1.12,2.5,2.5v2.5h.64c1.38,0,2.5-1.12,2.5-2.5v-9.34c0-1.38-1.12-2.5-2.5-2.5h-22.42c-1.38,0-2.5,1.12-2.5,2.5v9.34c0,1.38,1.12,2.5,2.5,2.5h.64v-2.5c0-1.38,1.12-2.5,2.5-2.5Z"/><path class="b" d="m146.42,119.65h16.15v2.5h2.5v-2.5c0-1.38-1.12-2.5-2.5-2.5h-16.15c-1.38,0-2.5,1.12-2.5,2.5v2.5h2.5v-2.5Z"/><polygon class="b" points="160.07 122.15 162.57 122.15 162.57 119.65 146.42 119.65 146.42 122.15 148.92 122.15 160.07 122.15"/><path class="b" d="m176.69,150.41c-.03-.17-.07-.33-.13-.48.05.42.09.85.11,1.27.04-.26.06-.52.01-.79Z"/><path class="b" d="m164.08,148.78c-3.39-.22-5.67-.77-8.57-1.46-1.79-.43-3.82-.91-6.37-1.36-.56-.1-1.14-.18-1.71-.27.05.79.08,1.59.08,2.39v2.68c.25.04.5.07.75.12,2.4.43,4.27.87,6.08,1.3,3,.71,5.59,1.33,9.4,1.58,1.06.07,2.12.1,3.18.1,1.58,0,3.16-.09,4.74-.24.03-.39.04-.78.04-1.17,0-1.3-.15-2.57-.43-3.81-2.4.24-4.81.28-7.2.13Z"/><path class="b" d="m142.53,150.09v-2c0-1.03-.05-2.04-.15-3.05-1.09-.1-2.18-.19-3.28-.25-.77,1.54-1.32,3.21-1.6,4.94,1.69.07,3.37.19,5.03.36Z"/><path class="b" d="m145.03,150.38c.84.11,1.67.25,2.5.39v-2.68c0-.8-.03-1.6-.08-2.39-.84-.13-1.68-.25-2.53-.36.07.91.12,1.83.12,2.75v2.29Z"/><path class="b" d="m142.53,150.09c.84.09,1.67.18,2.5.29v-2.29c0-.93-.05-1.84-.12-2.75-.84-.11-1.68-.21-2.53-.29.09,1,.15,2.02.15,3.05v2Z"/><path class="b" d="m173.83,148.33s-.03,0-.05,0c.28,1.33.44,2.71.44,4.13,0,.29-.01.58-.03.86.14-.02.28-.04.42-.06,1.09-.17,1.9-1.03,2.07-2.07-.02-.43-.06-.85-.11-1.27-.41-1.09-1.54-1.79-2.73-1.6Z"/><path class="b" d="m135.61,144.66c-1.37-.06-2.52,1.07-2.55,2.45-.02,1.2.8,2.21,1.92,2.48.25-1.72.73-3.36,1.4-4.9-.26,0-.51-.02-.77-.03Z"/><path class="b" d="m171.72,152.47c0,.39-.02.78-.04,1.17.84-.08,1.68-.18,2.52-.31.01-.29.03-.57.03-.86,0-1.42-.16-2.79-.44-4.13-.83.13-1.66.24-2.49.32.28,1.23.43,2.51.43,3.81Z"/><path class="b" d="m137.5,149.73c.28-1.73.83-3.4,1.6-4.94-.9-.05-1.81-.08-2.72-.11-.67,1.54-1.15,3.18-1.4,4.9.17.04.35.07.53.07.66.01,1.32.05,1.98.08Z"/><path class="b" d="m94.98,93.35c-.64.5-1.52.92-2.52,1.23l3.44-.05c-1.69,1.32-4.55,2.19-7.8,2.19-3.05,0-5.77-.77-7.49-1.96l3.53-.05c-1.04-.29-1.97-.68-2.68-1.18-.68-.47-1.62-.3-2.09.38-.47.68-.3,1.61.38,2.09,2.04,1.42,5.08,2.23,8.34,2.23,3.5,0,6.68-.92,8.72-2.51.65-.51.77-1.45.26-2.11-.51-.65-1.45-.77-2.11-.26Z"/><path class="b" d="m88.11,96.73c3.24,0,6.11-.87,7.8-2.19l-3.44.05c-1.29.41-2.8.64-4.35.64-1.4,0-2.76-.19-3.95-.52l-3.53.05c1.72,1.19,4.43,1.96,7.49,1.96Z"/></svg>