<?xml version="1.0" encoding="UTF-8"?><svg id="a" xmlns="http://www.w3.org/2000/svg" viewBox="0 0 200 200"><defs><style>.b{stroke-width:0px;}</style></defs><path class="b" d="m36.75,165.74h62.6c-.89,0-1.71-.47-2.16-1.23l-.74-1.27h-59.7v-15.15c0-14.11,9.13-26.27,22.33-31.92.42-1.16.97-2.27,1.63-3.3-15.46,5.48-26.46,19.2-26.46,35.22v15.15c0,1.38,1.12,2.5,2.5,2.5Z"/><path class="b" d="m70.31,112.51c.15-.53.32-1.05.51-1.56-1.3.45-2.68,1.14-3.94,2.29-.22.2-.44.41-.64.63,1.3-.29,2.64-.53,3.99-.7,0-.22.03-.44.09-.65Z"/><path class="b" d="m128.48,113.16c.55.07,1.09.15,1.62.24-.57-.38-1.16-.73-1.76-1.05.02.05.04.1.05.16.06.22.08.44.09.66Z"/><path class="b" d="m140.62,116.62c12.65,5.82,21.33,17.72,21.33,31.47v15.15h-59.7l-.74,1.27c-.45.76-1.27,1.23-2.16,1.23h62.6c1.38,0,2.5-1.12,2.5-2.5v-15.15c0-16.35-11.45-30.31-27.42-35.55,1.38,1.31,2.57,2.69,3.59,4.08Z"/><path class="b" d="m159.45,148.09v12.65h-55.74l-1.47,2.5h59.7v-15.15c0-13.75-8.68-25.65-21.33-31.47,1.01,1.39,1.86,2.79,2.56,4.18,9.8,5.88,16.27,15.91,16.27,27.29Z"/><path class="b" d="m127.32,115.31l-.32.2c2.54.25,5,.73,7.36,1.43-.58-.61-1.19-1.2-1.87-1.77-.76-.64-1.56-1.23-2.38-1.77-.54-.09-1.08-.17-1.62-.24,0,.85-.41,1.67-1.16,2.14Z"/><path class="b" d="m39.25,160.74v-12.65c0-12.4,7.69-23.21,19-28.78.18-1.08.46-2.13.83-3.14-13.19,5.64-22.33,17.81-22.33,31.92v15.15h59.7l-1.47-2.5h-55.74Z"/><path class="b" d="m71.71,115.51l-.32-.2c-.75-.47-1.17-1.29-1.16-2.14-1.35.17-2.68.4-3.99.7-.87.92-1.57,1.99-2.1,3.14,2.42-.73,4.96-1.24,7.57-1.49Z"/><path class="b" d="m122.03,105.71c.6-.44,1.38-.62,2.15-.41.29.08.58.18.86.26-.94-1.33-2.01-2.54-3.21-3.63-.54.63-1.1,1.24-1.69,1.82.61.56,1.25,1.2,1.88,1.96Z"/><path class="b" d="m76.68,105.71c.77-.92,1.55-1.68,2.28-2.31-.58-.59-1.14-1.21-1.67-1.85-1.27,1.11-2.4,2.35-3.4,3.71.49-.03.94-.05,1.33-.05.55,0,1.05.19,1.47.5Z"/><path class="b" d="m73.79,110.29c-.27.03-.56.07-.86.12.28-.02.55-.04.83-.05.01-.02.02-.05.03-.07Z"/><path class="b" d="m95.38,156.46h-1.1l.17-1.59c-6.05-10.31-12.09-20.62-18.14-30.92,1.66-1.8,3.33-3.59,4.99-5.39-1.73-1.08-3.46-2.17-5.18-3.25h-.45c-1.33,0-2.65.07-3.94.2l5.69,3.57-2.94,3.17c-.75.81-.88,2.01-.32,2.96l20.84,35.52h2.33l-.3-1.49c-.55-.93-1.09-1.86-1.64-2.79Z"/><path class="b" d="m122.6,115.32c-1.73,1.08-3.46,2.17-5.18,3.25,1.66,1.8,3.33,3.59,4.99,5.39-5.83,9.94-11.67,19.89-17.5,29.83l.28,2.67h-1.85c-.53.91-1.06,1.81-1.6,2.72-.11.52-.22,1.04-.33,1.56h2.31l20.84-35.52c.56-.95.43-2.16-.32-2.96l-2.94-3.17,5.69-3.57c-1.3-.13-2.61-.2-3.94-.2h-.45Z"/><path class="b" d="m125.91,112.92c.87.06,1.72.14,2.57.24,0-.22-.03-.44-.09-.66-.02-.05-.04-.1-.05-.16-1.01-.55-2.06-1.04-3.16-1.45.31.73.54,1.42.72,2.02Z"/><path class="b" d="m101.51,164.5l.74-1.27h-1.37c-.02.1-.04.2-.06.3-.14.7-.76,1.2-1.47,1.2s-1.33-.5-1.47-1.2l-.06-.3h-1.37l.74,1.27c.45.77,1.27,1.23,2.16,1.23s1.71-.47,2.16-1.23Z"/><path class="b" d="m70.23,113.16c.85-.11,1.71-.19,2.57-.24.22-.75.53-1.62.96-2.56-.28.01-.55.03-.83.05-.65.11-1.36.28-2.11.54-.19.51-.36,1.04-.51,1.56-.06.22-.08.44-.09.65Z"/><path class="b" d="m122.6,115.32h.45c1.33,0,2.65.07,3.94.2l.32-.2c.75-.47,1.17-1.29,1.16-2.14-.85-.11-1.71-.19-2.57-.24.03.09.06.18.08.27-1.13.71-2.26,1.42-3.39,2.12Z"/><path class="b" d="m101.41,160.74c-.17.83-.35,1.67-.52,2.5h1.37l1.47-2.5h-2.31Z"/><polygon class="b" points="97.32 160.74 94.99 160.74 96.45 163.24 97.82 163.24 97.32 160.74"/><path class="b" d="m76.11,115.32c-1.13-.71-2.26-1.42-3.39-2.12.02-.09.05-.18.08-.27-.87.06-1.72.14-2.57.24,0,.85.41,1.67,1.16,2.14l.32.2c1.3-.13,2.61-.2,3.94-.2h.45Z"/><path class="b" d="m75.66,110.32h.92c.23-.42.46-.84.72-1.24.96-1.49,2.14-2.82,3.5-3.96-.64-.55-1.25-1.12-1.84-1.72-.73.63-1.51,1.39-2.28,2.31.62.46,1.02,1.19,1.02,2.02,0,1.38-1.13,2.48-2.5,2.48-.02,0-.06,0-.08,0-.34,0-.8.02-1.32.07-.01.02-.02.05-.03.07.63-.03,1.26-.04,1.9-.04Z"/><path class="b" d="m121.41,109.07c.26.4.49.82.72,1.24h.92c.15,0,.3,0,.46.01-.22-.07-.44-.14-.67-.2-1.33-.37-2.11-1.75-1.74-3.08.16-.56.49-1.01.93-1.33-.63-.76-1.27-1.4-1.88-1.96-.6.59-1.22,1.16-1.87,1.69,1.2,1.07,2.26,2.27,3.13,3.62Z"/><path class="b" d="m101.73,159.18c.53-.91,1.06-1.81,1.6-2.72h-1.03c-.2.91-.38,1.81-.57,2.72Z"/><path class="b" d="m95.38,156.46c.55.93,1.09,1.86,1.64,2.79l-.57-2.79h-1.07Z"/><path class="b" d="m114.93,118.24c-.1.74.14,1.48.64,2.03l3.73,4.02-14.85,25.3.44,4.19c5.83-9.94,11.67-19.89,17.5-29.83-1.66-1.8-3.33-3.59-4.99-5.39,1.73-1.08,3.46-2.17,5.18-3.25h-4.71l-1.8,1.13c-.63.4-1.05,1.05-1.15,1.79Z"/><path class="b" d="m79.4,124.29l3.73-4.02c.51-.55.74-1.29.64-2.03-.1-.74-.52-1.39-1.15-1.79l-1.8-1.13h-4.71c1.73,1.08,3.46,2.17,5.18,3.25-1.66,1.8-3.33,3.59-4.99,5.39,6.05,10.31,12.09,20.62,18.14,30.92l.44-4.19-15.49-26.39Z"/><path class="b" d="m121.88,112.82h1.17c.96,0,1.91.04,2.85.1-.18-.61-.42-1.29-.72-2.02-.55-.21-1.11-.4-1.68-.57-.15,0-.3-.01-.46-.01h-.92c.31.59.61,1.19.85,1.81l-1.11.69Z"/><path class="b" d="m76.83,112.82l-1.11-.69c.25-.62.54-1.22.85-1.81h-.92c-.64,0-1.27.02-1.9.04-.42.94-.73,1.81-.96,2.56.94-.06,1.89-.1,2.85-.1h1.17Z"/><path class="b" d="m76.11,115.32h4.71l-3.99-2.5h-1.17c-.96,0-1.91.04-2.85.1-.03.09-.06.18-.08.27,1.13.71,2.26,1.42,3.39,2.12Z"/><path class="b" d="m121.88,112.82l-3.99,2.5h4.71c1.13-.71,2.26-1.42,3.39-2.12-.02-.09-.05-.18-.08-.27-.94-.06-1.89-.1-2.85-.1h-1.17Z"/><path class="b" d="m112.6,110.32c.09-.44.19-.88.28-1.32-.97.49-1.97.94-3,1.32h2.72Z"/><path class="b" d="m86.85,109.13l.24,1.19h2.49c-.94-.35-1.85-.75-2.73-1.19Z"/><path class="b" d="m103.28,138.33l.97,9.28c.91-4.07,1.84-8.12,2.76-12.11,1.52-6.62,3.07-13.41,4.54-20.18h-3.07c-1.42,6.55-2.92,13.11-4.39,19.51-.27,1.16-.53,2.33-.8,3.5Z"/><polygon class="b" points="99.35 158.3 100.43 156.46 98.28 156.46 99.35 158.3"/><polygon class="b" points="91.16 115.32 88.1 115.32 95.02 149.41 96.06 139.45 91.16 115.32"/><path class="b" d="m109.51,110.45c-.17.79-.33,1.58-.49,2.37h3.06c.18-.83.35-1.67.52-2.5h-2.72c-.12.05-.25.09-.37.13Z"/><path class="b" d="m90.19,110.53c-.2-.07-.41-.14-.61-.22h-2.49l.51,2.5h3.06l-.46-2.28Z"/><path class="b" d="m108.48,115.32h3.07c.18-.83.35-1.67.53-2.5h-3.06c-.18.83-.36,1.67-.54,2.5Z"/><polygon class="b" points="91.16 115.32 90.66 112.82 87.6 112.82 88.1 115.32 91.16 115.32"/><path class="b" d="m97.01,159.25l.3,1.49h.57c-.29-.5-.58-.99-.87-1.49Z"/><path class="b" d="m100.82,160.74h.59c.11-.52.22-1.04.33-1.56-.3.52-.61,1.04-.91,1.56Z"/><path class="b" d="m97.82,163.24l.06.3c.14.7.76,1.2,1.47,1.2s1.33-.5,1.47-1.2c.02-.1.04-.2.06-.3h-3.06Z"/><path class="b" d="m100.82,160.74c-.49.83-.98,1.67-1.47,2.5h1.53c.17-.83.35-1.67.52-2.5h-.59Z"/><path class="b" d="m97.89,160.74h-.57l.51,2.5h1.53c-.49-.83-.98-1.67-1.47-2.5Z"/><path class="b" d="m102.3,156.46h-1.87l-1.08,1.84-1.08-1.84h-1.83l.57,2.79c.29.5.58.99.87,1.49h2.93c.3-.52.61-1.04.91-1.56.19-.91.37-1.81.57-2.72Z"/><path class="b" d="m99.35,163.24c.49-.83.98-1.67,1.47-2.5h-2.93c.49.83.98,1.67,1.47,2.5Z"/><path class="b" d="m126.94,77.45c-.2,0-.4-.03-.6-.08v5.65c0,6.62-2.42,12.67-6.43,17.33.67.49,1.31,1.02,1.92,1.58,4.36-5.09,7-11.7,7-18.91v-6.48c-.47.56-1.14.9-1.88.91h-.02Z"/><path class="b" d="m73.12,83.03v-6.52c-.22.06-.44.1-.67.1-.02,0-.04,0-.06,0-.68-.02-1.31-.32-1.77-.82v7.24c0,7.03,2.5,13.48,6.67,18.52.62-.54,1.27-1.06,1.96-1.54-3.83-4.61-6.13-10.53-6.13-16.99Z"/><path class="b" d="m109.54,110.32c.19-.93.39-1.85.58-2.78-3.19,1.35-6.7,2.1-10.39,2.1h0c-3.58,0-7-.71-10.12-2l.54,2.67h19.39Z"/><path class="b" d="m86.5,107.39c-.08-.41.01-.82.23-1.14-1.42-.8-2.76-1.71-4-2.75-.16.22-.35.42-.59.59-.47.32-.91.67-1.35,1.03,1.84,1.58,3.87,2.93,6.06,4.01l-.35-1.74Z"/><path class="b" d="m113.21,107.39c-.11.53-.23,1.07-.34,1.6,1.93-.98,3.75-2.17,5.4-3.54-.54-.48-1.11-.94-1.71-1.36-.1-.07-.19-.15-.27-.23-1.07.85-2.2,1.62-3.39,2.3.27.34.4.78.31,1.24Z"/><path class="b" d="m109.51,110.45s.02-.09.03-.13h-19.39l.04.22c2.99,1.04,6.2,1.61,9.54,1.61s6.72-.6,9.78-1.69Z"/><path class="b" d="m118.2,102.18c.57.41,1.24.93,1.95,1.57.59-.58,1.15-1.19,1.69-1.82-.61-.56-1.25-1.08-1.92-1.58-.54.63-1.12,1.24-1.72,1.82Z"/><path class="b" d="m80.72,102.03h.38c-.65-.64-1.28-1.31-1.86-2.02-.69.48-1.34.99-1.96,1.54.53.64,1.09,1.26,1.67,1.85.65-.56,1.25-1.02,1.76-1.37Z"/><path class="b" d="m82.14,104.09c.24-.16.43-.37.59-.59-.56-.47-1.1-.96-1.62-1.47h-.38c-.51.35-1.12.81-1.76,1.37.59.6,1.2,1.17,1.84,1.72.43-.36.88-.71,1.35-1.03Z"/><path class="b" d="m116.57,104.09c.61.42,1.17.88,1.71,1.36.65-.54,1.27-1.1,1.87-1.69-.71-.65-1.38-1.17-1.95-1.57-.61.59-1.24,1.14-1.91,1.67.09.08.17.16.27.23Z"/><path class="b" d="m90.15,110.32l-.54-2.67c-.99-.41-1.95-.88-2.88-1.4-.22.32-.31.73-.23,1.14l.35,1.74c.89.44,1.8.84,2.73,1.19h.57Z"/><path class="b" d="m109.88,110.32c1.03-.38,2.03-.83,3-1.32.11-.53.23-1.07.34-1.6.09-.46-.04-.9-.31-1.24-.9.51-1.83.98-2.79,1.39-.19.92-.39,1.85-.58,2.78h.34Z"/><path class="b" d="m109.88,110.32h-.34s-.02.09-.03.13c.12-.04.25-.09.37-.13Z"/><path class="b" d="m89.58,110.32c.2.08.41.14.61.22l-.04-.22h-.57Z"/><path class="b" d="m115.49,102.03c0-.31.06-.63.18-.93-.36.32-.74.63-1.12.93h.94Z"/><path class="b" d="m124.84,76.31c-.35-.54-.67-1.1-1-1.66v8.38c0,6.45-2.55,12.32-6.7,16.65.73-.26,1.58-.19,2.26.29.18.12.34.26.51.39,4-4.66,6.43-10.71,6.43-17.33v-5.65c-.61-.15-1.15-.53-1.5-1.07Z"/><path class="b" d="m82.77,100.61c.3.43.44.93.44,1.42h1.69c-5.65-4.42-9.29-11.29-9.29-19v-8.86c-.41.54-.84,1.08-1.29,1.59-.32.37-.75.62-1.21.74v6.52c0,6.46,2.3,12.38,6.13,16.99.02-.01.04-.03.05-.04,1.13-.78,2.69-.5,3.48.64Z"/><path class="b" d="m87.67,105.62c.8-.16,1.6.36,1.77,1.17l.17.85c3.12,1.28,6.54,2,10.12,2h0c3.69,0,7.19-.75,10.39-2.1.05-.25.11-.5.16-.75.16-.81.96-1.34,1.77-1.17.36.07.65.27.86.53,1.19-.68,2.32-1.45,3.39-2.3-.52-.48-.8-1.14-.8-1.82h-.94c-4.09,3.2-9.24,5.11-14.82,5.11s-10.73-1.91-14.82-5.11h-1.69c0,.53-.17,1.04-.49,1.47,1.24,1.03,2.58,1.95,4,2.75.21-.31.54-.55.94-.63Z"/><path class="b" d="m117.14,99.68c-.47.49-.96.97-1.47,1.42-.12.3-.18.62-.18.93h2.5c.07.05.14.1.21.15.6-.58,1.17-1.19,1.72-1.82-.17-.13-.33-.27-.51-.39-.69-.48-1.53-.55-2.26-.29Z"/><path class="b" d="m82.77,100.61c-.79-1.14-2.34-1.42-3.48-.64-.02.01-.04.03-.05.04.58.7,1.21,1.38,1.86,2.02h2.11c0-.49-.14-.99-.44-1.42Z"/><path class="b" d="m115.49,102.03c0,.68.28,1.34.8,1.82.66-.53,1.3-1.09,1.91-1.67-.07-.05-.14-.11-.21-.15h-2.5Z"/><path class="b" d="m83.22,102.03h-2.11c.52.51,1.06,1,1.62,1.47.32-.43.49-.95.49-1.47Z"/><path class="b" d="m89.44,106.79c-.16-.81-.96-1.33-1.77-1.17-.4.08-.73.32-.94.63.93.52,1.89.99,2.88,1.4l-.17-.85Z"/><path class="b" d="m112.04,105.62c-.81-.17-1.6.36-1.77,1.17-.05.25-.11.5-.16.75.96-.41,1.89-.88,2.79-1.39-.21-.26-.51-.46-.86-.53Z"/><path class="b" d="m69.78,70.15c-2.34-4.13-3.35-8.17-3.79-11.42-.12,0-.25,0-.37,0-1.31-.06-2.33-1.12-2.37-2.42,0,.02,0,.05,0,.07.33,5.44,1.79,10.49,4.36,15.01.85,1.49,1.82,2.93,2.89,4.28.04.05.08.08.12.12v-4.25c-.28-.44-.57-.9-.84-1.38Z"/><path class="b" d="m81.16,57.57c-.83.16-1.66.31-2.5.44-.03,2.1-.33,4.79-1.36,7.76-.49,1.43-1.08,2.69-1.69,3.81v4.58c1.74-2.3,3.11-4.83,4.05-7.57,1-2.88,1.5-5.96,1.49-9.02Z"/><path class="b" d="m72.45,76.61c.23,0,.45-.04.67-.1v-3.19c-.23.29-.46.56-.67.79-.61-.77-1.23-1.63-1.83-2.57v4.25c.46.5,1.09.8,1.77.82.02,0,.04,0,.06,0Z"/><path class="b" d="m75.62,74.17v-4.58c-.84,1.54-1.73,2.78-2.5,3.73v3.19c.46-.13.89-.38,1.21-.74.45-.52.88-1.05,1.29-1.59Z"/><path class="b" d="m68.53,58.79c-.85,0-1.69-.02-2.54-.06.43,3.25,1.44,7.29,3.79,11.42.27.48.56.94.84,1.38v-5.31c-1.01-2.34-1.71-4.82-2.09-7.43Z"/><path class="b" d="m78.66,58.02c-.83.13-1.67.25-2.51.35-.05,1.42-.23,2.84-.54,4.23v7c.61-1.12,1.2-2.38,1.69-3.81,1.03-2.97,1.33-5.66,1.36-7.76Z"/><path class="b" d="m72.53,69.89c-.2-.32-.39-.64-.58-.97-.5-.87-.94-1.77-1.34-2.7v5.31c.6.94,1.22,1.8,1.83,2.57.21-.23.43-.51.67-.79v-4.38c-.19.32-.38.65-.59.96Z"/><path class="b" d="m75.62,62.59c-.18.8-.4,1.6-.67,2.37-.48,1.39-1.1,2.71-1.83,3.97v4.38c.77-.95,1.66-2.19,2.5-3.73v-7Z"/><path class="b" d="m118.98,55.23c-.53-.23-1.07-.45-1.6-.7-.4-.19-.79-.39-1.18-.59.11.68.23,1.36.37,2.04l2.55-.02c-.05-.24-.1-.49-.15-.72Z"/><path class="b" d="m136.19,56.58c0-.06,0-.12,0-.18,0,.11-.01.23-.03.34,0-.05.02-.1.03-.15Z"/><path class="b" d="m133.56,58.72c-.09,0-.17-.02-.26-.03-.57,2.94-1.51,6.34-3.07,9.95-.45,1.03-.91,2-1.38,2.92v4.98c.08-.09.16-.18.23-.28,1.31-2.12,2.47-4.35,3.45-6.63,1.77-4.1,2.99-8.44,3.64-12.9-.1.5-.36.96-.74,1.31-.5.47-1.17.71-1.87.67Z"/><path class="b" d="m119.13,55.95l-2.55.02c.51,2.5,1.16,4.97,1.98,7.37,1.34,3.94,3.13,7.73,5.28,11.31v-5.15c-1.03-2.07-2.03-4.39-2.91-6.97-.8-2.34-1.37-4.53-1.8-6.58Z"/><path class="b" d="m126.94,74.95c-.2-.31-.4-.63-.6-.96v3.38c.19.05.39.08.6.08h.02c.74,0,1.41-.35,1.88-.91v-4.98c-.63,1.22-1.27,2.36-1.9,3.38Z"/><path class="b" d="m123.84,74.65c.33.55.65,1.11,1,1.66.35.54.89.92,1.5,1.07v-3.38c-.82-1.33-1.67-2.82-2.5-4.49v5.15Z"/><path class="b" d="m128.84,65.33v6.24c.47-.92.94-1.89,1.38-2.92,1.56-3.61,2.5-7.01,3.07-9.95-.84-.06-1.67-.14-2.51-.24-.47,2.35-1.12,4.64-1.94,6.88Z"/><path class="b" d="m120.73,55.94c-.59-.22-1.17-.46-1.75-.71.05.24.1.48.15.72h1.6Z"/><path class="b" d="m121.77,56.32c-.35-.12-.69-.25-1.04-.38h-1.6c.43,2.06,1,4.26,1.8,6.59.88,2.58,1.88,4.9,2.91,6.97v-6.28c-.19-.5-.37-.99-.55-1.5-.6-1.77-1.11-3.58-1.53-5.41Z"/><path class="b" d="m127.93,67.66c-.33.76-.68,1.52-1.05,2.27-.19-.34-.36-.7-.54-1.05v5.11c.2.33.4.65.6.96.63-1.03,1.27-2.16,1.9-3.38v-6.24c-.29.78-.58,1.56-.91,2.33Z"/><path class="b" d="m123.84,63.22v6.28c.83,1.67,1.68,3.16,2.5,4.49v-5.11c-.94-1.84-1.78-3.73-2.5-5.66Z"/><polygon class="b" points="102.18 127.75 102.44 130.24 104.17 130.24 105.18 122.86 94.28 122.86 95.29 130.24 97.02 130.24 97.28 127.75 102.18 127.75"/><path class="b" d="m104.46,149.59l-.21-1.98c-.28,1.25-.56,2.5-.84,3.76l1.04-1.78Z"/><path class="b" d="m97.02,130.24l-.96,9.21,3.32,16.35c1.26-5.85,2.59-11.71,3.91-17.47l-.85-8.09h-5.42Z"/><polygon class="b" points="94.88 150.68 95.48 151.7 95.02 149.41 94.88 150.68"/><path class="b" d="m94.28,156.46h1.1c-.31-.53-.62-1.06-.93-1.59l-.17,1.59Z"/><path class="b" d="m105.18,156.46l-.28-2.67c-.52.89-1.05,1.78-1.57,2.67h1.85Z"/><path class="b" d="m103.42,151.37c-.37,1.7-.75,3.39-1.11,5.09h1.03c.52-.89,1.05-1.78,1.57-2.67l-.44-4.19-1.04,1.78Z"/><path class="b" d="m95.48,151.7l-.6-1.02-.44,4.19c.31.53.62,1.06.93,1.59h1.07l-.97-4.76Z"/><path class="b" d="m104.25,147.61l-.97-9.28c-1.32,5.76-2.65,11.62-3.91,17.47l-3.32-16.35-1.04,9.96.47,2.29,2.79,4.76h2.16l2.99-5.09c.28-1.26.55-2.51.84-3.76Z"/><path class="b" d="m100.43,156.46h1.87c.36-1.7.74-3.39,1.11-5.09l-2.99,5.09Z"/><polygon class="b" points="96.45 156.46 98.28 156.46 95.48 151.7 96.45 156.46"/><polygon class="b" points="102.18 127.75 97.28 127.75 97.02 130.24 102.44 130.24 102.18 127.75"/><rect class="b" x="124.66" y="149.05" width="5.32" height="6.09"/><rect class="b" x="124.66" y="137.64" width="5.32" height="6.09"/><rect class="b" x="118.57" y="143.73" width="6.09" height="5.32"/><rect class="b" x="129.98" y="143.73" width="6.09" height="5.32"/><rect class="b" x="124.66" y="143.73" width="5.32" height="5.32"/><path class="b" d="m63.48,127.4c6.08.89,10.75,6.11,10.75,12.44v12.59h-7.63c0,1.38,1.12,2.5,2.5,2.5h5.13c1.38,0,2.5-1.12,2.5-2.5v-12.59c0-7.79-5.94-14.23-13.53-15.01.08.45.16.89.28,1.34.11.42.1.84,0,1.23Z"/><path class="b" d="m49.04,152.43v-12.59c0-5.94,4.12-10.91,9.66-12.23-.02-.05-.04-.1-.06-.16-.2-.76-.35-1.52-.46-2.28-6.66,1.57-11.64,7.54-11.64,14.68v12.59c0,1.38,1.12,2.5,2.5,2.5h5.25c1.38,0,2.5-1.12,2.5-2.5h0s-2.5,0-2.5,0h-5.25Z"/><path class="b" d="m74.22,152.43v-12.59c0-6.33-4.67-11.55-10.75-12.44-.21.86-.86,1.58-1.78,1.82-.21.06-.43.08-.64.08-1.05,0-2.01-.67-2.36-1.7-5.54,1.32-9.66,6.29-9.66,12.23v12.59h7.75c0-1.38-1.12-2.5-2.5-2.5h-2.75v-10.09c0-5.56,4.53-10.09,10.09-10.09s10.09,4.53,10.09,10.09v10.09h-2.63c-1.38,0-2.5,1.12-2.5,2.5h7.63Z"/><path class="b" d="m146.51,132.54c1.9.91,3.22,2.84,3.22,5.09,0,3.12-2.53,5.65-5.65,5.65s-5.65-2.53-5.65-5.65c0-2.25,1.32-4.18,3.22-5.09-.02-.07-.04-.15-.05-.22-.08-.61-.21-1.39-.41-2.29-3.07,1.17-5.26,4.13-5.26,7.61,0,4.49,3.66,8.15,8.15,8.15s8.15-3.65,8.15-8.15c0-3.74-2.53-6.89-5.97-7.84.13.67.23,1.3.31,1.86.04.31.02.6-.05.89Z"/><path class="b" d="m138.43,137.64c0,3.12,2.53,5.65,5.65,5.65s5.65-2.53,5.65-5.65c0-2.25-1.32-4.18-3.22-5.09-.23.99-1.04,1.78-2.1,1.92-.11.01-.22.02-.33.02,1.73,0,3.14,1.41,3.14,3.15s-1.41,3.15-3.15,3.15-3.15-1.41-3.15-3.15,1.41-3.14,3.14-3.15c-1.16,0-2.16-.81-2.42-1.95-1.9.91-3.22,2.84-3.22,5.09Z"/><path class="b" d="m73.1,106.36c.24-.38.52-.73.79-1.09-2.74.19-6.8,1.05-10.36,4.26-1.1.99-2.03,2.12-2.82,3.35,3.24-1.15,6.68-1.94,10.26-2.31.56-1.47,1.27-2.88,2.12-4.21Z"/><path class="b" d="m58.19,125.17c1.11-.26,2.26-.41,3.45-.41.53,0,1.05.03,1.56.08-.47-2.77-.12-5.49.94-7.83-2.05.62-4.02,1.39-5.89,2.31-.32,1.89-.35,3.87-.07,5.86Z"/><path class="b" d="m66.24,113.86c.21-.22.42-.43.64-.63,1.26-1.14,2.64-1.84,3.94-2.29.05-.13.1-.25.15-.38-3.58.37-7.02,1.16-10.26,2.31-.66,1.04-1.21,2.14-1.63,3.3,2.27-.97,4.67-1.75,7.16-2.31Z"/><path class="b" d="m64.14,117.01c.53-1.16,1.23-2.22,2.1-3.14-2.49.56-4.88,1.34-7.16,2.31-.37,1.01-.64,2.06-.83,3.14,1.87-.92,3.84-1.69,5.89-2.31Z"/><path class="b" d="m70.97,110.56c.65-.07,1.3-.12,1.96-.16.3-.05.59-.09.86-.12.37-.82.83-1.68,1.41-2.57.48-.74.98-1.4,1.48-2-.41-.3-.92-.49-1.47-.5-.39,0-.84.02-1.33.05-.27.36-.54.71-.79,1.09-.86,1.32-1.56,2.74-2.12,4.21Z"/><path class="b" d="m70.97,110.56c-.05.13-.1.25-.15.38.75-.26,1.46-.43,2.11-.54-.66.04-1.31.09-1.96.16Z"/><path class="b" d="m75.2,110.21c1.37,0,2.49-1.11,2.5-2.48,0-.83-.4-1.56-1.02-2.02-.5.6-1,1.27-1.48,2-.58.89-1.03,1.76-1.41,2.57.52-.05.98-.07,1.32-.07.03,0,.06,0,.08,0Z"/><path class="b" d="m58.19,125.17c.11.76.26,1.52.46,2.28.01.06.04.11.06.16.94-.23,1.92-.36,2.93-.36h0c.63,0,1.24.06,1.84.15.1-.39.11-.81,0-1.23-.12-.45-.21-.89-.28-1.34-.51-.05-1.03-.08-1.56-.08-1.19,0-2.34.15-3.45.41Z"/><path class="b" d="m61.06,129.31c.21,0,.43-.03.64-.08.92-.24,1.57-.97,1.78-1.82-.6-.09-1.22-.15-1.84-.15h0c-1.01,0-1.99.13-2.93.36.35,1.03,1.31,1.7,2.36,1.7Z"/><path class="b" d="m127.74,110.56c3.22.33,6.34,1,9.3,1.97-.42-.4-.86-.8-1.32-1.19-3.11-2.62-6.69-4.55-10.66-5.78.19.26.39.51.56.79.85,1.32,1.56,2.73,2.12,4.21Z"/><path class="b" d="m144.08,129.49c.75,0,1.48.11,2.17.3-.48-2.5-1.38-5.69-3.06-8.99-2.71-1.63-5.68-2.93-8.83-3.86,4.26,4.43,6.07,9.66,6.83,13.09.9-.34,1.87-.54,2.89-.54Z"/><path class="b" d="m128.34,112.35c.6.33,1.19.68,1.76,1.05,3.72.62,7.25,1.71,10.52,3.22-1.02-1.4-2.21-2.77-3.59-4.08-2.96-.97-6.07-1.64-9.3-1.97.22.59.43,1.18.61,1.79Z"/><path class="b" d="m134.35,116.94c3.15.93,6.12,2.23,8.83,3.86-.71-1.39-1.55-2.79-2.56-4.18-3.27-1.5-6.8-2.6-10.52-3.22.83.54,1.62,1.13,2.38,1.77.68.57,1.29,1.16,1.87,1.77Z"/><path class="b" d="m122.03,105.71c.5.6,1,1.27,1.48,2,.59.92,1.06,1.81,1.44,2.65.94.04,1.87.11,2.79.2-.56-1.47-1.27-2.89-2.12-4.21-.18-.27-.38-.52-.56-.79-.29-.09-.57-.18-.86-.26-.77-.21-1.55-.04-2.15.41Z"/><path class="b" d="m128.34,112.35c-.18-.61-.38-1.2-.61-1.79-.92-.1-1.85-.17-2.79-.2.08.18.16.36.23.54,1.09.42,2.15.9,3.16,1.45Z"/><path class="b" d="m121.1,107.04c-.37,1.33.41,2.71,1.74,3.08.23.06.44.14.67.2.48,0,.96.01,1.44.03-.38-.84-.85-1.73-1.44-2.65-.48-.74-.98-1.4-1.48-2-.43.32-.77.77-.93,1.33Z"/><path class="b" d="m125.18,110.9c-.07-.18-.15-.36-.23-.54-.48-.02-.96-.03-1.44-.03.57.17,1.13.36,1.68.57Z"/><polygon class="b" points="144.07 134.49 144.07 134.49 144.08 134.49 144.08 134.49 144.07 134.49"/><path class="b" d="m141.19,130.03c.2.91.33,1.69.41,2.29.01.08.03.15.05.22.74-.35,1.56-.55,2.43-.55s1.69.2,2.43.56c.06-.28.09-.58.05-.89-.08-.56-.18-1.19-.31-1.86-.69-.19-1.42-.3-2.17-.3-1.02,0-1.99.2-2.89.54Z"/><path class="b" d="m144.07,134.49s0,0,0,0c0,0,0,0,0,0,.11,0,.22,0,.33-.02,1.06-.14,1.87-.94,2.1-1.92-.74-.35-1.56-.56-2.43-.56s-1.69.2-2.43.55c.26,1.14,1.27,1.95,2.42,1.95Z"/><path class="b" d="m81.13,56.24l5.64-.04c.85-.25,1.7-.52,2.55-.8,6.08-2.08,11.7-5.03,16.75-8.8,2.96,2.93,6.36,5.39,10.14,7.34-.07-.44-.16-.87-.22-1.3-.08-.54.03-1.06.26-1.5-4.84-2.7-8.07-5.83-9.93-7.89-3.55,2.87-9.48,6.94-17.81,9.79-2.6.89-5.1,1.54-7.48,2.03.01.08.04.16.04.24.03.32.04.63.06.95Z"/><path class="b" d="m136.22,56.23c0-.05,0-.1,0-.15,0,.1,0,.21-.01.32,0-.06.02-.11.02-.17Z"/><path class="b" d="m65.59,53.73c.09,0,.18,0,.27.01,1.38-16.2,16.13-29.13,33.87-29.13,17.74,0,32.48,12.92,33.87,29.12.16,0,.31,0,.47.02,1.2.17,2.07,1.16,2.14,2.32-.09-18.74-16.42-33.96-36.49-33.96h0c-9.65,0-18.78,3.54-25.69,9.97-6.96,6.48-10.8,15.05-10.8,24.14,0,.03,0,.05,0,.08-.04-1.35.99-2.49,2.34-2.57Z"/><path class="b" d="m81.16,57.57c1.89-.37,3.76-.83,5.61-1.38l-5.64.04c.02.44.03.89.03,1.33Z"/><path class="b" d="m76.12,56.28c0-.14-.01-.29-.03-.43-.17.02-.35.04-.52.06.02.12.04.25.04.37h.51Z"/><path class="b" d="m70.62,58.76v-2.46s0-.02,0-.03c-.83.03-1.63.04-2.37.03.06.85.15,1.68.27,2.5.06,0,.11,0,.17,0,.64,0,1.28-.02,1.92-.04Z"/><path class="b" d="m75.61,56.28s0,.01,0,.02v2.12c.18-.02.36-.04.54-.06.02-.7.01-1.39-.03-2.08h-.51Z"/><path class="b" d="m75.61,56.28c0-.13-.02-.25-.04-.37-1.58.18-3.08.29-4.46.34-.17,0-.33,0-.5.01,0,.01,0,.02,0,.03v2.46c.2,0,.4,0,.6-.01.64-.02,1.27-.07,1.9-.11v-2.34l2.5-.02Z"/><path class="b" d="m75.61,56.28l-2.5.02v2.34c.84-.06,1.67-.13,2.5-.22v-2.12s0-.01,0-.02Z"/><path class="b" d="m65.62,58.73c.12,0,.25,0,.37,0-.12-.9-.2-1.75-.25-2.51,0-.84.05-1.66.12-2.48-.09,0-.18-.02-.27-.01-1.35.08-2.38,1.23-2.34,2.57.04,1.3,1.07,2.36,2.37,2.42Z"/><path class="b" d="m78.58,55.5c.02.23.04.49.05.75l2.5-.02c-.02-.32-.03-.63-.06-.95,0-.08-.03-.16-.04-.24-.86.17-1.69.32-2.51.46h.07Z"/><path class="b" d="m78.63,56.26c.03.52.04,1.11.03,1.76.84-.13,1.67-.28,2.5-.44,0-.44-.01-.89-.03-1.33l-2.5.02Z"/><path class="b" d="m68.25,56.3c-.91,0-1.75-.03-2.51-.07.05.76.13,1.61.25,2.51.84.04,1.69.06,2.54.06-.12-.82-.21-1.65-.27-2.5Z"/><path class="b" d="m78.63,56.26c-.01-.27-.03-.52-.05-.75h-.07c-.83.14-1.63.25-2.42.34.01.14.02.29.03.43l2.51-.02Z"/><path class="b" d="m76.12,56.28c.04.69.05,1.39.03,2.08.84-.1,1.68-.21,2.51-.35,0-.64,0-1.24-.03-1.76l-2.51.02Z"/><path class="b" d="m123.84,55.91v-.02c0-.51.15-.99.42-1.38-.99-.3-2.01-.65-3.06-1.06.14.83.31,1.65.49,2.47l2.16-.02Z"/><path class="b" d="m128.84,55.9v2.25c.65.11,1.29.23,1.94.31.16-.82.32-1.64.44-2.46-.74-.09-1.55-.22-2.41-.37.01.09.03.18.03.28Z"/><path class="b" d="m121.69,55.93c.03.13.05.26.08.39.68.24,1.38.46,2.07.66v-1.07l-2.16.02Z"/><path class="b" d="m123.84,55.91l2.5-.02v1.74c.53.12,1.06.26,1.6.36.3.06.6.09.9.14v-2.25c0-.1-.02-.19-.03-.28-.13-.02-.26-.04-.39-.07-1.29-.25-2.69-.59-4.16-1.03-.26.4-.42.87-.42,1.38v.02Z"/><path class="b" d="m123.84,55.91v1.07c.83.24,1.66.46,2.5.66v-1.74l-2.5.02Z"/><path class="b" d="m115.99,52.63c.06.44.15.87.22,1.3.39.2.78.4,1.18.59.52.25,1.06.47,1.6.7-.2-1.03-.38-2.03-.52-2.96-.77-.37-1.51-.75-2.22-1.15-.23.45-.34.97-.26,1.5Z"/><path class="b" d="m134.08,53.75c-.16-.02-.32-.03-.47-.02.07.82.12,1.66.12,2.5-.11.78-.25,1.61-.42,2.47.09,0,.17.02.26.03.7.04,1.37-.2,1.87-.67.38-.35.63-.81.74-1.31,0,0,0,0,0,0,.02-.11.03-.22.03-.34,0-.11.02-.22.01-.32h0c-.07-1.16-.94-2.15-2.14-2.33Z"/><path class="b" d="m130.79,58.46c.84.11,1.67.18,2.51.24.17-.86.31-1.69.42-2.47-.72-.05-1.57-.12-2.5-.24-.12.83-.27,1.65-.44,2.46Z"/><path class="b" d="m121.69,55.93c-.18-.82-.35-1.65-.49-2.47-.9-.35-1.81-.74-2.73-1.19h0c.13.93.31,1.93.52,2.96.58.25,1.16.49,1.75.71h.95Z"/><path class="b" d="m120.73,55.94c.34.13.69.26,1.04.38-.03-.13-.05-.26-.08-.39h-.95Z"/><path class="b" d="m68.24,56.08s0,0,0,0l2.42-.14c.17-1.21,1.2-2.15,2.46-2.15,1.16,0,2.13.8,2.41,1.88l.56-.03c-.08-1.34.93-2.52,2.28-2.63,1.3-.11,2.43.79,2.66,2.04,2.38-.48,4.88-1.14,7.48-2.03,8.33-2.85,14.26-6.92,17.81-9.79,1.86,2.06,5.08,5.19,9.93,7.89.36-.69,1.03-1.21,1.86-1.33,1.36-.2,2.63.75,2.83,2.12.05.35.12.7.18,1.04l3.71.96c.42-.33.94-.53,1.52-.53,1.03,0,1.92.62,2.3,1.52l2.67.69c.27-1.06,1.21-1.82,2.29-1.87-1.39-16.19-16.13-29.12-33.87-29.12-17.75,0-32.49,12.93-33.87,29.13,1.3.06,2.3,1.04,2.38,2.33Zm9.21-20.33c5.99-5.57,13.9-8.63,22.29-8.63,16.35,0,29.83,11.58,31.35,26.34-.73-.1-1.46-.22-2.18-.36-3.26-.63-6.41-1.67-9.35-3.08-4.38-2.1-8.21-4.94-11.36-8.45-.89-.99-2.39-1.11-3.43-.27-5.05,4.08-10.79,7.23-17.05,9.37-5.35,1.83-10.96,2.87-16.68,3.09-.89.03-1.78.05-2.67.04.61-6.78,3.79-13.11,9.1-18.05Z"/><path class="b" d="m73.12,53.8c-1.26,0-2.29.94-2.46,2.15l4.88-.28c-.28-1.08-1.25-1.88-2.41-1.88Z"/><path class="b" d="m126.34,53.4c-.57,0-1.1.2-1.52.53l3.82.99c-.38-.89-1.27-1.52-2.3-1.52Z"/><path class="b" d="m70.65,55.95l-2.42.14c0,.07.01.14.02.21.74,0,1.54,0,2.37-.03,0-.11.02-.21.03-.31Z"/><path class="b" d="m76.1,55.85s0-.09,0-.13c0-.02,0-.05,0-.07l-.56.03c.02.08.04.15.05.23.17-.02.35-.04.52-.06Z"/><path class="b" d="m71.12,56.25c1.38-.05,2.88-.17,4.46-.34-.01-.08-.03-.16-.05-.23l-4.88.28c-.01.1-.03.21-.03.31.17,0,.33,0,.5-.01Z"/><path class="b" d="m81.03,55.05c-.23-1.25-1.36-2.15-2.66-2.04-1.35.12-2.35,1.29-2.28,2.63l2.42-.14c.82-.13,1.66-.28,2.51-.46Z"/><path class="b" d="m68.24,56.08c-.08-1.29-1.08-2.27-2.38-2.33-.07.82-.12,1.65-.12,2.48l2.5-.14s0,0,0,0Z"/><path class="b" d="m68.24,56.09l-2.5.14c.76.04,1.6.06,2.51.07,0-.07-.01-.14-.02-.21Z"/><path class="b" d="m76.1,55.85c.79-.09,1.59-.21,2.42-.34l-2.42.14s0,.05,0,.07c0,.04,0,.09,0,.13Z"/><path class="b" d="m124.26,54.51c.15-.23.35-.42.56-.59l-3.71-.96c.03.17.05.33.08.5,1.05.41,2.07.76,3.06,1.06Z"/><path class="b" d="m131.22,55.99s.02-.08.02-.12c.01-.09.04-.18.07-.27l-2.67-.69c.09.22.15.46.17.71.85.16,1.66.28,2.41.37Z"/><path class="b" d="m124.26,54.51c1.47.45,2.87.78,4.16,1.03.14.03.26.04.39.07-.03-.25-.08-.49-.17-.71l-3.82-.99c-.22.17-.41.36-.56.59Z"/><path class="b" d="m131.31,55.6l2.41.62c0-.84-.05-1.67-.12-2.5-1.09.05-2.02.81-2.29,1.87Z"/><path class="b" d="m118.46,52.27l2.65.69c-.06-.35-.13-.7-.18-1.04-.2-1.37-1.47-2.31-2.83-2.12-.83.12-1.5.64-1.86,1.33.7.39,1.44.78,2.22,1.15h0Z"/><path class="b" d="m131.25,55.87s-.02.08-.02.12c.93.12,1.77.19,2.5.24l-2.41-.62c-.02.09-.05.18-.07.27Z"/><path class="b" d="m121.2,53.46c-.03-.17-.06-.33-.08-.5l-2.65-.69c.93.44,1.84.84,2.73,1.19Z"/><path class="b" d="m106.07,93.35c-.64.5-1.52.92-2.52,1.23l3.44-.05c-1.69,1.32-4.55,2.19-7.8,2.19-3.05,0-5.77-.77-7.49-1.96l3.53-.05c-1.04-.29-1.97-.68-2.68-1.18-.68-.47-1.62-.31-2.09.38-.47.68-.3,1.61.38,2.09,2.04,1.42,5.08,2.23,8.34,2.23,3.5,0,6.68-.92,8.72-2.51.65-.51.77-1.45.26-2.11-.51-.65-1.45-.77-2.11-.26Z"/><path class="b" d="m99.2,96.73c3.24,0,6.11-.87,7.8-2.19l-3.44.05c-1.29.41-2.8.64-4.35.64-1.4,0-2.76-.19-3.95-.52l-3.53.05c1.72,1.19,4.43,1.96,7.49,1.96Z"/></svg>