<?xml version="1.0" encoding="UTF-8"?><svg id="a" xmlns="http://www.w3.org/2000/svg" viewBox="0 0 200 200"><defs><style>.b{stroke-width:0px;}</style></defs><path class="b" d="m189.8,81.34s-.07-.08-.1-.12c-.81-.94-2.01-1.54-3.35-1.54h-4.69c-1.1,0-2.1.41-2.88,1.07h-43.2c-.14-1.04-.61-2.01-1.37-2.77-.91-.9-2.11-1.4-3.39-1.4h-.01l-116.8.32c-1.28,0-2.49.51-3.4,1.42s-1.4,2.12-1.4,3.4l.1,34.47c0,2.65,2.16,4.8,4.81,4.8h.01l28.97-.08v10.04c0,.57.16,1.09.42,1.55.54.96,1.56,1.61,2.73,1.61h7.29c1.46,0,2.69-1.01,3.04-2.36h121.13c.74,1.42,2.22,2.39,3.92,2.39h4.69c1.39,0,2.63-.65,3.44-1.66.61-.76.98-1.72.98-2.76v-45.63c0-1.05-.37-2.01-.98-2.76Zm-54.19,19.36h41.62v1.43h-41.62v-1.43Zm41.64,28.58H56.73v-2.98h120.52v2.98Zm0-8.22v2.76H56.73v-2.93l69.13-.19c.08.03.16.05.25.05h51.14v.32Zm0-1.58h-43.15c.08-.07.16-.14.24-.22.91-.91,1.4-2.12,1.4-3.41l-.04-13.25h3.26v11.48c0,.59.46,1.07,1.02,1.07s1.02-.48,1.02-1.07v-11.48h9.32v8.42c0,.59.46,1.07,1.02,1.07s1.02-.48,1.02-1.07v-8.42h8.21v5.49c0,.59.46,1.07,1.02,1.07s1.02-.48,1.02-1.07v-5.49h7.67v2.46c0,.59.37,1.07.84,1.07s.84-.48.84-1.07v-2.46h5.28v16.87Zm0-35.37v16.11h-5.28v-1.93c0-.59-.37-1.07-.84-1.07s-.84.48-.84,1.07v1.93h-7.67v-5.19c0-.59-.46-1.07-1.02-1.07s-1.02.48-1.02,1.07v5.19h-8.21v-8.68c0-.59-.46-1.07-1.02-1.07s-1.02.48-1.02,1.07v8.68h-9.32v-12.44c0-.59-.46-1.07-1.02-1.07s-1.02.48-1.02,1.07v12.44h-3.27l-.05-18.2h42.13c-.33.62-.53,1.33-.53,2.09Z"/><path class="b" d="m154,76.18c.13.43.53.71.96.71.1,0,.19-.01.29-.04.53-.16.83-.72.67-1.25l-2.75-9.04c-.16-.53-.72-.83-1.25-.67-.53.16-.83.72-.67,1.25l2.75,9.04Z"/><path class="b" d="m146.39,77.5c.19.31.52.48.86.48.18,0,.36-.05.52-.15.47-.29.62-.9.34-1.37l-3.89-6.41c-.29-.47-.9-.62-1.37-.34-.47.29-.62.9-.34,1.37l3.89,6.41Z"/><path class="b" d="m161.6,76.85c.1.03.2.04.29.04.43,0,.83-.28.96-.71l2.75-9.04c.16-.53-.14-1.09-.67-1.25-.53-.16-1.09.14-1.25.67l-2.75,9.04c-.16.53.14,1.09.67,1.25Z"/><path class="b" d="m169.08,77.84c.16.1.34.15.52.15.34,0,.67-.17.86-.48l3.89-6.41c.29-.47.14-1.09-.34-1.37-.47-.29-1.09-.14-1.37.34l-3.89,6.41c-.29.47-.14,1.09.34,1.37Z"/></svg>